<?xml version="1.0" encoding="UTF-8"?>
<svg version="1.1" xmlns="http://www.w3.org/2000/svg" width="709" height="836">
<path d="M0 0 C2.0622048 -0.054348 4.12482816 -0.09294961 6.1875 -0.125 C7.33605469 -0.14820312 8.48460937 -0.17140625 9.66796875 -0.1953125 C15.35763035 0.13819639 18.17553286 1.92056839 22 6 C22.99 6.66 23.98 7.32 25 8 C25 8.66 25 9.32 25 10 C25.721875 10.2475 26.44375 10.495 27.1875 10.75 C32.4185915 13.07492955 35.53334887 16.55835324 39 21 C39.886875 21.845625 40.77375 22.69125 41.6875 23.5625 C43.88449912 25.87825583 44.65571773 26.90145954 45 30 C45.66 30 46.32 30 47 30 C50 33.46153846 50 33.46153846 50 36 C50.66 36 51.32 36 52 36 C52.33 37.32 52.66 38.64 53 40 C53.66 40 54.32 40 55 40 C55.33 41.32 55.66 42.64 56 44 C56.66 44 57.32 44 58 44 C58.33 45.65 58.66 47.3 59 49 C59.66 49 60.32 49 61 49 C64.33333333 55.66666667 67.66666667 62.33333333 71 69 C71.33 69 71.66 69 72 69 C72.33 71.64 72.66 74.28 73 77 C73.66 77 74.32 77 75 77 C75.12117187 77.58007812 75.24234375 78.16015625 75.3671875 78.7578125 C76.53996209 84.22474636 78.060734 89.40141173 79.96240234 94.66259766 C83.75226101 106.85256658 84.49458335 119.60539339 84.39111328 132.28710938 C84.37495109 134.63209696 84.39112741 136.97537444 84.41015625 139.3203125 C84.42719636 151.63259932 83.07470459 163.2971433 79 175 C78.65023242 176.32911682 78.30903983 177.66082739 78 179 C77.34 179 76.68 179 76 179 C75.67 181.97 75.34 184.94 75 188 C74.34 188 73.68 188 73 188 C72.67 191.63 72.34 195.26 72 199 C71.34 199 70.68 199 70 199 C69.97494385 199.81267334 69.9498877 200.62534668 69.92407227 201.46264648 C69.80850882 205.12110752 69.68560416 208.77928528 69.5625 212.4375 C69.52318359 213.71689453 69.48386719 214.99628906 69.44335938 216.31445312 C69.40146484 217.52939453 69.35957031 218.74433594 69.31640625 219.99609375 C69.26141968 221.68496704 69.26141968 221.68496704 69.20532227 223.40795898 C69 226 69 226 68 227 C67.80931679 229.37900002 67.67059503 231.74194575 67.5625 234.125 C67.19675134 241.00758393 66.44872715 247.73723385 65.47265625 254.5625 C64.93831297 258.44863295 64.56218273 262.33300546 64.24609375 266.2421875 C64 268 64 268 63 269 C62.64504748 271.97981148 62.33809939 274.9502045 62.0625 277.9375 C61.47246169 283.9726691 60.77219322 289.85854883 59.4375 295.78125 C58.76649746 299.18419143 58.51021671 302.61124675 58.24609375 306.06640625 C58 308 58 308 57 309 C56.60056824 311.52195967 56.24920152 314.02963656 55.9375 316.5625 C55.80118164 317.62887695 55.80118164 317.62887695 55.66210938 318.71679688 C55.43760497 320.47738403 55.21831603 322.23863478 55 324 C54.34 324 53.68 324 53 324 C52.67 329.94 52.34 335.88 52 342 C51.67 342 51.34 342 51 342 C50.88930176 342.6297876 50.77860352 343.2595752 50.66455078 343.90844727 C50.15516526 346.79381675 49.64012767 349.67815036 49.125 352.5625 C48.95097656 353.55314453 48.77695313 354.54378906 48.59765625 355.56445312 C47.1076399 363.86991461 47.1076399 363.86991461 45.8984375 367.94140625 C45.14402772 370.50967953 44.70312052 372.72427718 44.5 375.375 C44.20612368 378.47644475 43.7265964 381.40823411 43 384.4375 C41.85983899 389.25340397 41.39083244 394.07345422 41 399 C40.34 399 39.68 399 39 399 C38.505 411.87 38.505 411.87 38 425 C37.34 425 36.68 425 36 425 C36.33 430.28 36.66 435.56 37 441 C37.66 438.36 38.32 435.72 39 433 C39.66 433 40.32 433 41 433 C41.33 431.02 41.66 429.04 42 427 C42.66 427 43.32 427 44 427 C44.33 424.69 44.66 422.38 45 420 C45.66 420 46.32 420 47 420 C47.1546875 419.195625 47.1546875 419.195625 47.3125 418.375 C48.18341806 415.36637396 49.55479198 412.7747994 51 410 C51.391875 409.21625 51.78375 408.4325 52.1875 407.625 C52.455625 407.08875 52.72375 406.5525 53 406 C53.66 406 54.32 406 55 406 C55.1546875 404.948125 55.1546875 404.948125 55.3125 403.875 C56.09359003 400.60862353 57.42058743 397.9528148 59 395 C59.66 395 60.32 395 61 395 C61.33 393.35 61.66 391.7 62 390 C62.66 390 63.32 390 64 390 C64.33 388.68 64.66 387.36 65 386 C65.66 386 66.32 386 67 386 C67.2475 385.29875 67.495 384.5975 67.75 383.875 C69.17180238 380.60485452 70.87246288 377.858878 73 375 C73.66 375 74.32 375 75 375 C75.33 373.68 75.66 372.36 76 371 C76.66 371 77.32 371 78 371 C78.33 369.68 78.66 368.36 79 367 C79.66 367 80.32 367 81 367 C81.33 365.68 81.66 364.36 82 363 C82.66 363 83.32 363 84 363 C84.28875 362.401875 84.5775 361.80375 84.875 361.1875 C86 359 86 359 88 356 C88.66 356 89.32 356 90 356 C90.37125 355.1646875 90.37125 355.1646875 90.75 354.3125 C93.35235615 349.49814111 96.73005229 346.33264211 101 343 C103.64514934 340.404167 106.23662703 337.75833865 108.82421875 335.10546875 C109.7786209 334.13278804 110.73304812 333.16013192 111.6875 332.1875 C112.41549805 331.43436523 112.41549805 331.43436523 113.15820312 330.66601562 C114.40124606 329.40582727 115.69699892 328.19808956 117 327 C117.66 327 118.32 327 119 327 C119 326.34 119 325.68 119 325 C120.65 324.34 122.3 323.68 124 323 C124 322.34 124 321.68 124 321 C137.26506024 309 137.26506024 309 143 309 C143 308.34 143 307.68 143 307 C144.32 306.67 145.64 306.34 147 306 C147 305.34 147 304.68 147 304 C147.56589844 303.73445313 148.13179687 303.46890625 148.71484375 303.1953125 C149.81505859 302.66550781 149.81505859 302.66550781 150.9375 302.125 C151.66839844 301.77695312 152.39929688 301.42890625 153.15234375 301.0703125 C155.16332459 300.1315023 155.16332459 300.1315023 156 298 C161.42307692 295 161.42307692 295 164 295 C164 294.34 164 293.68 164 293 C165.98 292.67 167.96 292.34 170 292 C170 291.34 170 290.68 170 290 C171.03640625 289.51789063 172.0728125 289.03578125 173.140625 288.5390625 C174.51043032 287.90107098 175.88022123 287.26304852 177.25 286.625 C177.93191406 286.30789063 178.61382812 285.99078125 179.31640625 285.6640625 C180.31220703 285.2 180.31220703 285.2 181.328125 284.7265625 C181.97072266 284.42782227 182.61332031 284.12908203 183.27539062 283.82128906 C184.63354169 283.17451384 185.96993409 282.482042 187.296875 281.7734375 C189 281 189 281 192 281 C192 280.34 192 279.68 192 279 C194.64 278.67 197.28 278.34 200 278 C200 277.34 200 276.68 200 276 C202.31 275.67 204.62 275.34 207 275 C207 274.34 207 273.68 207 273 C209.64 272.67 212.28 272.34 215 272 C215 271.34 215 270.68 215 270 C218.63 269.67 222.26 269.34 226 269 C226 268.34 226 267.68 226 267 C229.82745451 265.25314692 233.12442723 264.65113667 237.3125 264.375 C238.38113281 264.30023438 239.44976562 264.22546875 240.55078125 264.1484375 C241.35902344 264.09945313 242.16726563 264.05046875 243 264 C243 263.34 243 262.68 243 262 C249.06696699 261.22959149 254.88514973 260.90293888 261 261 C261 260.34 261 259.68 261 259 C262.17357056 258.91697632 262.17357056 258.91697632 263.37084961 258.83227539 C266.89342387 258.58041959 270.41544822 258.32155545 273.9375 258.0625 C275.16919922 257.97548828 276.40089844 257.88847656 277.66992188 257.79882812 C278.83974609 257.71181641 280.00957031 257.62480469 281.21484375 257.53515625 C282.29886475 257.456604 283.38288574 257.37805176 284.49975586 257.29711914 C286.93732551 257.26891566 286.93732551 257.26891566 288 256 C290.58189446 255.89908525 293.136465 255.86028501 295.71875 255.8671875 C296.49182495 255.86623077 297.2648999 255.86527405 298.06140137 255.86428833 C299.69897544 255.86360659 301.33655219 255.86546043 302.97412109 255.86962891 C305.48931921 255.87497729 308.00433873 255.86968374 310.51953125 255.86328125 C312.10677123 255.86394203 313.6940111 255.8652232 315.28125 255.8671875 C316.4171759 255.86415115 316.4171759 255.86415115 317.5760498 255.86105347 C322.88504868 255.88504868 322.88504868 255.88504868 324 257 C325.9230873 257.2285321 327.85360228 257.39518857 329.78515625 257.53515625 C330.95498047 257.62216797 332.12480469 257.70917969 333.33007812 257.79882812 C334.56177734 257.88583984 335.79347656 257.97285156 337.0625 258.0625 C338.91584961 258.19881836 338.91584961 258.19881836 340.80664062 258.33789062 C343.87081994 258.56267598 346.93524802 258.7831856 350 259 C350 259.66 350 260.32 350 261 C355.94 261.33 361.88 261.66 368 262 C368 262.33 368 262.66 368 263 C369.01707031 263.14695312 369.01707031 263.14695312 370.0546875 263.296875 C376.0199033 264.25527532 381.21536219 265.73374391 386.76171875 268.11328125 C389.47102133 269.18660007 392.10689514 269.69546265 395 270 C395 270.66 395 271.32 395 272 C396.155 272.103125 397.31 272.20625 398.5 272.3125 C403.01171519 272.86035113 406.80605749 274.2774879 411 276 C411 276.66 411 277.32 411 278 C412.010625 278.103125 413.02125 278.20625 414.0625 278.3125 C418.21218208 279.03704767 421.21356263 280.22269266 425 282 C425 282.66 425 283.32 425 284 C425.845625 284.0825 426.69125 284.165 427.5625 284.25 C431.72113491 285.15733853 434.39582699 286.76541273 438 289 C438 290.32 438 291.64 438 293 C435.69 292.67 433.38 292.34 431 292 C431 291.34 431 290.68 431 290 C428.69 289.67 426.38 289.34 424 289 C424 288.34 424 287.68 424 287 C423.113125 286.9175 422.22625 286.835 421.3125 286.75 C414.42517832 285.77406373 407.81831034 283.22808015 401.21875 281.10546875 C396.10966008 279.50493595 391.31963776 278.58032412 386 278 C385.67 277.67 385.34 277.34 385 277 C382.33267593 276.62563873 379.67625345 276.29429591 377 276 C369.13513514 275.13513514 369.13513514 275.13513514 368 274 C365.85770616 273.77067714 363.70859857 273.60445445 361.55859375 273.46484375 C360.25341797 273.37783203 358.94824219 273.29082031 357.60351562 273.20117188 C356.21485003 273.11318209 354.82617806 273.02529278 353.4375 272.9375 C352.04489407 272.8461259 350.65231546 272.75433447 349.25976562 272.66210938 C345.84009122 272.43728649 342.42019221 272.21677941 339 272 C339 271.34 339 270.68 339 270 C328.11 270.495 328.11 270.495 317 271 C317 271.33 317 271.66 317 272 C306.77 272.33 296.54 272.66 286 273 C286 273.66 286 274.32 286 275 C284.85660156 275.13277344 283.71320313 275.26554687 282.53515625 275.40234375 C281.0442438 275.5805031 279.55335982 275.75890082 278.0625 275.9375 C277.30775391 276.02451172 276.55300781 276.11152344 275.77539062 276.20117188 C272.07812542 276.34324099 272.07812542 276.34324099 269 278 C266.81707226 278.23481693 264.62796826 278.41363323 262.4375 278.5625 C261.23996094 278.64628906 260.04242188 278.73007812 258.80859375 278.81640625 C257.88175781 278.87699219 256.95492188 278.93757813 256 279 C256 279.66 256 280.32 256 281 C252.7 281.33 249.4 281.66 246 282 C246 282.66 246 283.32 246 284 C244.906875 284.2475 243.81375 284.495 242.6875 284.75 C238.12315727 285.87478446 233.79852287 287.50240442 229.41796875 289.1953125 C227 290 227 290 224 290 C224 290.66 224 291.32 224 292 C221.36 292.33 218.72 292.66 216 293 C216 293.66 216 294.32 216 295 C213.69 295.33 211.38 295.66 209 296 C209 296.66 209 297.32 209 298 C207.10435574 298.79211929 205.20847629 299.58367576 203.3125 300.375 C202.25675781 300.81585938 201.20101563 301.25671875 200.11328125 301.7109375 C197.41643343 302.82757462 194.71283736 303.92291801 192 305 C192 305.66 192 306.32 192 307 C186.375 310 186.375 310 183 310 C183 310.66 183 311.32 183 312 C181.35 312.33 179.7 312.66 178 313 C178 313.66 178 314.32 178 315 C176.35 315.33 174.7 315.66 173 316 C173 316.66 173 317.32 173 318 C172.01 318.33 171.02 318.66 170 319 C169.67 319.66 169.34 320.32 169 321 C168.01 321 167.02 321 166 321 C166 321.66 166 322.32 166 323 C164.27734375 324.33203125 164.27734375 324.33203125 161.9375 325.8125 C161.11765625 326.34230469 160.2978125 326.87210937 159.453125 327.41796875 C158.64359375 327.94003906 157.8340625 328.46210938 157 329 C152.99065636 331.71174599 149.37274935 334.51482568 146 338 C141.33333333 342 141.33333333 342 139 342 C138.67 342.99 138.34 343.98 138 345 C136.34211215 346.34423339 134.67423683 347.67618483 133 349 C132.071875 350.175625 132.071875 350.175625 131.125 351.375 C128.8225667 354.21918231 126.31923205 356.37047334 123.48828125 358.66796875 C121.87117455 359.95079945 121.87117455 359.95079945 121 362 C120.34 362 119.68 362 119 362 C118.62875 362.86625 118.62875 362.86625 118.25 363.75 C116.83400344 366.29879381 115.05276785 367.94723215 113 370 C112.67 370.99 112.34 371.98 112 373 C110.5625 374.6875 110.5625 374.6875 109 376 C108.34 376 107.68 376 107 376 C106.7421875 376.54140625 106.484375 377.0828125 106.21875 377.640625 C104.77533706 380.43492441 103.16561466 383.08219346 101.5 385.75 C100.8915625 386.73484375 100.283125 387.7196875 99.65625 388.734375 C99.1096875 389.48203125 98.563125 390.2296875 98 391 C97.34 391 96.68 391 96 391 C95.67 392.32 95.34 393.64 95 395 C94.34 395 93.68 395 93 395 C92.67 396.65 92.34 398.3 92 400 C91.34 400 90.68 400 90 400 C89.67 401.65 89.34 403.3 89 405 C88.34 405 87.68 405 87 405 C86.73316406 405.71027344 86.46632812 406.42054688 86.19140625 407.15234375 C84.54968015 411.07633826 82.43631343 414.68317364 80.33984375 418.37890625 C79.18387024 420.64030048 78.47217612 422.52253273 78 425 C77.34 425 76.68 425 76 425 C75.67 426.98 75.34 428.96 75 431 C74.34 431 73.68 431 73 431 C72.67 433.31 72.34 435.62 72 438 C71.34 438 70.68 438 70 438 C69.67 440.31 69.34 442.62 69 445 C68.34 445 67.68 445 67 445 C66.9175 445.763125 66.835 446.52625 66.75 447.3125 C66.10454057 450.48600889 65.25720731 453.17116145 64.125 456.1875 C61.21983447 463.95221515 58.91712396 471.74588435 58 480 C57.34 480 56.68 480 56 480 C55.67 484.29 55.34 488.58 55 493 C54.34 493 53.68 493 53 493 C52.67 500.26 52.34 507.52 52 515 C51.67 515 51.34 515 51 515 C49.56937339 535.97400795 49.34391105 557.032731 51 578 C51.33 578 51.66 578 52 578 C52.33 585.26 52.66 592.52 53 600 C53.66 600 54.32 600 55 600 C55.12117187 600.85722656 55.24234375 601.71445312 55.3671875 602.59765625 C56.23934521 608.54845537 57.19042644 614.25194282 59 620 C59.5513449 621.89304136 60.09225847 623.78913932 60.625 625.6875 C60.88539063 626.59886719 61.14578125 627.51023437 61.4140625 628.44921875 C62 631 62 631 62 635 C62.66 635 63.32 635 64 635 C64.25394531 635.85722656 64.50789062 636.71445312 64.76953125 637.59765625 C66.81970089 644.40851945 68.8604131 650.94604586 72.1875 657.25 C73 659 73 659 73 662 C73.66 662 74.32 662 75 662 C75.33 664.31 75.66 666.62 76 669 C76.66 669 77.32 669 78 669 C78.33 670.98 78.66 672.96 79 675 C79.66 675 80.32 675 81 675 C81.33 676.98 81.66 678.96 82 681 C82.66 681 83.32 681 84 681 C87 686.75 87 686.75 87 689 C87.66 689 88.32 689 89 689 C89.33 690.65 89.66 692.3 90 694 C90.66 694 91.32 694 92 694 C92.33 695.98 92.66 697.96 93 700 C93.66 700 94.32 700 95 700 C95.33 701.32 95.66 702.64 96 704 C96.66 704 97.32 704 98 704 C98.33 705.32 98.66 706.64 99 708 C99.66 708 100.32 708 101 708 C104 712.38461538 104 712.38461538 104 715 C104.66 715 105.32 715 106 715 C106.33 716.32 106.66 717.64 107 719 C107.66 719 108.32 719 109 719 C109.33 720.32 109.66 721.64 110 723 C110.66 723 111.32 723 112 723 C116 727.47058824 116 727.47058824 116 730 C116.66 730 117.32 730 118 730 C119.35278115 731.98689731 120.68568305 733.98745218 122 736 C122.66 736.33 123.32 736.66 124 737 C124 737.66 124 738.32 124 739 C124.66 739 125.32 739 126 739 C127.33895632 740.66215268 128.67130142 742.32963607 130 744 C130.825 744.66 131.65 745.32 132.5 746 C135.12899543 748.10319635 136.90319635 750.37899543 139 753 C139.9075 753.721875 140.815 754.44375 141.75 755.1875 C142.4925 755.785625 143.235 756.38375 144 757 C144 757.66 144 758.32 144 759 C144.680625 759.20625 145.36125 759.4125 146.0625 759.625 C149.98381834 761.46051071 152.7970652 764.12916674 156 767 C158.52983402 769.10819501 160.91441366 770.94942626 163.75 772.625 C166 774 166 774 167 776 C167.99 776.33 168.98 776.66 170 777 C170 777.66 170 778.32 170 779 C170.804375 779.12375 171.60875 779.2475 172.4375 779.375 C173.283125 779.58125 174.12875 779.7875 175 780 C175.33 780.66 175.66 781.32 176 782 C176.99 782.33 177.98 782.66 179 783 C179 783.66 179 784.32 179 785 C180.65 785.33 182.3 785.66 184 786 C184 786.66 184 787.32 184 788 C184.70125 788.0825 185.4025 788.165 186.125 788.25 C189.65698979 789.17138864 192.01928357 790.92645814 195 793 C195.99 793.33 196.98 793.66 198 794 C198 794.66 198 795.32 198 796 C198.78375 796.061875 199.5675 796.12375 200.375 796.1875 C204.570024 797.127764 207.86232042 798.82342403 211.6328125 800.84375 C213.77686941 801.89101212 215.67157947 802.52787787 218 803 C218 803.66 218 804.32 218 805 C220.64 805.33 223.28 805.66 226 806 C226 806.66 226 807.32 226 808 C228.64 808.33 231.28 808.66 234 809 C234 809.66 234 810.32 234 811 C234.85271484 811.05607422 234.85271484 811.05607422 235.72265625 811.11328125 C241.09001002 811.57026796 245.02524178 812.85570766 250 815 C252.90474251 815.61845479 255.80779486 816.11456215 258.7421875 816.5703125 C261 817 261 817 262 818 C264.81322448 818.37548773 267.6155982 818.70657723 270.4375 819 C278.73374613 819.86687307 278.73374613 819.86687307 281 821 C291.17543941 822.53251358 301.65850252 822.32535308 311.92700195 822.55224609 C314.2027506 822.60382247 316.47830652 822.66102676 318.75390625 822.71875 C319.80222374 822.73911316 319.80222374 822.73911316 320.87171936 822.7598877 C325.77386999 822.88693499 325.77386999 822.88693499 328 824 C329.53668865 824.22467831 331.07968054 824.40796805 332.625 824.5625 C333.44226563 824.64628906 334.25953125 824.73007812 335.1015625 824.81640625 C335.72804688 824.87699219 336.35453125 824.93757812 337 825 C337 824.34 337 823.68 337 823 C338.06528931 822.96241577 338.06528931 822.96241577 339.15209961 822.92407227 C342.41403464 822.80701528 345.67575722 822.68479254 348.9375 822.5625 C350.05447266 822.52318359 351.17144531 822.48386719 352.32226562 822.44335938 C362.95049003 822.55927742 362.95049003 822.55927742 373 820 C376.29090035 819.56096733 379.58135471 819.18557162 382.8828125 818.83789062 C387.167521 818.34809588 390.92318826 817.48144893 395 816 C396.76710835 815.50727344 398.53797769 815.02781918 400.3125 814.5625 C406.28217329 812.95434311 412.15716644 811.17421386 417.875 808.8125 C420 808 420 808 423 808 C423 807.34 423 806.68 423 806 C425.10251861 805.32815382 427.20707763 804.66269032 429.3125 804 C430.48425781 803.62875 431.65601563 803.2575 432.86328125 802.875 C436 802 436 802 439 802 C439 802.66 439 803.32 439 804 C438.34 804 437.68 804 437 804 C437 804.66 437 805.32 437 806 C430.07527969 809.26179661 423.19351803 812.38417526 416 815 C415.2575 815.391875 414.515 815.78375 413.75 816.1875 C412 817 412 817 408 817 C408 817.66 408 818.32 408 819 C404.7 819.33 401.4 819.66 398 820 C398 820.66 398 821.32 398 822 C392.34823709 824.24654357 386.8143741 825.90046868 380.875 827.1875 C380.10285156 827.36474609 379.33070313 827.54199219 378.53515625 827.72460938 C374.27683192 828.66405231 370.39022165 829.20338087 366 829 C366 829.66 366 830.32 366 831 C359.39930403 832.54165915 352.85017345 833.63223568 346.125 834.5 C343.14022705 834.66426968 343.14022705 834.66426968 342 836 C339.85256451 836.09425595 337.70198974 836.11742648 335.55249023 836.11352539 C334.87934784 836.11367142 334.20620544 836.11381744 333.51266479 836.1139679 C331.27794216 836.11326878 329.0433019 836.10547652 326.80859375 836.09765625 C325.26302638 836.09579206 323.71745843 836.09436816 322.17189026 836.09336853 C318.09642923 836.0895434 314.02100363 836.07971317 309.94555664 836.06866455 C305.78988118 836.05845032 301.63420001 836.05387089 297.47851562 836.04882812 C289.31899413 836.03809089 281.15950147 836.02101454 273 836 C273 835.34 273 834.68 273 834 C271.824375 834.061875 270.64875 834.12375 269.4375 834.1875 C260.44771642 834.2017695 251.46212607 831.85945469 243 829 C241.40288608 828.63436502 239.79838175 828.29920192 238.1875 828 C233.43491722 827.09131194 228.71980928 826.06576339 224 825 C224 824.34 224 823.68 224 823 C221.03 822.67 218.06 822.34 215 822 C215 821.34 215 820.68 215 820 C211.7 819.67 208.4 819.34 205 819 C205 818.34 205 817.68 205 817 C204.175 816.9175 203.35 816.835 202.5 816.75 C198.85539116 815.96901239 196.17198349 814.70839259 192.9296875 812.9375 C190.96640309 811.98367761 189.12919904 811.45422913 187 811 C187 810.34 187 809.68 187 809 C185.02 808.67 183.04 808.34 181 808 C181 807.34 181 806.68 181 806 C179.02 805.67 177.04 805.34 175 805 C175 804.34 175 803.68 175 803 C173.02 802.67 171.04 802.34 169 802 C169 801.34 169 800.68 169 800 C167.6696875 799.87625 167.6696875 799.87625 166.3125 799.75 C162.55555844 798.89937172 160.8762863 797.48759896 158 795 C157.01 794.67 156.02 794.34 155 794 C155 793.34 155 792.68 155 792 C154.195625 791.87625 153.39125 791.7525 152.5625 791.625 C151.716875 791.41875 150.87125 791.2125 150 791 C149.67 790.34 149.34 789.68 149 789 C148.01 788.67 147.02 788.34 146 788 C146 787.34 146 786.68 146 786 C145.34 785.773125 144.68 785.54625 144 785.3125 C140.11341372 783.6121185 136.36320183 781.60376916 133 779 C133 778.34 133 777.68 133 777 C132.01 777 131.02 777 130 777 C129.4225 776.2575 128.845 775.515 128.25 774.75 C126.21341811 772.26084435 125.14425592 771.34519584 122.4375 769.875 C117.82142857 767.35714286 117.82142857 767.35714286 116 765 C116 764.34 116 763.68 116 763 C115.01 763 114.02 763 113 763 C111.64316249 761.3524116 110.31543279 759.68083079 109 758 C107.85360902 756.97681926 106.68540937 755.97770944 105.5 755 C102.57879208 752.57601896 100.35557728 749.98373122 98 747 C97.236875 746.4225 96.47375 745.845 95.6875 745.25 C90.76183324 741.12618597 86.69567069 735.84283303 84 730 C83.34 730 82.68 730 82 730 C81.896875 729.360625 81.79375 728.72125 81.6875 728.0625 C81.460625 727.381875 81.23375 726.70125 81 726 C80.01 725.67 79.02 725.34 78 725 C78 724.34 78 723.68 78 723 C77.34 723 76.68 723 76 723 C75.67 721.68 75.34 720.36 75 719 C74.34 719 73.68 719 73 719 C71.4921875 717.1015625 71.4921875 717.1015625 69.875 714.625 C69.33617187 713.81289063 68.79734375 713.00078125 68.2421875 712.1640625 C67 710 67 710 67 708 C66.34 708 65.68 708 65 708 C64.67 706.68 64.34 705.36 64 704 C63.34 704 62.68 704 62 704 C61.67 702.35 61.34 700.7 61 699 C60.34 699 59.68 699 59 699 C58.32845067 697.71086513 57.66291141 696.41859796 57 695.125 C56.62875 694.40570312 56.2575 693.68640625 55.875 692.9453125 C55 691 55 691 55 689 C54.34 689 53.68 689 53 689 C52.73445312 688.45730469 52.46890625 687.91460938 52.1953125 687.35546875 C51.84210938 686.64003906 51.48890625 685.92460938 51.125 685.1875 C50.77695313 684.47980469 50.42890625 683.77210938 50.0703125 683.04296875 C48.9343514 680.78753582 48.9343514 680.78753582 47 678 C47 677.01 47 676.02 47 675 C46.34 675 45.68 675 45 675 C44.67 673.35 44.34 671.7 44 670 C43.34 670 42.68 670 42 670 C41.67 668.02 41.34 666.04 41 664 C40.34 664 39.68 664 39 664 C38.32591692 662.73308493 37.66099503 661.46129251 37 660.1875 C36.62875 659.47980469 36.2575 658.77210938 35.875 658.04296875 C35 656 35 656 35 653 C34.34 653 33.68 653 33 653 C30 647.375 30 647.375 30 644 C29.34 644 28.68 644 28 644 C27.505 641.03 27.505 641.03 27 638 C26.34 638 25.68 638 25 638 C24.505 635.03 24.505 635.03 24 632 C23.34 632 22.68 632 22 632 C21.66226563 631.11957031 21.32453125 630.23914063 20.9765625 629.33203125 C20.53054687 628.17058594 20.08453125 627.00914062 19.625 625.8125 C19.18414062 624.66394531 18.74328125 623.51539063 18.2890625 622.33203125 C17.50162432 620.29662285 16.68975169 618.27018771 15.8359375 616.26171875 C15 614 15 614 15 611 C14.34 611 13.68 611 13 611 C12.49384702 609.73160474 11.99530901 608.46016898 11.5 607.1875 C11.2215625 606.47980469 10.943125 605.77210938 10.65625 605.04296875 C10 603 10 603 10 600 C9.34 600 8.68 600 8 600 C7.67 596.7 7.34 593.4 7 590 C6.34 590 5.68 590 5 590 C4.505 585.545 4.505 585.545 4 581 C3.34 581 2.68 581 2 581 C0.11881924 573.92676035 -1.39907543 566.90929275 -2.53515625 559.6796875 C-3.1097029 556.36759503 -4.02906292 553.21622909 -5 550 C-6.54018277 543.74015604 -7.65928297 537.4332761 -8.625 531.0625 C-8.7590625 530.23298828 -8.893125 529.40347656 -9.03125 528.54882812 C-9.92786466 522.66136349 -10.15687463 516.95093597 -10 511 C-10.66 511 -11.32 511 -12 511 C-12.66 502.75 -13.32 494.5 -14 486 C-14.33 486 -14.66 486 -15 486 C-15.05534912 484.82381104 -15.11069824 483.64762207 -15.16772461 482.43579102 C-15.37357891 478.08773492 -15.58561637 473.73999891 -15.79956055 469.39233398 C-15.89142891 467.50765041 -15.98160163 465.62288342 -16.07006836 463.73803711 C-16.1972397 461.03475796 -16.33043047 458.33183375 -16.46484375 455.62890625 C-16.52272316 454.35703209 -16.52272316 454.35703209 -16.58177185 453.0594635 C-16.42207274 449.21414717 -16.42207274 449.21414717 -18 446 C-18.21668331 444.01524108 -18.37153113 442.02366446 -18.5 440.03125 C-18.5825 438.82082031 -18.665 437.61039062 -18.75 436.36328125 C-18.91666667 433.78776042 -19.08333333 431.21223958 -19.25 428.63671875 C-19.3325 427.42628906 -19.415 426.21585937 -19.5 424.96875 C-19.5721875 423.84919922 -19.644375 422.72964844 -19.71875 421.57617188 C-19.72017175 419.07109868 -19.72017175 419.07109868 -21 418 C-21.37257052 415.86063023 -21.69850082 413.71303715 -22 411.5625 C-22.52117391 407.13450925 -22.52117391 407.13450925 -24 403 C-25.30300679 396.38316865 -26.22720917 389.69752053 -27 383 C-27.66 383 -28.32 383 -29 383 C-29.33 380.03 -29.66 377.06 -30 374 C-30.66 374 -31.32 374 -32 374 C-32.495 369.05 -32.495 369.05 -33 364 C-33.66 364 -34.32 364 -35 364 C-35.495 360.535 -35.495 360.535 -36 357 C-36.66 357 -37.32 357 -38 357 C-38.495 353.535 -38.495 353.535 -39 350 C-39.66 350 -40.32 350 -41 350 C-41.33 348.02 -41.66 346.04 -42 344 C-42.66 344 -43.32 344 -44 344 C-47 338.375 -47 338.375 -47 335 C-47.66 335 -48.32 335 -49 335 C-53 328.25 -53 328.25 -53 326 C-53.66 326 -54.32 326 -55 326 C-54.18595703 327.485 -54.18595703 327.485 -53.35546875 329 C-44 346.2039579 -44 346.2039579 -44 352 C-43.34 352 -42.68 352 -42 352 C-41.505 355.465 -41.505 355.465 -41 359 C-40.34 359 -39.68 359 -39 359 C-38.67 361.64 -38.34 364.28 -38 367 C-37.34 367 -36.68 367 -36 367 C-35.60167969 368.33804688 -35.60167969 368.33804688 -35.1953125 369.703125 C-34.84210938 370.87359375 -34.48890625 372.0440625 -34.125 373.25 C-33.77695313 374.41015625 -33.42890625 375.5703125 -33.0703125 376.765625 C-32.20944144 379.36708936 -31.22640447 381.57284805 -30 384 C-28.51946503 389.23509425 -27.68795743 394.6110001 -27 400 C-26.34 400 -25.68 400 -25 400 C-24.34 404.29 -23.68 408.58 -23 413 C-22.67 413 -22.34 413 -22 413 C-22 414.98 -22 416.96 -22 419 C-23.8125 419.625 -23.8125 419.625 -26 420 C-26.99 419.34 -27.98 418.68 -29 418 C-29 417.34 -29 416.68 -29 416 C-30.98 415.67 -32.96 415.34 -35 415 C-35 414.34 -35 413.68 -35 413 C-35.82951172 412.87044922 -35.82951172 412.87044922 -36.67578125 412.73828125 C-39.71968237 411.77139501 -41.69349547 410.17312546 -44.1875 408.1875 C-45.50814453 407.15689453 -45.50814453 407.15689453 -46.85546875 406.10546875 C-49.02726521 403.97323143 -49.65987603 402.9677484 -50 400 C-50.66 400 -51.32 400 -52 400 C-52.33 398.68 -52.66 397.36 -53 396 C-53.66 396 -54.32 396 -55 396 C-55.67354499 394.56570999 -56.33859701 393.12742943 -57 391.6875 C-57.37125 390.88699219 -57.7425 390.08648437 -58.125 389.26171875 C-59 387 -59 387 -59 384 C-59.66 384 -60.32 384 -61 384 C-63.26318202 375.81553672 -64.3902744 368.10994163 -64.70874023 359.65063477 C-64.82821208 356.53310945 -65.00667865 353.97996405 -66 351 C-66.21457499 349.22927147 -66.38784229 347.45336966 -66.53515625 345.67578125 C-66.62216797 344.64775391 -66.70917969 343.61972656 -66.79882812 342.56054688 C-66.88583984 341.48869141 -66.97285156 340.41683594 -67.0625 339.3125 C-67.19881836 337.68731445 -67.19881836 337.68731445 -67.33789062 336.02929688 C-67.56188773 333.35312093 -67.7824562 330.67670699 -68 328 C-68.33 328 -68.66 328 -69 328 C-69.33 324.7 -69.66 321.4 -70 318 C-70.66 318 -71.32 318 -72 318 C-72.28875 316.80375 -72.5775 315.6075 -72.875 314.375 C-73.7524334 310.85273164 -74.80020637 307.42798179 -76 304 C-76.66 304 -77.32 304 -78 304 C-78.33 302.35 -78.66 300.7 -79 299 C-79.66 299 -80.32 299 -81 299 C-83.67961086 296.57970632 -85.99606713 294.00589931 -88 291 C-88 290.34 -88 289.68 -88 289 C-85.69 289.33 -83.38 289.66 -81 290 C-81 290.66 -81 291.32 -81 292 C-80.443125 292.03738281 -79.88625 292.07476562 -79.3125 292.11328125 C-73.71374576 292.59560636 -69.18334636 293.83241879 -64 296 C-64 296.66 -64 297.32 -64 298 C-62.02 298.33 -60.04 298.66 -58 299 C-58 299.66 -58 300.32 -58 301 C-56.35 301.33 -54.7 301.66 -53 302 C-53 302.66 -53 303.32 -53 304 C-52.01 304 -51.02 304 -50 304 C-50 304.66 -50 305.32 -50 306 C-48.68 306.33 -47.36 306.66 -46 307 C-46 307.66 -46 308.32 -46 309 C-45.401875 309.103125 -44.80375 309.20625 -44.1875 309.3125 C-41.68741714 310.09824033 -40.62464918 310.96918853 -39 313 C-39 313.66 -39 314.32 -39 315 C-38.01 315.33 -37.02 315.66 -36 316 C-34.17578125 317.99609375 -34.17578125 317.99609375 -32.3125 320.4375 C-31.37857422 321.64212891 -31.37857422 321.64212891 -30.42578125 322.87109375 C-29 325 -29 325 -29 327 C-28.34 327 -27.68 327 -27 327 C-27 327.99 -27 328.98 -27 330 C-26.34 330 -25.68 330 -25 330 C-24.67 331.32 -24.34 332.64 -24 334 C-23.34 334 -22.68 334 -22 334 C-21.505 337.465 -21.505 337.465 -21 341 C-20.34 341 -19.68 341 -19 341 C-18.505 344.465 -18.505 344.465 -18 348 C-17.34 348 -16.68 348 -16 348 C-11.6178353 360.41613331 -10.89218354 372.52900946 -11.0625 385.5625 C-11.21174491 397.62951832 -10.00282046 409.11877649 -8 421 C-7.78406821 422.34357559 -7.56912245 423.68731027 -7.35546875 425.03125 C-6.92346466 427.6916493 -6.47572276 430.34714602 -6 433 C-5.67 433 -5.34 433 -5 433 C-4.01 444.385 -4.01 444.385 -3 456 C-2.67 456 -2.34 456 -2 456 C-1.94465088 456.6612085 -1.88930176 457.32241699 -1.83227539 458.00366211 C-1.58034285 460.9820238 -1.32151498 463.95974625 -1.0625 466.9375 C-0.97548828 467.97841797 -0.88847656 469.01933594 -0.79882812 470.09179688 C-0.71181641 471.08115234 -0.62480469 472.07050781 -0.53515625 473.08984375 C-0.456604 474.00628662 -0.37805176 474.92272949 -0.29711914 475.86694336 C-0.22129249 477.97963826 -0.22129249 477.97963826 1 479 C1.21430443 480.4612511 1.37047386 481.93115235 1.5 483.40234375 C1.5825 484.29244141 1.665 485.18253906 1.75 486.09960938 C1.8325 487.03611328 1.915 487.97261719 2 488.9375 C2.16300982 490.78027505 2.32950937 492.62274575 2.5 494.46484375 C2.60828125 495.69642212 2.60828125 495.69642212 2.71875 496.95288086 C2.8967085 499.06117665 2.8967085 499.06117665 4 501 C4.20772782 502.5797773 4.36717433 504.16607612 4.5 505.75390625 C4.5825 506.69041016 4.665 507.62691406 4.75 508.59179688 C4.91699309 510.57614443 5.08365849 512.56051959 5.25 514.54492188 C5.3325 515.48013672 5.415 516.41535156 5.5 517.37890625 C5.5721875 518.2407251 5.644375 519.10254395 5.71875 519.99047852 C5.79353751 521.99429447 5.79353751 521.99429447 7 523 C7.39993686 525.68862664 7.75134543 528.36352217 8.0625 531.0625 C8.15337891 531.82111328 8.24425781 532.57972656 8.33789062 533.36132812 C8.5624374 535.2404301 8.78170978 537.12016095 9 539 C7.81435281 531.54970486 7.87278085 524.18766662 7.90234375 516.65625 C7.90421212 515.27762911 7.90563404 513.89900754 7.90663147 512.52038574 C7.91042365 508.916851 7.92022522 505.31335748 7.93133545 501.70983887 C7.94162104 498.02271075 7.94614431 494.33557588 7.95117188 490.6484375 C7.96185091 483.43227301 7.97888701 476.21614231 8 469 C8.33 469 8.66 469 9 469 C9.07347656 467.69289063 9.07347656 467.69289063 9.1484375 466.359375 C9.57137902 459.62147913 10.20981224 453.04355315 11.39453125 446.3984375 C13.22602893 436.11841829 14.96375258 425.83119047 15.75390625 415.4140625 C16.10099441 412.00929289 16.80649675 408.70978175 17.52734375 405.3671875 C17.98831614 403.05851589 18.30032772 400.77624322 18.5625 398.4375 C19 395 19 395 20 394 C20.39943176 391.47804033 20.75079848 388.97036344 21.0625 386.4375 C21.19881836 385.37112305 21.19881836 385.37112305 21.33789062 384.28320312 C21.56239503 382.52261597 21.78168397 380.76136522 22 379 C22.66 379 23.32 379 24 379 C24.495 371.08 24.495 371.08 25 363 C25.66 363 26.32 363 27 363 C27.33 358.38 27.66 353.76 28 349 C28.66 349 29.32 349 30 349 C29.97164063 348.0203125 29.94328125 347.040625 29.9140625 346.03125 C29.91621419 341.75369504 30.59441363 337.69565172 31.375 333.5 C31.50132812 332.77941406 31.62765625 332.05882812 31.7578125 331.31640625 C32.57771205 326.78236175 33.72041839 322.43014811 35 318 C35.20859457 316.67258 35.38459101 315.33874431 35.5 314 C35.78284283 311.35845004 36.21967974 309.27231085 37 306.6875 C38.31821262 301.82659096 38.65562147 297.01161383 39 292 C39.66 292 40.32 292 41 292 C40.9690625 290.081875 40.9690625 290.081875 40.9375 288.125 C40.92941245 283.03792983 41.40979211 278.0483853 42 273 C42.66 273 43.32 273 44 273 C43.98839844 272.42894531 43.97679687 271.85789062 43.96484375 271.26953125 C43.88547172 264.13738751 44.37660007 257.1023064 45 250 C45.33 250 45.66 250 46 250 C48.47148666 225.08355826 49.31355766 200.2519364 49.31185913 175.22898865 C49.31249124 173.03045233 49.31698281 170.83195242 49.32226562 168.63342285 C49.35445375 151.21984676 48.82992587 133.95847824 47.2331543 116.60488892 C46.898367 112.86451731 46.634438 109.12131368 46.375 105.375 C46.30023438 104.31023437 46.22546875 103.24546875 46.1484375 102.1484375 C46.09945312 101.43945312 46.05046875 100.73046875 46 100 C45.67 100 45.34 100 45 100 C44.01 92.08 44.01 92.08 43 84 C42.67 84 42.34 84 42 84 C41.87882813 83.14277344 41.75765625 82.28554687 41.6328125 81.40234375 C40.63044433 74.12138975 40.63044433 74.12138975 38.875 67 C38.04459392 64.15289342 37.82166555 61.94251847 38 59 C37.34 59 36.68 59 36 59 C35.60167969 57.53626953 35.60167969 57.53626953 35.1953125 56.04296875 C34.83882407 54.75773414 34.48203761 53.47258216 34.125 52.1875 C33.77695313 50.92292969 33.42890625 49.65835938 33.0703125 48.35546875 C32.14299705 44.91591287 32.14299705 44.91591287 30 42 C30 41.01 30 40.02 30 39 C29.01 39.495 29.01 39.495 28 40 C28.495 41.546875 28.495 41.546875 29 43.125 C29.9715192 46.48426709 30.17116771 49.49106202 30 53 C30.66 53 31.32 53 32 53 C32.495 59.435 32.495 59.435 33 66 C33.66 66 34.32 66 35 66 C35.495 73.92 35.495 73.92 36 82 C36.66 82 37.32 82 38 82 C38.13277344 83.14339844 38.26554687 84.28679687 38.40234375 85.46484375 C38.5805031 86.9557562 38.75890082 88.44664018 38.9375 89.9375 C39.02451172 90.69224609 39.11152344 91.44699219 39.20117188 92.22460938 C39.34324099 95.92187458 39.34324099 95.92187458 41 99 C47.19004273 132.50697046 45.12469886 167.41315344 44.5 201.3125 C44.45144103 204.01106093 44.40344862 206.70963184 44.35546875 209.40820312 C44.23893209 215.93883843 44.1203176 222.46943331 44 229 C42.35 229.33 40.7 229.66 39 230 C38.67 229.01 38.34 228.02 38 227 C37.01 227 36.02 227 35 227 C35 226.34 35 225.68 35 225 C33.9171875 224.62875 33.9171875 224.62875 32.8125 224.25 C29.68824657 222.86144292 27.48448088 221.34645417 25 219 C24.1875 216.75 24.1875 216.75 24 215 C23.34 215 22.68 215 22 215 C21.67 213.68 21.34 212.36 21 211 C20.34 211 19.68 211 19 211 C15 205.58823529 15 205.58823529 15 203 C14.34 203 13.68 203 13 203 C10.95830515 200.09451118 10 198.59857954 10 195 C9.34 195 8.68 195 8 195 C7.505 191.535 7.505 191.535 7 188 C6.34 188 5.68 188 5 188 C4.505 183.545 4.505 183.545 4 179 C3.34 179 2.68 179 2 179 C-0.59694415 159.1283718 0.48702852 139.89849106 2 120 C2.66 120 3.32 120 4 120 C3.98839844 119.38253906 3.97679687 118.76507813 3.96484375 118.12890625 C3.90300337 112.32474456 4.25721044 106.75661912 5 101 C5.66 101 6.32 101 7 101 C7.33 94.07 7.66 87.14 8 80 C8.66 80 9.32 80 10 80 C9.98839844 79.24074219 9.97679687 78.48148437 9.96484375 77.69921875 C9.95582031 76.70535156 9.94679688 75.71148437 9.9375 74.6875 C9.92589844 73.70136719 9.91429687 72.71523437 9.90234375 71.69921875 C10 69 10 69 11 66 C12.11599306 57.78849549 12.12893802 49.45987304 12.1875 41.1875 C12.20695679 39.72038574 12.20695679 39.72038574 12.22680664 38.22363281 C12.23419559 32.43660436 11.5876952 27.56004633 10 22 C9.875 19 9.875 19 10 17 C9.34 17 8.68 17 8 17 C7.505 13.535 7.505 13.535 7 10 C6.34 10 5.68 10 5 10 C4.505 7.03 4.505 7.03 4 4 C3.34 4 2.68 4 2 4 C1.01 2.02 1.01 2.02 0 0 Z M26 32 C27 35 27 35 27 35 Z M-56 324 C-55 326 -55 326 -55 326 Z M10 546 C10 547.98 10 549.96 10 552 C10.33 552 10.66 552 11 552 C11 550.02 11 548.04 11 546 C10.67 546 10.34 546 10 546 Z M11 552 C12 555 12 555 12 555 Z " fill="#FFFFFF" transform="translate(137,0)"/>
<path d="M0 0 C1.9375 0.625 1.9375 0.625 4 2 C4.75 5.125 4.75 5.125 5 8 C5.66 8 6.32 8 7 8 C7.33 10.31 7.66 12.62 8 15 C8.66 15 9.32 15 10 15 C10.81974263 17.03876949 11.6304807 19.08116075 12.4375 21.125 C13.11619141 22.83042969 13.11619141 22.83042969 13.80859375 24.5703125 C14.91039927 27.74206741 15.56095774 30.67942748 16 34 C16.66 34 17.32 34 18 34 C18.33 36.97 18.66 39.94 19 43 C19.66 43 20.32 43 21 43 C21.33 46.63 21.66 50.26 22 54 C22.66 54 23.32 54 24 54 C24.33 58.29 24.66 62.58 25 67 C25.66 67 26.32 67 27 67 C27.13277344 68.12019531 27.26554688 69.24039063 27.40234375 70.39453125 C27.58056569 71.86720729 27.75896011 73.33986247 27.9375 74.8125 C28.02451172 75.55048828 28.11152344 76.28847656 28.20117188 77.04882812 C28.58216546 80.16733121 29.00369374 83.01108122 30 86 C31.07315089 96.38704068 31.14915275 106.88002555 31.25 117.3125 C31.2713501 118.49908203 31.2927002 119.68566406 31.31469727 120.90820312 C31.31912842 122.02775391 31.32355957 123.14730469 31.328125 124.30078125 C31.34214355 125.80378784 31.34214355 125.80378784 31.35644531 127.3371582 C30.94889356 130.38179313 30.03094738 131.74350351 28 134 C26.02 133.67 24.04 133.34 22 133 C21.67 130.03 21.34 127.06 21 124 C20.01 123.67 19.02 123.34 18 123 C17.34 122.01 16.68 121.02 16 120 C10.49924395 120.79531559 10.49924395 120.79531559 6.375 124.125 C4.11775055 126.85745986 2.27958654 128.18860897 -0.625 130.125 C-4.5593416 133.0386093 -5.71487136 135.11777219 -6.5625 139.9375 C-6.74606512 141.62131337 -6.9051986 143.30886538 -7 145 C-6.01 145.33 -5.02 145.66 -4 146 C-1.8480563 149.22791555 -1.79913557 150.28400809 -2 154 C-2.66 154 -3.32 154 -4 154 C-4 154.66 -4 155.32 -4 156 C-6.375 155.8125 -6.375 155.8125 -9 155 C-10.3125 152.4375 -10.3125 152.4375 -11 150 C-12.65 150 -14.3 150 -16 150 C-16 149.34 -16 148.68 -16 148 C-16.66 148 -17.32 148 -18 148 C-18.98459071 145.6062703 -19.96278703 143.2102493 -20.9375 140.8125 C-21.21529297 140.13896484 -21.49308594 139.46542969 -21.77929688 138.77148438 C-23.23158375 135.18451076 -24.33401561 131.82941022 -25 128 C-25.99083967 125.76591887 -25.99083967 125.76591887 -27 124 C-27.99 124 -28.98 124 -30 124 C-30 123.34 -30 122.68 -30 122 C-30.66 122 -31.32 122 -32 122 C-32.33 120.35 -32.66 118.7 -33 117 C-33.66 117 -34.32 117 -35 117 C-35.39574219 116.51660156 -35.79148437 116.03320312 -36.19921875 115.53515625 C-38.90494553 113.22853885 -41.3144743 113.55298328 -44.8125 113.4375 C-49.61284799 113.26771277 -53.50045 112.7157549 -58 111 C-58 111.66 -58 112.32 -58 113 C-57.195625 113.144375 -56.39125 113.28875 -55.5625 113.4375 C-53 114 -53 114 -52 115 C-52.28730055 117.33944736 -52.61936779 119.6739143 -53 122 C-53.66 122 -54.32 122 -55 122 C-55.0825 122.61875 -55.165 123.2375 -55.25 123.875 C-56 126 -56 126 -58 127.125 C-58.66 127.41375 -59.32 127.7025 -60 128 C-60.33 128.66 -60.66 129.32 -61 130 C-63.5625 130.625 -63.5625 130.625 -66 131 C-66 131.66 -66 132.32 -66 133 C-69.64347032 135.82075121 -73.29483465 136.64786068 -77.70703125 137.52734375 C-80.86337078 138.17796911 -83.91250989 139.0803221 -87 140 C-87 140.66 -87 141.32 -87 142 C-85.41058594 141.76603516 -85.41058594 141.76603516 -83.7890625 141.52734375 C-82.40108813 141.33040144 -81.01306468 141.13380477 -79.625 140.9375 C-78.92632813 140.83373047 -78.22765625 140.72996094 -77.5078125 140.62304688 C-72.2265625 139.88671875 -72.2265625 139.88671875 -70 141 C-70 142.65 -70 144.3 -70 146 C-70.66 146 -71.32 146 -72 146 C-72.33 148.31 -72.66 150.62 -73 153 C-73.66 153 -74.32 153 -75 153 C-75.33 154.32 -75.66 155.64 -76 157 C-76.66 157 -77.32 157 -78 157 C-78.20625 157.556875 -78.4125 158.11375 -78.625 158.6875 C-80.18132054 161.30494819 -82.11109453 162.83343849 -84.48046875 164.70703125 C-86.65026361 166.55330914 -88.27673117 168.7419236 -90 171 C-91.625 172.8125 -91.625 172.8125 -93 174 C-93.66 174 -94.32 174 -95 174 C-95 179.61 -95 185.22 -95 191 C-94.34 191 -93.68 191 -93 191 C-93 194.63 -93 198.26 -93 202 C-93.66 202 -94.32 202 -95 202 C-95 202.99 -95 203.98 -95 205 C-97.40625 206.82421875 -97.40625 206.82421875 -100.5 208.6875 C-102.03140625 209.62142578 -102.03140625 209.62142578 -103.59375 210.57421875 C-104.3878125 211.04472656 -105.181875 211.51523437 -106 212 C-105.79375 213.2375 -105.5875 214.475 -105.375 215.75 C-104.93892876 219.11909835 -104.96596361 221.12841921 -107 224 C-107.99 224 -108.98 224 -110 224 C-110 225.98 -110 227.96 -110 230 C-110.66 230 -111.32 230 -112 230 C-112.08507812 230.58652344 -112.17015625 231.17304687 -112.2578125 231.77734375 C-113.21001522 234.62894031 -114.56348889 235.67010903 -116.875 237.5625 C-119.78100325 239.92244145 -119.78100325 239.92244145 -122.328125 242.640625 C-124.93596607 244.76101914 -127.58411632 244.78048796 -130.875 245.1875 C-132.08929687 245.34605469 -133.30359375 245.50460937 -134.5546875 245.66796875 C-142.36849926 246.4210005 -142.36849926 246.4210005 -146 244 C-146.51171875 241.8359375 -146.51171875 241.8359375 -146.6875 239.375 C-146.75324219 238.55773437 -146.81898438 237.74046875 -146.88671875 236.8984375 C-146.94279297 235.95871094 -146.94279297 235.95871094 -147 235 C-147.66 235 -148.32 235 -149 235 C-152.23034111 229.98740172 -153.89550995 225.3463204 -155.2890625 219.55078125 C-155.95638664 217.15648092 -156.87665328 215.20348779 -158 213 C-158 212.34 -158 211.68 -158 211 C-158.66 211 -159.32 211 -160 211 C-160.19658808 209.58456585 -160.38187546 208.16755969 -160.5625 206.75 C-160.71912109 205.56664062 -160.71912109 205.56664062 -160.87890625 204.359375 C-161.00027349 201.99467126 -160.69633257 200.2488963 -160 198 C-159.34 198 -158.68 198 -158 198 C-158 193.38 -158 188.76 -158 184 C-158.66 184 -159.32 184 -160 184 C-160.33 181.36 -160.66 178.72 -161 176 C-161.66 176 -162.32 176 -163 176 C-165.06671715 174.40669343 -165.89933562 173.44803901 -166.4765625 170.87890625 C-166.52554688 170.11449219 -166.57453125 169.35007812 -166.625 168.5625 C-166.90268244 164.20168261 -166.90268244 164.20168261 -168 160 C-169.97746603 159.26919734 -171.98072489 158.60578253 -174 158 C-175.6953125 156.44140625 -175.6953125 156.44140625 -177 155 C-177.52207031 155.2165625 -178.04414063 155.433125 -178.58203125 155.65625 C-184.16060967 157.76653536 -188.86169946 158.25576252 -194.8125 158.0078125 C-195.534375 158.00523437 -196.25625 158.00265625 -197 158 C-197.33 158.33 -197.66 158.66 -198 159 C-202.8790828 159.47464611 -205.37016456 158.59757461 -209.3125 155.75 C-210.17488281 155.14671875 -211.03726562 154.5434375 -211.92578125 153.921875 C-214.18682729 151.82689449 -214.37515315 150.89532996 -215 148 C-215.99 147.67 -216.98 147.34 -218 147 C-218 146.34 -218 145.68 -218 145 C-218.66 145 -219.32 145 -220 145 C-220.33 143.68 -220.66 142.36 -221 141 C-221.66 141 -222.32 141 -223 141 C-224.42861738 132.26956048 -223.65454448 123.77089601 -223 115 C-222.34 115 -221.68 115 -221 115 C-220.938125 114.2575 -220.87625 113.515 -220.8125 112.75 C-219.73716473 109.1104037 -218.03762847 108.20918434 -215 106 C-210.62061273 102.15468435 -208.3276651 98.24049741 -206 93 C-205.34 93 -204.68 93 -204 93 C-204 92.34 -204 91.68 -204 91 C-202.515 90.505 -202.515 90.505 -201 90 C-200.67 89.34 -200.34 88.68 -200 88 C-201.98 87.67 -203.96 87.34 -206 87 C-206.19871541 85.48059141 -206.38332696 83.95933682 -206.5625 82.4375 C-206.66691406 81.59058594 -206.77132813 80.74367188 -206.87890625 79.87109375 C-207 77 -207 77 -206 70 C-200.72 70 -195.44 70 -190 70 C-190.42362272 64.87528438 -190.42362272 64.87528438 -194.0625 62.875 C-195.031875 62.25625 -196.00125 61.6375 -197 61 C-197 60.01 -197 59.02 -197 58 C-197.66 58 -198.32 58 -199 58 C-198.67 56.35 -198.34 54.7 -198 53 C-198.495 53.165 -198.99 53.33 -199.5 53.5 C-203.03444089 54.20688818 -206.39690701 54.06005155 -210 54 C-209.67 51.03 -209.34 48.06 -209 45 C-206.36 44.67 -203.72 44.34 -201 44 C-201 43.34 -201 42.68 -201 42 C-201.66 42 -202.32 42 -203 42 C-203 40.35 -203 38.7 -203 37 C-197.25 36 -197.25 36 -195 36 C-195 35.34 -195 34.68 -195 34 C-192.03 33.505 -192.03 33.505 -189 33 C-188.33333333 35.66666667 -187.66666667 38.33333333 -187 41 C-187.66 41 -188.32 41 -189 41 C-189 41.66 -189 42.32 -189 43 C-188.278125 43.20625 -187.55625 43.4125 -186.8125 43.625 C-183.0744694 45.45248163 -181.50753083 47.70438806 -179 51 C-178.34 50.01 -177.68 49.02 -177 48 C-175.0546875 47.48828125 -175.0546875 47.48828125 -172.875 47.3125 C-170.956875 47.1578125 -170.956875 47.1578125 -169 47 C-169.04125 46.236875 -169.0825 45.47375 -169.125 44.6875 C-169 42 -169 42 -167 39 C-167.94875 39.061875 -168.8975 39.12375 -169.875 39.1875 C-170.90625 39.125625 -171.9375 39.06375 -173 39 C-175.67927341 34.98108988 -175.15601248 32.75838077 -175 28 C-173.35 27.67 -171.7 27.34 -170 27 C-170 26.34 -170 25.68 -170 25 C-163.375 22 -163.375 22 -160 22 C-160 21.34 -160 20.68 -160 20 C-159.505 19.525625 -159.01 19.05125 -158.5 18.5625 C-156.65373409 17.00030058 -156.65373409 17.00030058 -157 14 C-153.78548731 12.39274365 -150.56387464 12.94251815 -147 13 C-147 12.34 -147 11.68 -147 11 C-137.1189768 7.26963618 -127.37947233 7.70958989 -117 8 C-117 8.99 -117 9.98 -117 11 C-113.37 11 -109.74 11 -106 11 C-106 11.66 -106 12.32 -106 13 C-105.33613281 13.03738281 -104.67226563 13.07476562 -103.98828125 13.11328125 C-98.92963621 13.4899103 -95.15819181 13.81205295 -91 17 C-90.67 15.68 -90.34 14.36 -90 13 C-86.625 12.8125 -86.625 12.8125 -83 13 C-82.01 14.485 -82.01 14.485 -81 16 C-80.01 16 -79.02 16 -78 16 C-78 15.34 -78 14.68 -78 14 C-73.4161086 12.90684754 -68.87488993 12.67717375 -64.1875 12.4375 C-63.00510742 12.37272461 -63.00510742 12.37272461 -61.79882812 12.30664062 C-59.86605785 12.20121679 -57.93304974 12.10016906 -56 12 C-56.33 10.68 -56.66 9.36 -57 8 C-56.31550781 8.14308594 -55.63101563 8.28617187 -54.92578125 8.43359375 C-51.68946264 9.06011738 -48.44664081 9.56869079 -45.1875 10.0625 C-44.02605469 10.23910156 -42.86460937 10.41570312 -41.66796875 10.59765625 C-40.78753906 10.73042969 -39.90710938 10.86320312 -39 11 C-38.67 10.01 -38.34 9.02 -38 8 C-35.57687749 5.6221695 -32.96211992 3.65923259 -30 2 C-27 2.125 -27 2.125 -25 3 C-25 3.66 -25 4.32 -25 5 C-24.34 5 -23.68 5 -23 5 C-23 4.34 -23 3.68 -23 3 C-21.35 3 -19.7 3 -18 3 C-18 3.66 -18 4.32 -18 5 C-15.03 5 -12.06 5 -9 5 C-8.67 4.01 -8.34 3.02 -8 2 C-6.2984375 1.7834375 -6.2984375 1.7834375 -4.5625 1.5625 C-1.19222799 1.38828522 -1.19222799 1.38828522 0 0 Z M-90 17 C-89 19 -89 19 -89 19 Z M-107 21 C-106 23 -106 23 -106 23 Z M-144.6875 29.5 C-145.120625 29.995 -145.55375 30.49 -146 31 C-145.34 31.33 -144.68 31.66 -144 32 C-143.27840576 33.64363134 -142.60648579 35.31050386 -142 37 C-143.32 37 -144.64 37 -146 37 C-146.33 38.98 -146.66 40.96 -147 43 C-144.18490007 45.2773501 -144.18490007 45.2773501 -141 45 C-140.67 43.02 -140.34 41.04 -140 39 C-139.01 38.67 -138.02 38.34 -137 38 C-137.33 36.68 -137.66 35.36 -138 34 C-138.66 34 -139.32 34 -140 34 C-140 32.02 -140 30.04 -140 28 C-143.00259517 27.66781808 -143.00259517 27.66781808 -144.6875 29.5 Z M-163 37 C-162.34 37.66 -161.68 38.32 -161 39 C-161 38.34 -161 37.68 -161 37 C-161.66 37 -162.32 37 -163 37 Z M-149 43 C-149.33 43.66 -149.66 44.32 -150 45 C-149.01 45 -148.02 45 -147 45 C-147 44.34 -147 43.68 -147 43 C-147.66 43 -148.32 43 -149 43 Z M-172 71.8125 C-172.86625 71.96332031 -173.7325 72.11414063 -174.625 72.26953125 C-177.2544542 73.07826141 -178.16821002 74.0172955 -180 76 C-180.99 76.33 -181.98 76.66 -183 77 C-183.12375 78.134375 -183.2475 79.26875 -183.375 80.4375 C-183.58125 81.613125 -183.7875 82.78875 -184 84 C-184.99 84.495 -184.99 84.495 -186 85 C-181.72838208 84.91930249 -177.45821066 84.80644255 -173.1875 84.6875 C-171.97255859 84.66494141 -170.75761719 84.64238281 -169.50585938 84.61914062 C-168.34248047 84.58369141 -167.17910156 84.54824219 -165.98046875 84.51171875 C-164.37014771 84.47244263 -164.37014771 84.47244263 -162.72729492 84.43237305 C-159.66831866 83.94741674 -158.93271198 83.31230514 -157 81 C-154.8125 80.3125 -154.8125 80.3125 -153 80 C-152.505 80.99 -152.505 80.99 -152 82 C-152 81.01 -152 80.02 -152 79 C-152.99 79 -153.98 79 -155 79 C-155 78.34 -155 77.68 -155 77 C-157.475 76.505 -157.475 76.505 -160 76 C-160.33 75.01 -160.66 74.02 -161 73 C-164.99495482 70.33669679 -167.47537549 70.98433212 -172 71.8125 Z M-146 74 C-146 74.66 -146 75.32 -146 76 C-145.34 76 -144.68 76 -144 76 C-144 75.34 -144 74.68 -144 74 C-144.66 74 -145.32 74 -146 74 Z M-144 78 C-144.99 78.495 -144.99 78.495 -146 79 C-146.2165625 79.9590625 -146.2165625 79.9590625 -146.4375 80.9375 C-147 83 -147 83 -150 85 C-150 85.66 -150 86.32 -150 87 C-156.625 86.25 -156.625 86.25 -160 84 C-159.34 85.65 -158.68 87.3 -158 89 C-158.66 89 -159.32 89 -160 89 C-160 89.66 -160 90.32 -160 91 C-156.27034861 93.03435531 -154.33094958 94 -150 94 C-150 94.66 -150 95.32 -150 96 C-147.69 96.66 -145.38 97.32 -143 98 C-141.45833358 96.62514468 -141.45833358 96.62514468 -140 95 C-140 94.34 -140 93.68 -140 93 C-136.04 93.33 -132.08 93.66 -128 94 C-128 94.66 -128 95.32 -128 96 C-125.02077407 96.02683987 -122.04178705 96.04676037 -119.0625 96.0625 C-118.21236328 96.07087891 -117.36222656 96.07925781 -116.48632812 96.08789062 C-115.67744141 96.09111328 -114.86855469 96.09433594 -114.03515625 96.09765625 C-113.2862915 96.10289307 -112.53742676 96.10812988 -111.76586914 96.11352539 C-109.97332261 96.19341752 -109.97332261 96.19341752 -109 95 C-108.95936168 93.33382885 -108.957279 91.66611905 -109 90 C-108.34 90 -107.68 90 -107 90 C-107 89.01 -107 88.02 -107 87 C-113.44070471 86.89344422 -119.62641289 87.03794912 -126 88 C-126.495 86.515 -126.495 86.515 -127 85 C-127.33 85.66 -127.66 86.32 -128 87 C-131.3 87 -134.6 87 -138 87 C-138 86.34 -138 85.68 -138 85 C-138.66 85 -139.32 85 -140 85 C-140.33 83.68 -140.66 82.36 -141 81 C-141.66 81 -142.32 81 -143 81 C-143.33 80.01 -143.66 79.02 -144 78 Z M-194 87 C-194 87.33 -194 87.66 -194 88 C-192.35 88 -190.7 88 -189 88 C-189 87.67 -189 87.34 -189 87 C-190.65 87 -192.3 87 -194 87 Z M-76 102 C-75.67 103.65 -75.34 105.3 -75 107 C-73.02 107.495 -73.02 107.495 -71 108 C-72.30406884 105.98079663 -73.63823419 103.98075027 -75 102 C-75.33 102 -75.66 102 -76 102 Z M-109 106 C-108.67 106.99 -108.34 107.98 -108 109 C-108 108.01 -108 107.02 -108 106 C-108.33 106 -108.66 106 -109 106 Z M-70 108 C-69.67 109.32 -69.34 110.64 -69 112 C-67.35 111.67 -65.7 111.34 -64 111 C-64 110.67 -64 110.34 -64 110 C-65.65 110 -67.3 110 -69 110 C-69.33 109.34 -69.66 108.68 -70 108 Z M-107 109 C-106.67 110.65 -106.34 112.3 -106 114 C-105.34 114 -104.68 114 -104 114 C-103.814375 114.9590625 -103.814375 114.9590625 -103.625 115.9375 C-103.315625 116.9584375 -103.315625 116.9584375 -103 118 C-102.34 118.33 -101.68 118.66 -101 119 C-101 118.01 -101 117.02 -101 116 C-101.66 116 -102.32 116 -103 116 C-103.33 114.35 -103.66 112.7 -104 111 C-104.66 111 -105.32 111 -106 111 C-106.33 110.34 -106.66 109.68 -107 109 Z M-101 119 C-100.62422289 125.13769283 -98.9580593 128.26963644 -95 133 C-94.34 133 -93.68 133 -93 133 C-92.67 133.66 -92.34 134.32 -92 135 C-92.73890268 129.58138033 -93.68972166 125.59189862 -98 122 C-98.66 122 -99.32 122 -100 122 C-100.33 121.01 -100.66 120.02 -101 119 Z " fill="#FFFFFF" transform="translate(678,430)"/>
<path d="M0 0 C1.08200684 -0.00451172 2.16401367 -0.00902344 3.27880859 -0.01367188 C8.96870569 -0.00299831 14.43552575 0.27181257 20.0625 1.125 C20.0625 2.115 20.0625 3.105 20.0625 4.125 C17.4225 5.115 14.7825 6.105 12.0625 7.125 C12.72309921 7.05435333 13.38369843 6.98370667 14.0643158 6.91091919 C20.91837096 6.22625501 27.68114024 5.97806503 34.56640625 5.9921875 C35.61150864 5.99123077 36.65661102 5.99027405 37.73338318 5.98928833 C39.91901714 5.9886133 42.10465319 5.99041986 44.2902832 5.99462891 C47.64734306 6.00003599 51.00427209 5.99463607 54.36132812 5.98828125 C56.4921878 5.9889412 58.62304738 5.99022063 60.75390625 5.9921875 C62.2615731 5.98915115 62.2615731 5.98915115 63.79969788 5.98605347 C65.18770851 5.99078171 65.18770851 5.99078171 66.60375977 5.99560547 C67.41885513 5.99640106 68.2339505 5.99719666 69.07374573 5.99801636 C71.0625 6.125 71.0625 6.125 73.0625 7.125 C80.87119157 8.20259944 88.66111861 8.40983004 96.53515625 8.5546875 C102.86805685 8.75707048 108.182705 9.74115053 114.0625 12.125 C113.0625 15.125 113.0625 15.125 111.0625 16.125 C112.3825 16.455 113.7025 16.785 115.0625 17.125 C115.0625 18.115 115.0625 19.105 115.0625 20.125 C117.3725 19.795 119.6825 19.465 122.0625 19.125 C122.0625 18.795 122.0625 18.465 122.0625 18.125 C125.6925 18.125 129.3225 18.125 133.0625 18.125 C133.0625 19.775 133.0625 21.425 133.0625 23.125 C132.37542969 23.39054687 131.68835938 23.65609375 130.98046875 23.9296875 C130.07941406 24.28289062 129.17835938 24.63609375 128.25 25 C127.35667969 25.34804688 126.46335937 25.69609375 125.54296875 26.0546875 C122.88538409 27.11332155 122.88538409 27.11332155 120.0625 29.125 C121.0525 29.125 122.0425 29.125 123.0625 29.125 C123.3925 30.445 123.7225 31.765 124.0625 33.125 C123.0725 33.62 123.0725 33.62 122.0625 34.125 C121.77375 34.929375 121.485 35.73375 121.1875 36.5625 C120.0625 39.125 120.0625 39.125 117.9375 40.4375 C117.009375 40.7778125 117.009375 40.7778125 116.0625 41.125 C116.0625 43.105 116.0625 45.085 116.0625 47.125 C112.92751708 48.98276765 110.68778568 49.32640476 107.0625 49.125 C107.0625 49.785 107.0625 50.445 107.0625 51.125 C102.1125 51.455 97.1625 51.785 92.0625 52.125 C92.0625 52.785 92.0625 53.445 92.0625 54.125 C89.5875 54.62 89.5875 54.62 87.0625 55.125 C87.0625 55.785 87.0625 56.445 87.0625 57.125 C86.38703125 57.21136719 85.7115625 57.29773438 85.015625 57.38671875 C79.22472802 58.24899584 79.22472802 58.24899584 74.5 61.5 C73.22985169 63.81940127 72.6535226 65.592046 72.0625 68.125 C70.47683918 70.12793998 69.58253034 71.0222033 67.046875 71.5234375 C61.63650165 71.46668533 57.88966543 70.58993554 53.0625 68.125 C53.0625 67.465 53.0625 66.805 53.0625 66.125 C52.0725 66.125 51.0825 66.125 50.0625 66.125 C46.0625 59.375 46.0625 59.375 46.0625 57.125 C45.4025 57.125 44.7425 57.125 44.0625 57.125 C43.7325 55.145 43.4025 53.165 43.0625 51.125 C42.4025 51.125 41.7425 51.125 41.0625 51.125 C41.0625 50.465 41.0625 49.805 41.0625 49.125 C40.4025 49.125 39.7425 49.125 39.0625 49.125 C38.7325 47.145 38.4025 45.165 38.0625 43.125 C37.4025 43.125 36.7425 43.125 36.0625 43.125 C35.7325 41.475 35.4025 39.825 35.0625 38.125 C33.4125 37.795 31.7625 37.465 30.0625 37.125 C30.0625 36.465 30.0625 35.805 30.0625 35.125 C29.4327124 35.11041748 28.8029248 35.09583496 28.15405273 35.08081055 C25.26878679 35.00581006 22.38461277 34.90932361 19.5 34.8125 C18.50935547 34.78994141 17.51871094 34.76738281 16.49804688 34.74414062 C10.62961513 34.52967966 6.28252073 33.85581029 1.0625 31.125 C1.0625 30.465 1.0625 29.805 1.0625 29.125 C-1.5775 28.795 -4.2175 28.465 -6.9375 28.125 C-6.9375 27.465 -6.9375 26.805 -6.9375 26.125 C-8.9175 26.125 -10.8975 26.125 -12.9375 26.125 C-12.9375 23.815 -12.9375 21.505 -12.9375 19.125 C-13.80375 20.5790625 -13.80375 20.5790625 -14.6875 22.0625 C-16.9375 25.125 -16.9375 25.125 -19.1875 26 C-19.765 26.04125 -20.3425 26.0825 -20.9375 26.125 C-20.9375 28.105 -20.9375 30.085 -20.9375 32.125 C-18.6275 32.125 -16.3175 32.125 -13.9375 32.125 C-13.4425 34.6 -13.4425 34.6 -12.9375 37.125 C-10.2975 37.455 -7.6575 37.785 -4.9375 38.125 C-4.9375 38.785 -4.9375 39.445 -4.9375 40.125 C-3.74253906 40.10179687 -2.54757812 40.07859375 -1.31640625 40.0546875 C11.43901253 39.87773371 21.03081338 40.10123504 31.5625 48 C33.0625 50.125 33.0625 50.125 32.8125 53.375 C32.44125 54.73625 32.44125 54.73625 32.0625 56.125 C31.4025 56.125 30.7425 56.125 30.0625 56.125 C29.98 56.74375 29.8975 57.3625 29.8125 58 C29.0625 60.125 29.0625 60.125 27.25 61.3125 C25.0625 62.125 25.0625 62.125 23.0625 62.5 C20.31831405 63.35755811 18.9605182 65.02362271 17.0625 67.125 C17.784375 67.186875 18.50625 67.24875 19.25 67.3125 C22.96916917 68.38692665 24.61027495 70.18232994 27.0625 73.125 C27.0625 74.115 27.0625 75.105 27.0625 76.125 C29.3725 76.785 31.6825 77.445 34.0625 78.125 C34.0625 78.785 34.0625 79.445 34.0625 80.125 C34.660625 80.186875 35.25875 80.24875 35.875 80.3125 C38.0625 81.125 38.0625 81.125 39.875 83.375 C41.23463761 86.52363447 41.0736514 87.90770009 40.0625 91.125 C40.660625 91.228125 41.25875 91.33125 41.875 91.4375 C44.45007109 92.24680806 45.54401913 92.88723872 47.0625 95.125 C46.7325 96.775 46.4025 98.425 46.0625 100.125 C39.1325 99.63 39.1325 99.63 32.0625 99.125 C32.0625 100.115 32.0625 101.105 32.0625 102.125 C31.38703125 102.39054687 30.7115625 102.65609375 30.015625 102.9296875 C29.12359375 103.28289062 28.2315625 103.63609375 27.3125 104 C26.43078125 104.34804688 25.5490625 104.69609375 24.640625 105.0546875 C22.09502336 106.06406094 22.09502336 106.06406094 19.890625 107.27734375 C17.31367953 108.47220949 15.75346285 107.86501478 13.0625 107.125 C11.9178125 106.8465625 11.9178125 106.8465625 10.75 106.5625 C9.9146875 106.3459375 9.9146875 106.3459375 9.0625 106.125 C9.0625 107.775 9.0625 109.425 9.0625 111.125 C8.43601562 111.36734375 7.80953125 111.6096875 7.1640625 111.859375 C5.93816406 112.36210937 5.93816406 112.36210937 4.6875 112.875 C3.46933594 113.36226562 3.46933594 113.36226562 2.2265625 113.859375 C-0.27065139 115.31983944 -0.91994259 116.46369601 -1.9375 119.125 C-2.5975 119.125 -3.2575 119.125 -3.9375 119.125 C-4.2675 121.435 -4.5975 123.745 -4.9375 126.125 C-5.9275 126.125 -6.9175 126.125 -7.9375 126.125 C-7.9375 126.785 -7.9375 127.445 -7.9375 128.125 C-11.4025 130.105 -11.4025 130.105 -14.9375 132.125 C-14.7725 133.094375 -14.6075 134.06375 -14.4375 135.0625 C-13.80353727 139.41987763 -13.8478328 143.73130704 -13.9375 148.125 C-15.5875 148.125 -17.2375 148.125 -18.9375 148.125 C-18.9375 147.465 -18.9375 146.805 -18.9375 146.125 C-19.5975 146.125 -20.2575 146.125 -20.9375 146.125 C-21.4325 143.65 -21.4325 143.65 -21.9375 141.125 C-22.5975 141.125 -23.2575 141.125 -23.9375 141.125 C-23.9375 139.805 -23.9375 138.485 -23.9375 137.125 C-27.5675 137.125 -31.1975 137.125 -34.9375 137.125 C-34.9375 137.785 -34.9375 138.445 -34.9375 139.125 C-39.8875 139.455 -44.8375 139.785 -49.9375 140.125 C-50.2675 141.775 -50.5975 143.425 -50.9375 145.125 C-51.2675 145.455 -51.5975 145.785 -51.9375 146.125 C-52.27517276 151.95082394 -52.27517276 151.95082394 -49.9375 157.125 C-49.2775 157.455 -48.6175 157.785 -47.9375 158.125 C-47.9375 158.785 -47.9375 159.445 -47.9375 160.125 C-45.6275 159.795 -43.3175 159.465 -40.9375 159.125 C-40.9375 158.465 -40.9375 157.805 -40.9375 157.125 C-39.76171875 155.51171875 -39.76171875 155.51171875 -37.9375 154.125 C-35.45703125 153.83203125 -35.45703125 153.83203125 -32.75 153.9375 C-31.84894531 153.96457031 -30.94789063 153.99164062 -30.01953125 154.01953125 C-29.33246094 154.05433594 -28.64539063 154.08914063 -27.9375 154.125 C-27.9375 155.445 -27.9375 156.765 -27.9375 158.125 C-28.5975 158.125 -29.2575 158.125 -29.9375 158.125 C-30.2675 160.435 -30.5975 162.745 -30.9375 165.125 C-27.9675 165.455 -24.9975 165.785 -21.9375 166.125 C-21.4425 172.56 -21.4425 172.56 -20.9375 179.125 C-19.16375 179.269375 -17.39 179.41375 -15.5625 179.5625 C-10.1875 180 -10.1875 180 -7.9375 181.125 C-7.6075 180.465 -7.2775 179.805 -6.9375 179.125 C-6.2775 179.125 -5.6175 179.125 -4.9375 179.125 C-4.6075 178.135 -4.2775 177.145 -3.9375 176.125 C-2.9475 176.125 -1.9575 176.125 -0.9375 176.125 C-0.9375 175.465 -0.9375 174.805 -0.9375 174.125 C3.8243912 173.89271262 7.51094571 174.79092374 12.0625 176.125 C14.7230041 176.54133843 17.38521235 176.82272559 20.0625 177.125 C25.96937378 178.06472992 28.86521381 179.92771381 33.0625 184.125 C35.19559192 185.36012079 35.19559192 185.36012079 37.0625 186.125 C37.0625 186.785 37.0625 187.445 37.0625 188.125 C38.114375 188.063125 39.16625 188.00125 40.25 187.9375 C44.29801371 188.13658264 45.8762673 188.73532547 49.0625 191.125 C49.64 191.5375 50.2175 191.95 50.8125 192.375 C52.74176042 195.07596459 52.75672213 197.88375455 53.0625 201.125 C56.0325 201.785 59.0025 202.445 62.0625 203.125 C62.0625 203.785 62.0625 204.445 62.0625 205.125 C63.29226563 205.18107422 63.29226563 205.18107422 64.546875 205.23828125 C66.16335938 205.33689453 66.16335938 205.33689453 67.8125 205.4375 C68.87984375 205.49550781 69.9471875 205.55351563 71.046875 205.61328125 C74.26218194 206.15888385 75.75379094 206.85551658 78.0625 209.125 C78.0625 209.785 78.0625 210.445 78.0625 211.125 C79.2071875 211.310625 79.2071875 211.310625 80.375 211.5 C83.0625 212.125 83.0625 212.125 86.0625 214.125 C86.99240255 217.68962646 87.47608829 220.6552833 86.0625 224.125 C85.4025 224.455 84.7425 224.785 84.0625 225.125 C83.7325 226.115 83.4025 227.105 83.0625 228.125 C82.39347656 228.58519531 81.72445312 229.04539062 81.03515625 229.51953125 C78.86552313 230.94917104 78.86552313 230.94917104 78.55859375 233.32421875 C78.53925781 234.14535156 78.51992188 234.96648437 78.5 235.8125 C78.20723759 240.79678005 77.01376061 244.54377945 75.0625 249.125 C74.4025 249.125 73.7425 249.125 73.0625 249.125 C72.98 249.90875 72.8975 250.6925 72.8125 251.5 C72.0625 254.125 72.0625 254.125 70.3125 255.25 C67.91463607 256.18250264 65.87022479 256.5243184 63.3125 256.75 C62.11367188 256.86214844 62.11367188 256.86214844 60.890625 256.9765625 C60.28734375 257.02554687 59.6840625 257.07453125 59.0625 257.125 C59.0625 257.785 59.0625 258.445 59.0625 259.125 C58.0725 259.125 57.0825 259.125 56.0625 259.125 C56.02511719 259.73988281 55.98773438 260.35476563 55.94921875 260.98828125 C55.85060547 262.20064453 55.85060547 262.20064453 55.75 263.4375 C55.66298828 264.63826172 55.66298828 264.63826172 55.57421875 265.86328125 C54.97411175 268.51566259 54.20541033 269.49003879 52.0625 271.125 C51.4025 271.125 50.7425 271.125 50.0625 271.125 C50.000625 271.8675 49.93875 272.61 49.875 273.375 C48.52824048 277.93326298 44.87096788 279.58602141 41.0625 282.125 C40.0725 282.125 39.0825 282.125 38.0625 282.125 C37.9078125 283.2696875 37.9078125 283.2696875 37.75 284.4375 C36.98238882 287.4381619 36.62238914 288.41840724 34.0625 290.125 C30.375 290.8125 30.375 290.8125 27.0625 291.125 C26.794375 291.90875 26.52625 292.6925 26.25 293.5 C25.0625 296.125 25.0625 296.125 22.0625 298.125 C20.70422029 299.77139965 19.36995749 301.43795807 18.0625 303.125 C17.4025 303.785 16.7425 304.445 16.0625 305.125 C16.7225 305.455 17.3825 305.785 18.0625 306.125 C17.64941466 309.01659735 17.17759101 310.0168842 15 312.0625 C12.79009614 313.99073518 12.79009614 313.99073518 12.8125 316.875 C12.895 317.6175 12.9775 318.36 13.0625 319.125 C15.7025 320.115 18.3425 321.105 21.0625 322.125 C21.0625 323.775 21.0625 325.425 21.0625 327.125 C18.1293642 328.10271193 16.18071006 328.25919011 13.125 328.25 C11.84302734 328.25386719 11.84302734 328.25386719 10.53515625 328.2578125 C8.23569148 328.13430254 6.26609652 327.76920687 4.0625 327.125 C4.0625 326.465 4.0625 325.805 4.0625 325.125 C3.340625 325.063125 2.61875 325.00125 1.875 324.9375 C-1.7964027 323.87687255 -3.41452938 321.92830069 -5.9375 319.125 C-6.2675 318.795 -6.5975 318.465 -6.9375 318.125 C-7.01021741 315.77186445 -7.02120868 313.41666332 -7 311.0625 C-6.99097656 309.77214844 -6.98195313 308.48179687 -6.97265625 307.15234375 C-6.96105469 306.15332031 -6.94945312 305.15429688 -6.9375 304.125 C-6.2775 304.125 -5.6175 304.125 -4.9375 304.125 C-4.6075 300.495 -4.2775 296.865 -3.9375 293.125 C-3.2775 293.125 -2.6175 293.125 -1.9375 293.125 C-1.94910156 292.44953125 -1.96070313 291.7740625 -1.97265625 291.078125 C-1.98167969 290.18609375 -1.99070312 289.2940625 -2 288.375 C-2.01160156 287.49328125 -2.02320313 286.6115625 -2.03515625 285.703125 C-1.94576198 283.3431162 -1.60662821 281.38001476 -0.9375 279.125 C-0.2775 279.125 0.3825 279.125 1.0625 279.125 C1.3925 272.855 1.7225 266.585 2.0625 260.125 C2.3925 260.125 2.7225 260.125 3.0625 260.125 C3.3925 254.515 3.7225 248.905 4.0625 243.125 C2.4125 242.795 0.7625 242.465 -0.9375 242.125 C-6.36560338 237.67117158 -11.12802469 231.42072091 -12.8125 224.5625 C-12.85375 223.758125 -12.895 222.95375 -12.9375 222.125 C-13.5975 222.125 -14.2575 222.125 -14.9375 222.125 C-15.040625 221.485625 -15.14375 220.84625 -15.25 220.1875 C-15.476875 219.506875 -15.70375 218.82625 -15.9375 218.125 C-16.9275 217.795 -17.9175 217.465 -18.9375 217.125 C-18.99173638 215.20864783 -19.03039963 213.29185075 -19.0625 211.375 C-19.08570313 210.30765625 -19.10890625 209.2403125 -19.1328125 208.140625 C-18.85402295 203.83611427 -17.30115645 201.67048467 -14.9375 198.125 C-14.2775 198.125 -13.6175 198.125 -12.9375 198.125 C-11.8562609 192.06449386 -11.8562609 192.06449386 -12.9375 186.125 C-13.2675 186.785 -13.5975 187.445 -13.9375 188.125 C-17.49530196 187.51509109 -20.6203589 186.5466319 -23.9375 185.125 C-23.9375 184.465 -23.9375 183.805 -23.9375 183.125 C-24.700625 183.08375 -25.46375 183.0425 -26.25 183 C-27.136875 182.71125 -28.02375 182.4225 -28.9375 182.125 C-29.288125 181.2175 -29.63875 180.31 -30 179.375 C-33.12076729 174.14016454 -38.41400329 173.17128872 -43.9375 171.125 C-44.57816406 170.74859375 -45.21882813 170.3721875 -45.87890625 169.984375 C-48.0665273 168.90528493 -48.0665273 168.90528493 -51.19140625 169.21875 C-55.8273484 169.10273059 -58.80521988 167.69383817 -62.875 165.625 C-63.90077148 165.12419922 -63.90077148 165.12419922 -64.94726562 164.61328125 C-66.61671227 163.79606961 -68.27799985 162.9622253 -69.9375 162.125 C-69.9375 161.465 -69.9375 160.805 -69.9375 160.125 C-70.9275 159.795 -71.9175 159.465 -72.9375 159.125 C-75.23383824 155.68049263 -75.47766485 153.18687717 -75.9375 149.125 C-76.5975 149.125 -77.2575 149.125 -77.9375 149.125 C-79.5625 147.625 -79.5625 147.625 -80.9375 146.125 C-80.9375 146.785 -80.9375 147.445 -80.9375 148.125 C-80.2775 148.125 -79.6175 148.125 -78.9375 148.125 C-78.9375 149.445 -78.9375 150.765 -78.9375 152.125 C-81.1875 152.4375 -81.1875 152.4375 -83.9375 152.125 C-85.30389342 150.4853279 -86.6324419 148.81389872 -87.9375 147.125 C-89.1447914 146.4587244 -90.37627373 145.83494306 -91.625 145.25 C-94.9375 143.125 -94.9375 143.125 -95.75 139.4375 C-95.811875 138.344375 -95.87375 137.25125 -95.9375 136.125 C-96.5975 135.795 -97.2575 135.465 -97.9375 135.125 C-98.5625 132.0625 -98.5625 132.0625 -98.9375 129.125 C-100.5875 128.795 -102.2375 128.465 -103.9375 128.125 C-103.9375 127.465 -103.9375 126.805 -103.9375 126.125 C-104.55625 125.8775 -105.175 125.63 -105.8125 125.375 C-108.28818687 123.91871361 -108.88875002 122.74687494 -109.9375 120.125 C-110.5975 120.125 -111.2575 120.125 -111.9375 120.125 C-112.2675 117.815 -112.5975 115.505 -112.9375 113.125 C-113.5975 113.125 -114.2575 113.125 -114.9375 113.125 C-114.94007813 111.94421875 -114.94265625 110.7634375 -114.9453125 109.546875 C-114.98283851 107.98954555 -115.02198606 106.43225458 -115.0625 104.875 C-115.05992187 104.09769531 -115.05734375 103.32039063 -115.0546875 102.51953125 C-115.13253853 100.24238875 -115.2743614 98.30722753 -115.9375 96.125 C-118.76612001 93.69717997 -118.76612001 93.69717997 -121.9375 92.125 C-123.9375 89.125 -123.9375 89.125 -123.9375 86.125 C-124.5975 86.125 -125.2575 86.125 -125.9375 86.125 C-127.05612671 82.76911987 -126.85983352 82.22894986 -125.6875 79.0625 C-123.92740071 74.13097758 -122.41585845 69.14722481 -120.9375 64.125 C-120.2775 64.125 -119.6175 64.125 -118.9375 64.125 C-118.6075 61.815 -118.2775 59.505 -117.9375 57.125 C-117.2775 57.125 -116.6175 57.125 -115.9375 57.125 C-115.6075 54.485 -115.2775 51.845 -114.9375 49.125 C-114.2775 49.125 -113.6175 49.125 -112.9375 49.125 C-112.9375 48.135 -112.9375 47.145 -112.9375 46.125 C-112.2775 46.125 -111.6175 46.125 -110.9375 46.125 C-111.185 45.568125 -111.4325 45.01125 -111.6875 44.4375 C-111.9375 42.125 -111.9375 42.125 -110.25 39.9375 C-109.486875 39.009375 -108.72375 38.08125 -107.9375 37.125 C-106.46561118 34.18122236 -105.18467865 31.16997341 -103.9375 28.125 C-103.2775 28.125 -102.6175 28.125 -101.9375 28.125 C-101.6075 26.475 -101.2775 24.825 -100.9375 23.125 C-100.2775 23.125 -99.6175 23.125 -98.9375 23.125 C-98.81375 22.320625 -98.69 21.51625 -98.5625 20.6875 C-98.35625 19.841875 -98.15 18.99625 -97.9375 18.125 C-95.09666359 16.70458179 -93.08272722 16.81047728 -89.9375 17.125 C-87.5625 19.125 -87.5625 19.125 -85.9375 21.125 C-83.9212767 20.40936734 -83.9212767 20.40936734 -81.9375 19.125 C-81.80988281 18.50496094 -81.68226563 17.88492187 -81.55078125 17.24609375 C-80.73255938 14.41619263 -79.4354219 13.6280982 -77.0625 11.9375 C-76.36382812 11.42832031 -75.66515625 10.91914063 -74.9453125 10.39453125 C-71.72944521 8.36115213 -69.84809046 8.1278384 -66 8.25 C-62.21021259 8.30502414 -60.8947552 7.52776985 -57.9375 5.125 C-51.07028821 2.87754887 -44.11973755 2.54104425 -36.9375 2.125 C-36.9375 1.795 -36.9375 1.465 -36.9375 1.125 C-24.62563356 0.459685 -12.33108553 0.02117833 0 0 Z M-3.9375 10.5 C-4.63875 10.75523437 -5.34 11.01046875 -6.0625 11.2734375 C-8.12401934 12.07724107 -8.12401934 12.07724107 -9.9375 14.125 C-9.9375 15.115 -9.9375 16.105 -9.9375 17.125 C-8.9475 17.125 -7.9575 17.125 -6.9375 17.125 C-6.9375 16.465 -6.9375 15.805 -6.9375 15.125 C-1.4925 14.135 -1.4925 14.135 4.0625 13.125 C3.4025 11.805 2.7425 10.485 2.0625 9.125 C-0.24568532 9.125 -1.77682024 9.69768876 -3.9375 10.5 Z M-106.9375 45.125 C-106.9375 45.455 -106.9375 45.785 -106.9375 46.125 C-104.2975 46.125 -101.6575 46.125 -98.9375 46.125 C-98.9375 45.795 -98.9375 45.465 -98.9375 45.125 C-101.5775 45.125 -104.2175 45.125 -106.9375 45.125 Z M-3.9375 60.125 C-4.2675 61.115 -4.5975 62.105 -4.9375 63.125 C-2.9575 62.795 -0.9775 62.465 1.0625 62.125 C0.4025 61.465 -0.2575 60.805 -0.9375 60.125 C-1.9275 60.125 -2.9175 60.125 -3.9375 60.125 Z M-13.9375 58.125 C-14.2675 59.775 -14.5975 61.425 -14.9375 63.125 C-15.865625 62.939375 -16.79375 62.75375 -17.75 62.5625 C-22.84570694 61.80758045 -27.85397238 62.52747867 -32.9375 63.125 C-33.2675 62.465 -33.5975 61.805 -33.9375 61.125 C-36.9094385 62.24951727 -39.27190687 63.34793791 -41.9375 65.125 C-42.9275 65.785 -43.9175 66.445 -44.9375 67.125 C-44.9375 68.445 -44.9375 69.765 -44.9375 71.125 C-43.9475 71.125 -42.9575 71.125 -41.9375 71.125 C-41.6075 72.115 -41.2775 73.105 -40.9375 74.125 C-37.44720582 75.60166292 -33.66313614 75.19664685 -29.9375 75.125 C-29.9375 75.785 -29.9375 76.445 -29.9375 77.125 C-29.32261719 77.19976562 -28.70773437 77.27453125 -28.07421875 77.3515625 C-25.56395498 77.75993077 -23.31453407 78.2123887 -20.9375 79.125 C-19.125 82.1875 -19.125 82.1875 -17.9375 85.125 C-15.86059422 86.08544102 -15.86059422 86.08544102 -13.9375 86.125 C-14.2675 84.145 -14.5975 82.165 -14.9375 80.125 C-13.2875 79.465 -11.6375 78.805 -9.9375 78.125 C-10.43506092 75.36858584 -10.43506092 75.36858584 -11.9375 73.125 C-12.00955511 71.43891034 -12.02136068 69.74999341 -12 68.0625 C-11.99097656 67.14339844 -11.98195313 66.22429687 -11.97265625 65.27734375 C-11.96105469 64.56707031 -11.94945312 63.85679687 -11.9375 63.125 C-9.9575 62.795 -7.9775 62.465 -5.9375 62.125 C-6.515 61.83625 -7.0925 61.5475 -7.6875 61.25 C-9.77083333 60.20833333 -11.85416667 59.16666667 -13.9375 58.125 Z M10.0625 66.125 C10.0625 67.445 10.0625 68.765 10.0625 70.125 C11.0525 70.455 12.0425 70.785 13.0625 71.125 C13.0625 70.465 13.0625 69.805 13.0625 69.125 C14.0525 68.795 15.0425 68.465 16.0625 68.125 C13.24740007 65.8476499 13.24740007 65.8476499 10.0625 66.125 Z M23.875 91.625 C22.52341797 91.76421875 22.52341797 91.76421875 21.14453125 91.90625 C20.45746094 91.9784375 19.77039063 92.050625 19.0625 92.125 C20.0525 92.62 20.0525 92.62 21.0625 93.125 C21.0625 94.445 21.0625 95.765 21.0625 97.125 C23.7025 97.125 26.3425 97.125 29.0625 97.125 C29.18625 96.320625 29.31 95.51625 29.4375 94.6875 C29.64375 93.841875 29.85 92.99625 30.0625 92.125 C30.7225 91.795 31.3825 91.465 32.0625 91.125 C29.28253893 91.125 26.63757433 91.33797929 23.875 91.625 Z M-81.9375 144.125 C-80.9375 146.125 -80.9375 146.125 -80.9375 146.125 Z " fill="#FFFFFF" transform="translate(330.9375,394.875)"/>
<path d="M0 0 C7.59 0 15.18 0 23 0 C23 0.33 23 0.66 23 1 C31.91 1.66 40.82 2.32 50 3 C50 3.66 50 4.32 50 5 C51.175625 4.979375 52.35125 4.95875 53.5625 4.9375 C59.78810536 4.95938262 65.05005187 5.92956401 70.80078125 8.234375 C74.75989602 9.61268139 78.87825494 10.28207309 83 11 C83 11.66 83 12.32 83 13 C84.134375 13.103125 85.26875 13.20625 86.4375 13.3125 C91.19397351 13.89110501 95.51898346 15.35073697 100 17 C100 17.66 100 18.32 100 19 C101.98 19.33 103.96 19.66 106 20 C106 20.66 106 21.32 106 22 C108.64 22.33 111.28 22.66 114 23 C114 23.66 114 24.32 114 25 C114.99 25 115.98 25 117 25 C117 25.66 117 26.32 117 27 C118.98 27.33 120.96 27.66 123 28 C123 28.66 123 29.32 123 30 C123.71542969 30.10441406 124.43085937 30.20882813 125.16796875 30.31640625 C128.31163677 31.07522267 130.55215773 32.26493706 133.3125 33.9375 C134.19550781 34.46214844 135.07851563 34.98679687 135.98828125 35.52734375 C136.65214844 36.01332031 137.31601562 36.49929688 138 37 C138 37.66 138 38.32 138 39 C138.70125 39.0825 139.4025 39.165 140.125 39.25 C143.65698979 40.17138864 146.01928357 41.92645814 149 44 C149.99 44.33 150.98 44.66 152 45 C152 45.66 152 46.32 152 47 C153.65 47.33 155.3 47.66 157 48 C157 48.66 157 49.32 157 50 C158.32 50.33 159.64 50.66 161 51 C161 51.66 161 52.32 161 53 C162.65 53.33 164.3 53.66 166 54 C166 54.66 166 55.32 166 56 C167.65 56.33 169.3 56.66 171 57 C171 57.66 171 58.32 171 59 C171.54527344 59.25910156 172.09054687 59.51820313 172.65234375 59.78515625 C175.38711197 61.20031917 177.96032633 62.79122686 180.5625 64.4375 C181.98755859 65.33275391 181.98755859 65.33275391 183.44140625 66.24609375 C185.58996145 67.71892014 187.21144558 69.13886656 189 71 C189.99 71.66 190.98 72.32 192 73 C192 73.66 192 74.32 192 75 C192.99 75.33 193.98 75.66 195 76 C195 76.66 195 77.32 195 78 C195.721875 78.20625 196.44375 78.4125 197.1875 78.625 C200.9255306 80.45248163 202.49246917 82.70438806 205 86 C204.67 86.66 204.34 87.32 204 88 C195.81818182 87.18181818 195.81818182 87.18181818 192 85 C190.6757713 84.63215869 189.34386088 84.28797019 188 84 C188 83.34 188 82.68 188 82 C186.35 82 184.7 82 183 82 C183 81.34 183 80.68 183 80 C181.74509766 79.92652344 181.74509766 79.92652344 180.46484375 79.8515625 C179.30082031 79.77679688 178.13679687 79.70203125 176.9375 79.625 C175.24947266 79.52058594 175.24947266 79.52058594 173.52734375 79.4140625 C169.74731282 79.12450089 166.03278441 78.55871151 162.28417969 77.99780273 C153.82726396 76.81871401 145.45213227 76.66909417 136.92578125 76.62109375 C135.34253467 76.60486463 133.75929764 76.58767929 132.17607117 76.56959534 C128.05966612 76.52446606 123.94324727 76.48936072 119.82672119 76.45739746 C113.20188768 76.40496875 106.57719306 76.34023355 99.95253563 76.26918221 C97.65036184 76.24645974 95.34820589 76.23013348 93.04597473 76.21446228 C91.6391275 76.20105873 90.23228226 76.1874442 88.82543945 76.17358398 C86.98801933 76.15931618 86.98801933 76.15931618 85.11347961 76.14476013 C82.51534481 76.02396077 80.47807067 75.68489607 78 75 C76.5970794 74.86492114 75.19012713 74.76806144 73.78222656 74.70288086 C72.96167786 74.66291489 72.14112915 74.62294891 71.29571533 74.58177185 C69.98144562 74.52389244 69.98144562 74.52389244 68.640625 74.46484375 C67.73624695 74.42186661 66.8318689 74.37888947 65.90008545 74.33460999 C63.01688588 74.1984646 60.13346405 74.06791154 57.25 73.9375 C55.29295149 73.84607182 53.33591997 73.75427925 51.37890625 73.66210938 C46.58612422 73.43718045 41.79313527 73.21726603 37 73 C37 72.34 37 71.68 37 71 C36.40574219 71.01160156 35.81148438 71.02320313 35.19921875 71.03515625 C26.56543974 71.12914762 18.16689066 71.03884304 10 68 C8.00630969 67.63079809 6.00720923 67.28674418 4 67 C4 66.34 4 65.68 4 65 C3.195625 64.896875 2.39125 64.79375 1.5625 64.6875 C-2.7882969 63.84787253 -6.82453598 62.45880739 -11 61 C-12.7634375 60.4121875 -12.7634375 60.4121875 -14.5625 59.8125 C-15.366875 59.544375 -16.17125 59.27625 -17 59 C-17 58.34 -17 57.68 -17 57 C-19.31 56.67 -21.62 56.34 -24 56 C-24 55.34 -24 54.68 -24 54 C-26.97 53.505 -26.97 53.505 -30 53 C-30 52.34 -30 51.68 -30 51 C-30.99 51 -31.98 51 -33 51 C-33.33 50.34 -33.66 49.68 -34 49 C-35.88013106 47.87775145 -35.88013106 47.87775145 -38.0625 46.875 C-38.79597656 46.52179688 -39.52945312 46.16859375 -40.28515625 45.8046875 C-40.85105469 45.53914063 -41.41695313 45.27359375 -42 45 C-42 44.34 -42 43.68 -42 43 C-42.70125 42.773125 -43.4025 42.54625 -44.125 42.3125 C-48.68933515 40.22878178 -52.72820442 36.81709485 -56 33 C-56 32.34 -56 31.68 -56 31 C-56.99 30.67 -57.98 30.34 -59 30 C-59 29.34 -59 28.68 -59 28 C-59.99 27.67 -60.98 27.34 -62 27 C-62 26.34 -62 25.68 -62 25 C-62.66 25 -63.32 25 -64 25 C-67.35081676 22.4107325 -69.14147332 18.71705337 -71 15 C-70 12 -70 12 -68.2421875 10.9375 C-58.24886969 6.97975037 -47.66769195 5.08854 -37 4 C-37 3.67 -37 3.34 -37 3 C-24.69229775 1.65384507 -12.36247682 1.90175315 0 2 C0 1.34 0 0.68 0 0 Z " fill="#FFFFFF" transform="translate(468,279)"/>
<path d="M0 0 C1.58206057 0.00667536 3.16410534 0.0186375 4.74609375 0.03515625 C5.55240234 0.03966797 6.35871094 0.04417969 7.18945312 0.04882812 C9.18753131 0.06065107 11.18557158 0.07858711 13.18359375 0.09765625 C13.18359375 0.75765625 13.18359375 1.41765625 13.18359375 2.09765625 C13.88484375 2.06285156 14.58609375 2.02804688 15.30859375 1.9921875 C21.73905685 1.80870961 26.31961257 2.44226855 32.18359375 5.09765625 C32.18359375 6.08765625 32.18359375 7.07765625 32.18359375 8.09765625 C31.19359375 8.09765625 30.20359375 8.09765625 29.18359375 8.09765625 C29.18359375 8.75765625 29.18359375 9.41765625 29.18359375 10.09765625 C25.88359375 10.42765625 22.58359375 10.75765625 19.18359375 11.09765625 C19.18359375 11.75765625 19.18359375 12.41765625 19.18359375 13.09765625 C18.00796875 13.51015625 16.83234375 13.92265625 15.62109375 14.34765625 C8.70983888 16.98051525 4.04946222 19.71858617 -0.5546875 25.609375 C-1.81640625 27.09765625 -1.81640625 27.09765625 -3.81640625 28.09765625 C-4.31140625 29.58265625 -4.31140625 29.58265625 -4.81640625 31.09765625 C-5.47640625 31.42765625 -6.13640625 31.75765625 -6.81640625 32.09765625 C-7.14640625 33.08765625 -7.47640625 34.07765625 -7.81640625 35.09765625 C-8.80640625 35.59265625 -8.80640625 35.59265625 -9.81640625 36.09765625 C-10.14640625 37.08765625 -10.47640625 38.07765625 -10.81640625 39.09765625 C-11.47640625 39.09765625 -12.13640625 39.09765625 -12.81640625 39.09765625 C-13.14640625 40.41765625 -13.47640625 41.73765625 -13.81640625 43.09765625 C-14.47640625 43.09765625 -15.13640625 43.09765625 -15.81640625 43.09765625 C-16.14640625 44.41765625 -16.47640625 45.73765625 -16.81640625 47.09765625 C-17.47640625 47.09765625 -18.13640625 47.09765625 -18.81640625 47.09765625 C-20.02268633 49.42979773 -20.98188005 51.59407764 -21.81640625 54.09765625 C-22.47640625 54.09765625 -23.13640625 54.09765625 -23.81640625 54.09765625 C-24.14640625 55.08765625 -24.47640625 56.07765625 -24.81640625 57.09765625 C-25.47640625 57.09765625 -26.13640625 57.09765625 -26.81640625 57.09765625 C-26.90921875 57.96390625 -26.90921875 57.96390625 -27.00390625 58.84765625 C-28.14373175 62.00409611 -30.15235254 63.13133089 -32.81640625 65.09765625 C-33.37328125 65.67515625 -33.93015625 66.25265625 -34.50390625 66.84765625 C-35.81640625 68.09765625 -35.81640625 68.09765625 -37.81640625 68.09765625 C-38.31140625 69.58265625 -38.31140625 69.58265625 -38.81640625 71.09765625 C-39.80640625 71.09765625 -40.79640625 71.09765625 -41.81640625 71.09765625 C-41.81640625 71.75765625 -41.81640625 72.41765625 -41.81640625 73.09765625 C-44.29140625 73.59265625 -44.29140625 73.59265625 -46.81640625 74.09765625 C-46.81640625 74.75765625 -46.81640625 75.41765625 -46.81640625 76.09765625 C-51.0459062 78.51451337 -53.93976616 79.44598769 -58.81640625 79.09765625 C-58.81640625 79.75765625 -58.81640625 80.41765625 -58.81640625 81.09765625 C-67.06640625 81.09765625 -75.31640625 81.09765625 -83.81640625 81.09765625 C-83.81640625 80.43765625 -83.81640625 79.77765625 -83.81640625 79.09765625 C-84.80640625 79.09765625 -85.79640625 79.09765625 -86.81640625 79.09765625 C-87.01010279 73.57730483 -86.49138543 69.41817836 -84.81640625 64.09765625 C-84.45370037 62.10277391 -84.10999926 60.10387515 -83.81640625 58.09765625 C-83.15640625 58.09765625 -82.49640625 58.09765625 -81.81640625 58.09765625 C-81.48640625 55.45765625 -81.15640625 52.81765625 -80.81640625 50.09765625 C-80.15640625 50.09765625 -79.49640625 50.09765625 -78.81640625 50.09765625 C-78.73390625 48.88078125 -78.65140625 47.66390625 -78.56640625 46.41015625 C-78.04480376 42.22264329 -76.65724612 40.26316354 -73.81640625 37.09765625 C-72.39600419 34.80575327 -71.11477543 32.46254297 -69.81640625 30.09765625 C-69.15640625 30.09765625 -68.49640625 30.09765625 -67.81640625 30.09765625 C-67.72359375 29.23140625 -67.72359375 29.23140625 -67.62890625 28.34765625 C-66.48431277 25.17801277 -64.4908032 24.10345397 -61.81640625 22.09765625 C-60.97078125 21.21078125 -60.12515625 20.32390625 -59.25390625 19.41015625 C-56.93815042 17.21315713 -55.91494671 16.44193852 -52.81640625 16.09765625 C-52.81640625 15.43765625 -52.81640625 14.77765625 -52.81640625 14.09765625 C-51.16640625 13.76765625 -49.51640625 13.43765625 -47.81640625 13.09765625 C-47.81640625 12.43765625 -47.81640625 11.77765625 -47.81640625 11.09765625 C-39.08824768 7.19784072 -30.96304122 4.78367059 -21.44140625 3.52734375 C-18.89727608 3.37305716 -18.89727608 3.37305716 -17.81640625 2.09765625 C-14.4553134 1.7723892 -11.09306635 1.58406165 -7.72265625 1.37890625 C-3.95658597 1.01444784 -4.11824785 0.10537993 0 0 Z " fill="#FFFFFF" transform="translate(296.81640625,133.90234375)"/>
<path d="M0 0 C1.98 0.495 1.98 0.495 4 1 C4.06058594 1.83144531 4.12117187 2.66289063 4.18359375 3.51953125 C4.26738281 4.60621094 4.35117188 5.69289063 4.4375 6.8125 C4.55931641 8.43091797 4.55931641 8.43091797 4.68359375 10.08203125 C4.90212461 13.05989905 4.90212461 13.05989905 6 16 C6.17753874 18.06001301 6.31892079 20.12325375 6.4375 22.1875 C6.7042339 26.05944364 7.03208046 29.69315857 8.0625 33.4375 C8.94926859 36.80722063 9.17306519 39.53869611 9 43 C9.66 43 10.32 43 11 43 C11.66 46.3 12.32 49.6 13 53 C13.33 53 13.66 53 14 53 C14.33 56.3 14.66 59.6 15 63 C15.66 63 16.32 63 17 63 C17.33 65.64 17.66 68.28 18 71 C18.66 71 19.32 71 20 71 C20.81487171 73.24916619 21.62696918 75.49926978 22.4375 77.75 C22.66759766 78.38421875 22.89769531 79.0184375 23.13476562 79.671875 C24.24244769 82.75412076 25.29661036 85.79836438 26 89 C26.66 89 27.32 89 28 89 C28.33 90.65 28.66 92.3 29 94 C29.66 94 30.32 94 31 94 C31.33 95.98 31.66 97.96 32 100 C32.66 100 33.32 100 34 100 C34.33 101.65 34.66 103.3 35 105 C35.66 105 36.32 105 37 105 C37.556875 106.175625 38.11375 107.35125 38.6875 108.5625 C40.16262501 111.53918595 41.77611642 114.20379002 43.75 116.875 C46 120 46 120 46 122 C46.66 122 47.32 122 48 122 C48.33 123.32 48.66 124.64 49 126 C49.66 126 50.32 126 51 126 C51.33 127.32 51.66 128.64 52 130 C52.66 130 53.32 130 54 130 C54.33 131.32 54.66 132.64 55 134 C55.66 134 56.32 134 57 134 C58.5078125 135.4609375 58.5078125 135.4609375 60.125 137.375 C60.66382813 138.00148438 61.20265625 138.62796875 61.7578125 139.2734375 C63 141 63 141 63 143 C63.66 143 64.32 143 65 143 C66.33895632 144.66215268 67.67130142 146.32963607 69 148 C70.64295195 149.36244796 72.30824337 150.69864875 74 152 C75.8125 153.625 75.8125 153.625 77 155 C77 155.66 77 156.32 77 157 C77.99 157.33 78.98 157.66 80 158 C80 158.66 80 159.32 80 160 C80.57621094 160.2578125 81.15242188 160.515625 81.74609375 160.78125 C84.19393785 162.1048676 86.00637727 163.6300772 88.0625 165.5 C90.33432007 167.55815561 92.43707257 169.29138171 95 171 C95 171.66 95 172.32 95 173 C95.763125 173.28875 96.52625 173.5775 97.3125 173.875 C100 175 100 175 103 177 C103 177.66 103 178.32 103 179 C103.70640625 179.25136719 104.4128125 179.50273438 105.140625 179.76171875 C108.31093626 181.13465409 110.90983773 182.84767875 113.75 184.8125 C118.69765071 188.17420822 123.70616509 191.21939984 129 194 C129 194.66 129 195.32 129 196 C130.98 196.33 132.96 196.66 135 197 C135 197.66 135 198.32 135 199 C135.82757813 199.07734375 136.65515625 199.1546875 137.5078125 199.234375 C141.83975193 200.18410669 145.05968213 202.05690856 148.875 204.25 C156.96703762 208.74200499 165.08452673 211.61214108 174 214 C174 214.66 174 215.32 174 216 C176.97 216.33 179.94 216.66 183 217 C183 217.66 183 218.32 183 219 C187.29 219.33 191.58 219.66 196 220 C196 220.33 196 220.66 196 221 C196.85464844 221.13277344 197.70929688 221.26554688 198.58984375 221.40234375 C200.24693359 221.66724609 200.24693359 221.66724609 201.9375 221.9375 C203.03964844 222.11152344 204.14179688 222.28554688 205.27734375 222.46484375 C208 223 208 223 209 224 C222.85717286 227.09560032 236.58300406 227.41245474 250.72851562 227.28125 C254.15505793 227.24972345 257.58113849 227.24022423 261.0078125 227.234375 C263.21615141 227.2252155 265.42448569 227.21484312 267.6328125 227.203125 C268.64231964 227.19887512 269.65182678 227.19462524 270.69192505 227.19024658 C278.22124342 227.11481978 285.63303094 226.68387864 293 225 C293.7425 224.835 294.485 224.67 295.25 224.5 C297.01214107 224.1497399 297.01214107 224.1497399 298 223 C300.01594582 222.76572222 302.038474 222.58663876 304.0625 222.4375 C305.16722656 222.35371094 306.27195312 222.26992188 307.41015625 222.18359375 C308.26480469 222.12300781 309.11945313 222.06242188 310 222 C310 221.34 310 220.68 310 220 C313.96 219.67 317.92 219.34 322 219 C322 218.34 322 217.68 322 217 C324.64 216.67 327.28 216.34 330 216 C330 215.34 330 214.68 330 214 C331.98 213.67 333.96 213.34 336 213 C336 212.34 336 211.68 336 211 C340.97361654 209.24265549 345.7415998 207.67415387 351 207 C350.86328125 208.796875 350.86328125 208.796875 350 211 C347.41796875 212.703125 347.41796875 212.703125 344.1875 214.25 C343.12917969 214.77078125 342.07085938 215.2915625 340.98046875 215.828125 C338 217 338 217 334 217 C334 217.66 334 218.32 334 219 C328.30601106 221.09570426 323.04801071 222.45018084 317 223 C317 223.66 317 224.32 317 225 C313.41278829 226.56079778 310.041614 227.47490848 306.1875 228.125 C305.21167969 228.29257812 304.23585938 228.46015625 303.23046875 228.6328125 C302.49441406 228.75398437 301.75835938 228.87515625 301 229 C301 229.33 301 229.66 301 230 C296.71 230.33 292.42 230.66 288 231 C288 231.66 288 232.32 288 233 C287.39937744 233.05534912 286.79875488 233.11069824 286.17993164 233.16772461 C283.47366869 233.41970782 280.76810116 233.6785117 278.0625 233.9375 C277.11697266 234.02451172 276.17144531 234.11152344 275.19726562 234.20117188 C274.29814453 234.28818359 273.39902344 234.37519531 272.47265625 234.46484375 C271.22367554 234.58267212 271.22367554 234.58267212 269.94946289 234.70288086 C267.999388 234.80311398 267.999388 234.80311398 267 236 C265.47595193 236.0983867 263.94738587 236.12798534 262.42016602 236.12939453 C260.95843712 236.13412277 260.95843712 236.13412277 259.46717834 236.13894653 C258.40679855 236.1369223 257.34641876 236.13489807 256.25390625 236.1328125 C254.63173439 236.13424759 254.63173439 236.13424759 252.97679138 236.13571167 C250.68431541 236.13639371 248.39183752 236.13453777 246.09936523 236.13037109 C242.58117345 236.12502836 239.06310963 236.13031264 235.54492188 236.13671875 C233.32291638 236.13605787 231.10091097 236.13477651 228.87890625 236.1328125 C227.29137291 236.13584885 227.29137291 236.13584885 225.67176819 236.13894653 C224.6941301 236.13579437 223.716492 236.13264221 222.70922852 236.12939453 C221.84620621 236.12859894 220.9831839 236.12780334 220.0940094 236.12698364 C218 236 218 236 216 235 C214.55487563 234.78217533 213.10263322 234.61026332 211.6484375 234.46484375 C210.37226563 234.33432617 210.37226563 234.33432617 209.0703125 234.20117188 C208.18085938 234.11416016 207.29140625 234.02714844 206.375 233.9375 C205.4778125 233.84662109 204.580625 233.75574219 203.65625 233.66210938 C201.43782728 233.43790708 199.2191024 233.21735434 197 233 C197 232.34 197 231.68 197 231 C192.71 230.67 188.42 230.34 184 230 C184 229.67 184 229.34 184 229 C182.98292969 228.85304688 182.98292969 228.85304688 181.9453125 228.703125 C175.15389936 227.61198383 169.2959142 225.71465621 163 223 C159.04975107 221.44446156 155.1378683 219.97522447 151 219 C151 218.34 151 217.68 151 217 C149.02 216.67 147.04 216.34 145 216 C145 215.34 145 214.68 145 214 C142.69 213.67 140.38 213.34 138 213 C138 212.34 138 211.68 138 211 C137.443125 210.87625 136.88625 210.7525 136.3125 210.625 C133.77885636 209.94023145 131.42078968 209.00866237 129 208 C129 207.34 129 206.68 129 206 C128.175 205.773125 127.35 205.54625 126.5 205.3125 C122.33490514 203.75058943 118.4999057 201.77149893 115 199 C115 198.34 115 197.68 115 197 C114.1646875 196.8453125 114.1646875 196.8453125 113.3125 196.6875 C110.5230899 195.85821592 108.3860936 194.65700944 106 193 C106 192.34 106 191.68 106 191 C105.01 191 104.02 191 103 191 C103 190.34 103 189.68 103 189 C101.35 188.34 99.7 187.68 98 187 C98 186.34 98 185.68 98 185 C97.01 185 96.02 185 95 185 C93.3125 183.625 93.3125 183.625 92 182 C92 181.34 92 180.68 92 180 C91.4225 179.731875 90.845 179.46375 90.25 179.1875 C84.68752158 176.2517475 79.08787201 171.76918401 75 167 C75 166.34 75 165.68 75 165 C74.1646875 164.6596875 74.1646875 164.6596875 73.3125 164.3125 C70.33840412 162.62449964 68.27991135 160.53323483 66 158 C66 157.34 66 156.68 66 156 C65.01 155.67 64.02 155.34 63 155 C63 154.34 63 153.68 63 153 C62.34 153 61.68 153 61 153 C57 148.52941176 57 148.52941176 57 146 C56.01 145.67 55.02 145.34 54 145 C54 144.34 54 143.68 54 143 C53.34 143 52.68 143 52 143 C50.4921875 141.3203125 50.4921875 141.3203125 48.875 139.125 C48.33617187 138.40570312 47.79734375 137.68640625 47.2421875 136.9453125 C46 135 46 135 46 133 C45.34 133 44.68 133 44 133 C43.67 131.68 43.34 130.36 43 129 C42.34 129 41.68 129 41 129 C40.67 127.68 40.34 126.36 40 125 C39.34 125 38.68 125 38 125 C37.67 123.68 37.34 122.36 37 121 C36.34 121 35.68 121 35 121 C34.67 119.35 34.34 117.7 34 116 C33.34 116 32.68 116 32 116 C30.4921875 113.8828125 30.4921875 113.8828125 28.875 111.125 C28.33617187 110.22007812 27.79734375 109.31515625 27.2421875 108.3828125 C26 106 26 106 26 104 C25.34 104 24.68 104 24 104 C23.67 102.02 23.34 100.04 23 98 C22.34 98 21.68 98 21 98 C20.67 96.35 20.34 94.7 20 93 C19.34 93 18.68 93 18 93 C17.67 90.69 17.34 88.38 17 86 C16.34 86 15.68 86 15 86 C14.67 83.69 14.34 81.38 14 79 C13.34 79 12.68 79 12 79 C9.60785814 70.68214634 7.25131389 62.35715006 5 54 C4.67 54 4.34 54 4 54 C3.34 48.39 2.68 42.78 2 37 C1.67 37 1.34 37 1 37 C0.68784711 32.69557589 0.38501745 28.39062433 0.09057617 24.08496094 C-0.01074279 22.62221895 -0.11454756 21.15964682 -0.22094727 19.69726562 C-0.3739954 17.58764436 -0.51790828 15.47756124 -0.66015625 13.3671875 C-0.79369507 11.46622314 -0.79369507 11.46622314 -0.92993164 9.52685547 C-0.99622577 6.18997376 -0.66935363 3.26117869 0 0 Z " fill="#FFFFFF" transform="translate(215,569)"/>
<path d="M0 0 C5.01904027 0.04915273 9.14093816 0.40106157 13.875 2.1875 C14.63039063 2.44402344 15.38578125 2.70054687 16.1640625 2.96484375 C22.85168797 5.37694396 28.23483226 8.90459188 33.875 13.1875 C34.82375 13.88875 35.7725 14.59 36.75 15.3125 C39.12559183 17.40861044 40.92740403 19.69214266 42.875 22.1875 C43.761875 23.033125 44.64875 23.87875 45.5625 24.75 C47.75949912 27.06575583 48.53071773 28.08895954 48.875 31.1875 C49.535 31.1875 50.195 31.1875 50.875 31.1875 C50.875 32.1775 50.875 33.1675 50.875 34.1875 C51.535 34.1875 52.195 34.1875 52.875 34.1875 C54 37.9375 54 37.9375 52.875 40.1875 C52.215 40.1875 51.555 40.1875 50.875 40.1875 C50.875 40.8475 50.875 41.5075 50.875 42.1875 C38.5655293 48.99010223 24.32126003 50.43408929 10.6875 46.875 C6.63664049 45.56222146 2.73261911 43.98772225 -1.125 42.1875 C-1.125 41.5275 -1.125 40.8675 -1.125 40.1875 C-1.90875 40.14625 -2.6925 40.105 -3.5 40.0625 C-8.68437044 38.81110024 -12.65547502 36.02461474 -17.125 33.1875 C-24.25648324 28.80112945 -30.71623055 26.06701885 -39.078125 25.375 C-41.125 25.1875 -41.125 25.1875 -44.0625 24.5625 C-46.17916667 23.96458333 -46.17916667 23.96458333 -48.125 25.1875 C-49.99879605 25.25783769 -51.87501102 25.2718022 -53.75 25.25 C-54.75289062 25.24097656 -55.75578125 25.23195313 -56.7890625 25.22265625 C-57.55992188 25.21105469 -58.33078125 25.19945312 -59.125 25.1875 C-59.125 24.1975 -59.125 23.2075 -59.125 22.1875 C-58.465 22.1875 -57.805 22.1875 -57.125 22.1875 C-57.125 21.5275 -57.125 20.8675 -57.125 20.1875 C-54.97187517 17.549749 -52.66054612 16.33210879 -49.5625 15 C-48.77746094 14.65582031 -47.99242187 14.31164062 -47.18359375 13.95703125 C-45.125 13.1875 -45.125 13.1875 -43.125 13.1875 C-43.125 12.5275 -43.125 11.8675 -43.125 11.1875 C-39.825 9.8675 -36.525 8.5475 -33.125 7.1875 C-33.125 6.8575 -33.125 6.5275 -33.125 6.1875 C-32.47273438 6.06632812 -31.82046875 5.94515625 -31.1484375 5.8203125 C-25.56376034 4.75301758 -25.56376034 4.75301758 -20.125 3.125 C-16.48257548 1.98674234 -12.99356939 1.71150583 -9.19921875 1.43359375 C-5.90499611 1.04275378 -3.75185209 0.0213659 0 0 Z " fill="#FFFFFF" transform="translate(59.125,406.8125)"/>
<path d="M0 0 C1.65 0 3.3 0 5 0 C6.81596196 5.44788588 6.42868053 11.46386294 5 17 C4.34 17 3.68 17 3 17 C2.67 19.64 2.34 22.28 2 25 C1.34 25 0.68 25 0 25 C0 26.32 0 27.64 0 29 C-0.66 29 -1.32 29 -2 29 C-2.33 29.99 -2.66 30.98 -3 32 C-8.44585987 32.36305732 -8.44585987 32.36305732 -10.8125 30.8125 C-14.05218339 25.86772008 -12.75908957 20.52772918 -12 15 C-11.9175 13.865625 -11.835 12.73125 -11.75 11.5625 C-11.5025 10.716875 -11.255 9.87125 -11 9 C-8.6875 7.9375 -8.6875 7.9375 -6 7 C-4.63360658 5.3603279 -3.29486821 3.69672386 -2 2 C-1.34 2 -0.68 2 0 2 C0 1.34 0 0.68 0 0 Z " fill="#FFFFFF" transform="translate(600,623)"/>
<path d="M0 0 C5.21709323 0.02661782 9.51000545 0.33416874 14.375 2.1875 C14.1875 4.0625 14.1875 4.0625 13.375 6.1875 C10.8125 7.4375 10.8125 7.4375 8.375 8.1875 C8.375 9.1775 8.375 10.1675 8.375 11.1875 C4.08526894 11.25899552 0.52433362 11.22483341 -3.625 10.1875 C-5.81203385 10.56657282 -5.81203385 10.56657282 -7.625 11.1875 C-7.625 11.8475 -7.625 12.5075 -7.625 13.1875 C-12.50164009 13.53583144 -15.39550005 12.60435712 -19.625 10.1875 C-19.625 9.5275 -19.625 8.8675 -19.625 8.1875 C-20.615 8.1875 -21.605 8.1875 -22.625 8.1875 C-22.625 7.5275 -22.625 6.8675 -22.625 6.1875 C-23.285 6.1875 -23.945 6.1875 -24.625 6.1875 C-24.625 4.8675 -24.625 3.5475 -24.625 2.1875 C-22.80162109 2.09662109 -22.80162109 2.09662109 -20.94140625 2.00390625 C-19.35675772 1.91951668 -17.77212298 1.8348679 -16.1875 1.75 C-15.38505859 1.71068359 -14.58261719 1.67136719 -13.75585938 1.63085938 C-8.73210468 1.35529477 -5.08822724 0.02678014 0 0 Z " fill="#FFFFFF" transform="translate(539.625,415.8125)"/>
<path d="M0 0 C3.3 0 6.6 0 10 0 C10 0.66 10 1.32 10 2 C12.97 2.495 12.97 2.495 16 3 C16 3.66 16 4.32 16 5 C16.78375 4.95875 17.5675 4.9175 18.375 4.875 C21 5 21 5 23 7 C25.13065054 7.35216206 25.13065054 7.35216206 27.5625 7.4375 C32.72235918 7.84307845 37.18653578 9.1513507 42 11 C41.67 12.65 41.34 14.3 41 16 C39.68 16 38.36 16 37 16 C37 15.34 37 14.68 37 14 C31.39 14 25.78 14 20 14 C20 13.01 20 12.02 20 11 C19.67 11.99 19.34 12.98 19 14 C18.34 14 17.68 14 17 14 C17 14.66 17 15.32 17 16 C15.68 16 14.36 16 13 16 C13 15.34 13 14.68 13 14 C12.34 14 11.68 14 11 14 C11 12.68 11 11.36 11 10 C11.66 10 12.32 10 13 10 C13 9.34 13 8.68 13 8 C8.08368973 6.62343312 2.94483357 5.21985992 -2 7 C-2.33 6.01 -2.66 5.02 -3 4 C-2.34 4 -1.68 4 -1 4 C-0.67 2.68 -0.34 1.36 0 0 Z " fill="#FFFFFF" transform="translate(307,544)"/>
<path d="M0 0 C0.83595703 -0.00128906 1.67191406 -0.00257813 2.53320312 -0.00390625 C3.41298828 -0.00003906 4.29277344 0.00382812 5.19921875 0.0078125 C6.06740234 0.00394531 6.93558594 0.00007813 7.83007812 -0.00390625 C9.08981445 -0.00197266 9.08981445 -0.00197266 10.375 0 C11.14368408 0.00112793 11.91236816 0.00225586 12.7043457 0.00341797 C14.88245605 0.13255976 16.79334385 0.53368545 18.88671875 1.1328125 C18.88671875 2.7828125 18.88671875 4.4328125 18.88671875 6.1328125 C11.56349882 9.10455392 4.37676133 10.83902868 -3.23828125 7.9453125 C-5.11328125 6.1328125 -5.11328125 6.1328125 -5.48828125 3.5078125 C-4.87135847 -0.39936511 -3.6323139 0.00535345 0 0 Z " fill="#FFFFFF" transform="translate(445.11328125,448.8671875)"/>
<path d="M0 0 C1.65 0 3.3 0 5 0 C5.33 1.65 5.66 3.3 6 5 C4.34385343 5.38218767 2.67542976 5.71395102 1 6 C0 5 0 5 -0.0625 2.4375 C-0.041875 1.633125 -0.02125 0.82875 0 0 Z " fill="#FFFFFF" transform="translate(702,583)"/>
<path d="" fill="#FFFFFF" transform="translate(0,0)"/>
<path d="" fill="#FFFFFF" transform="translate(0,0)"/>
</svg>
