<?xml version="1.0" encoding="UTF-8"?>
<svg version="1.1" xmlns="http://www.w3.org/2000/svg" width="2101" height="1182">
<path d="M0 0 C6.61057802 -0.85692678 9.98192801 0.61364375 15.23046875 4.63671875 C36.17072435 22.50534307 48.97190948 44.84169528 54 72 C54.1340625 72.71800781 54.268125 73.43601562 54.40625 74.17578125 C56.71616621 89.15815447 54.47795565 104.39553884 49.4375 118.5625 C47.64999657 123.59801935 46.5553397 128.16640023 45.953125 133.5078125 C45.87285568 134.19985275 45.79258636 134.89189301 45.70988464 135.60490417 C45.46487313 137.73576192 45.23098134 139.86758005 45 142 C44.86215088 143.24934326 44.72430176 144.49868652 44.58227539 145.78588867 C44.30703524 148.29280572 44.03256239 150.79980711 43.75878906 153.30688477 C40.4184597 183.5108248 35.22092888 213.37736161 29.1619873 243.14428711 C26.27711778 257.41463815 24.47557007 271.42336747 24 286 C24.30510498 285.23816406 24.61020996 284.47632813 24.92456055 283.69140625 C27.55358341 277.23793813 30.36985021 271.05705993 33.8125 265 C34.24699463 264.23018799 34.68148926 263.46037598 35.12915039 262.66723633 C41.7088657 251.13011866 49.2152158 240.91442813 58 231 C58.46341797 230.47341797 58.92683594 229.94683594 59.40429688 229.40429688 C89.58572758 195.24382762 133.86796698 170.8376632 179.76953125 167.28125 C217.69689623 164.979492 250.83441722 171.75262337 285 188 C285 188.66 285 189.32 285 190 C281.69427146 189.39196188 278.58159972 188.59836743 275.40234375 187.51171875 C263.06991856 183.38765579 250.84501494 180.08104362 238 178 C236.92459961 177.8242041 235.84919922 177.6484082 234.74121094 177.46728516 C230.7659424 176.97076571 226.85461336 176.82058795 222.85546875 176.796875 C221.70248039 176.78832489 221.70248039 176.78832489 220.52619934 176.77960205 C218.90167594 176.77019946 217.27713388 176.76363705 215.65258789 176.75976562 C213.23221887 176.75017716 210.81274423 176.71915879 208.39257812 176.6875 C160.11865166 176.36097756 114.90617749 198.56908858 81 232 C69.62963857 243.49852975 60.56867239 256.76445448 53 271 C52.39414062 272.11890625 51.78828125 273.2378125 51.1640625 274.390625 C44.15177014 287.80278244 39.25593639 302.22668772 36 317 C35.84901855 317.66612305 35.69803711 318.33224609 35.54248047 319.01855469 C25.73452479 364.4927656 35.88627069 414.11252184 60.72949219 453.05078125 C66.24578261 461.51389861 72.06157929 469.43824954 78.9921875 476.81640625 C81 479 81 479 83.0234375 481.56640625 C84.81605298 483.77351978 86.58724446 485.5429137 88.75 487.375 C92.97659122 490.97888902 92.97659122 490.97888902 94.91015625 492.72265625 C127.24107661 521.86695612 168.41844287 534.47577247 211.375 534.375 C212.25029358 534.37445618 213.12558716 534.37391235 214.02740479 534.37335205 C236.50262102 534.30937259 258.17608015 531.74867299 278.8046875 522.25390625 C282 521 282 521 285 522 C271.89994782 529.26893139 257.68212841 533.89554929 243.25 537.75 C242.20863892 538.02952515 242.20863892 538.02952515 241.14624023 538.31469727 C238.77244369 538.9215427 236.39207073 539.46933805 234 540 C232.83509033 540.26039063 231.67018066 540.52078125 230.4699707 540.7890625 C220.5038972 542.90136229 210.85959715 543.56240803 200.6875 543.5 C199.9113031 543.49823761 199.1351062 543.49647522 198.33538818 543.49465942 C152.22227253 543.26331091 106.90772144 525.44544418 73.16015625 494.0078125 C71.13461361 492.12512006 69.05295609 490.34262939 66.9375 488.5625 C58.40753513 481.09449863 51.61626449 472.1494147 45 463 C44.30390625 462.07316406 43.6078125 461.14632813 42.890625 460.19140625 C35.74174559 450.36821976 30.22225668 439.67507132 24.56494141 428.94921875 C23.15220523 426.28683919 21.71426615 423.64080073 20.26171875 421 C11.11994302 404.26163588 3.39828369 386.60374365 -1 368 C-1.22751953 367.06478516 -1.45503906 366.12957031 -1.68945312 365.16601562 C-5.14190072 350.46319215 -7.13041829 335.74540283 -8.5390625 320.72265625 C-8.60306055 320.04090836 -8.6670586 319.35916046 -8.73299599 318.65675354 C-9.3808446 311.71134271 -9.99921542 304.76401747 -10.56722736 297.81161308 C-13.00656152 268.09650843 -18.15702499 241.05766724 -33 215 C-31.67330362 219.25084349 -30.05520899 223.29207541 -28.28369141 227.36938477 C-15 257.96203354 -15 257.96203354 -15 272 C-24.61576612 269.53441894 -30.56728979 263.92897764 -36.2734375 256.07421875 C-41.6784283 246.4504003 -41.89520685 236.28008432 -42.640625 225.45507812 C-43.61459252 213.77340667 -46.27571916 201.26913701 -54 192 C-54.99 191.34 -55.98 190.68 -57 190 C-57 189.34 -57 188.68 -57 188 C-40.05246503 191.63161464 -25.97629235 199.89209384 -16.0625 214.25 C-9.86458398 224.78191109 -7.01747745 236.49860629 -6.81176758 248.63232422 C-6.50484589 263.81342291 -4.4127979 278.5734131 -2.12236023 293.54586792 C-0.69138075 302.93410708 0.60333227 312.34128725 1.90542603 321.74810791 C2.43502209 325.57220518 2.96774575 329.39586397 3.50045776 333.2195282 C4.00100382 336.81292178 4.50053033 340.40645666 5 344 C4.98952637 343.30777344 4.97905273 342.61554688 4.96826172 341.90234375 C4.43182931 300.67174145 11.54989849 261.28659458 19.63427734 221.03833008 C25.73856828 191.12565366 25.73856828 191.12565366 29.6875 160.875 C29.80778564 159.60422607 29.92807129 158.33345215 30.05200195 157.02416992 C31.03011399 146.35526628 31.77038238 135.71166211 32 125 C32.03287109 123.4845459 32.03287109 123.4845459 32.06640625 121.93847656 C33.08518022 73.61875778 33.08518022 73.61875778 19 28 C19.16604736 28.75394043 19.33209473 29.50788086 19.50317383 30.28466797 C25.40971432 57.20111922 29.18265402 82.24300841 29.13037109 109.81420898 C29.124995 113.19063777 29.1303523 116.56693454 29.13671875 119.94335938 C29.13605814 122.12239612 29.13477732 124.30143279 29.1328125 126.48046875 C29.13483673 127.47346481 29.13686096 128.46646088 29.13894653 129.48954773 C29.11732019 136.04174302 28.69688554 142.48538684 28 149 C19.16888814 147.12089177 12.58396915 137.90834647 7.6875 130.8203125 C-1.15211735 116.04669276 -0.76027299 99.44664455 1.25 82.9375 C1.38132324 81.81988281 1.51264648 80.70226562 1.64794922 79.55078125 C2.6214967 71.50128808 3.83588385 63.50409973 5.125 55.5 C8.05718472 37.03850333 10.83282076 18.89052485 1 2 C0.505 1.01 0.505 1.01 0 0 Z M17 22 C18 24 18 24 18 24 Z M-37 209 C-36 211 -36 211 -36 211 Z M-35 212 C-34 214 -34 214 -34 214 Z M6 351 C7 355 7 355 7 355 Z M7 358 C8 361 8 361 8 361 Z " fill="#FFFFFF" transform="translate(900,99)"/>
<path d="M0 0 C7.54067297 6.03253838 12.57559004 12.60363624 16.8125 21.25 C17.5859375 20.0125 17.5859375 20.0125 18.375 18.75 C27.11534744 5.85191784 38.1148189 -0.56489144 53.1328125 -4.33203125 C66.34899829 -6.39344798 80.60992963 -5.51969312 91.75 2.4375 C104.45539468 13.42091811 106.41327544 28.52929867 107.63484955 44.35942078 C108.19486267 53.4714849 108.05253451 62.60975415 108.0078125 71.734375 C108.00407092 74.01507441 108.00122938 76.29577545 107.99923706 78.57647705 C107.99169061 84.5077579 107.97212209 90.43893693 107.9498291 96.37017822 C107.92917423 102.45119856 107.92019384 108.53223576 107.91015625 114.61328125 C107.88886546 126.49223887 107.85375942 138.37109494 107.8125 150.25 C95.6025 150.25 83.3925 150.25 70.8125 150.25 C70.79062622 145.3302124 70.79062622 145.3302124 70.76831055 140.31103516 C70.71789365 129.45441756 70.65128587 118.59794231 70.57678509 107.74146461 C70.5321254 101.16147724 70.49285933 94.58155115 70.46606445 88.00146484 C70.43998794 81.64711324 70.39955416 75.29299806 70.34931374 68.93879318 C70.33267453 66.51884281 70.32114197 64.09885157 70.31488609 61.67885208 C70.30521322 58.27995477 70.27711464 54.88165829 70.24487305 51.48291016 C70.24630814 50.49028168 70.24774323 49.4976532 70.2492218 48.47494507 C70.16205031 41.94443498 68.98979701 36.39708641 66.8125 30.25 C66.4825 29.26 66.1525 28.27 65.8125 27.25 C63.38866923 26.08046584 63.38866923 26.08046584 60.8125 25.25 C60.1525 24.92 59.4925 24.59 58.8125 24.25 C50.45448755 23.56771327 43.21339523 26.09863034 36.7265625 31.33203125 C26.99246941 41.08598983 22.69971898 54.60707504 22.60717773 68.05761719 C22.59727814 68.94577621 22.58737854 69.83393524 22.57717896 70.74900818 C22.54561812 73.68160343 22.5208279 76.61421488 22.49609375 79.546875 C22.47551955 81.58140481 22.45452295 83.61593039 22.43312073 85.65045166 C22.37794821 91.0032 22.32851765 96.3559866 22.28027344 101.70880127 C22.23002324 107.17178754 22.17435554 112.6347183 22.11914062 118.09765625 C22.01161797 128.81505848 21.91066056 139.53250792 21.8125 150.25 C9.9325 150.25 -1.9475 150.25 -14.1875 150.25 C-14.20731934 147.2281958 -14.22713867 144.2063916 -14.24755859 141.09301758 C-14.31468673 131.07064329 -14.39232217 121.04836979 -14.47502708 111.02611256 C-14.52481592 104.95403609 -14.57114663 98.88197557 -14.609375 92.80981445 C-14.64644881 86.94177939 -14.69286678 81.07388367 -14.74556351 75.20596886 C-14.7639907 72.97549591 -14.77914094 70.74499323 -14.79084396 68.51447487 C-13.83647616 46.86193182 -13.83647616 46.86193182 -21.1875 27.25 C-25.50688362 24.17843831 -28.96534927 23.71893382 -34.1875 24.25 C-42.54105404 25.92372653 -48.12376782 30.03580512 -53.1015625 36.8828125 C-63.37084661 53.26996799 -63.31854991 70.96847731 -63.50390625 89.60546875 C-63.524519 91.36095114 -63.54551646 93.11642905 -63.56687927 94.87190247 C-63.6216544 99.4568007 -63.67125712 104.04174034 -63.71972656 108.62670898 C-63.77918172 114.14692895 -63.84516056 119.66707445 -63.91002655 125.18723297 C-64.00747404 133.54144256 -64.09671342 141.89570342 -64.1875 150.25 C-76.0675 150.25 -87.9475 150.25 -100.1875 150.25 C-100.20731934 147.64818848 -100.22713867 145.04637695 -100.24755859 142.36572266 C-100.31492719 133.70044775 -100.39255515 125.03528562 -100.47502708 116.37014198 C-100.52464751 111.12439156 -100.57097595 105.87865802 -100.609375 100.6328125 C-100.6466663 95.55577499 -100.6931349 90.47889192 -100.74556351 85.40198898 C-100.76387771 83.47988003 -100.77906706 81.55773828 -100.79084396 79.63557816 C-100.8900163 63.98649297 -101.41756808 48.22897276 -105.375 33 C-105.58278076 32.1764502 -105.79056152 31.35290039 -106.00463867 30.50439453 C-107.80863126 23.79080187 -110.48127066 17.87749453 -113.83203125 11.8046875 C-115.1875 9.25 -115.1875 9.25 -115.1875 7.25 C-111.40222333 5.65293791 -107.6119685 4.06841763 -103.81665039 2.49536133 C-102.52615574 1.95842598 -101.23707528 1.41807852 -99.94946289 0.87426758 C-98.09896749 0.0934227 -96.24290326 -0.67418332 -94.38671875 -1.44140625 C-93.27127686 -1.90748291 -92.15583496 -2.37355957 -91.0065918 -2.85375977 C-88.1875 -3.75 -88.1875 -3.75 -85.1875 -2.75 C-79.72077994 4.1546488 -76.30939881 12.08863158 -73.1875 20.25 C-72.52280292 21.91745315 -71.85677654 23.58437965 -71.1875 25.25 C-70.56875 24.198125 -70.56875 24.198125 -69.9375 23.125 C-61.26091749 8.87061445 -50.64575855 0.61407115 -34.48828125 -3.8359375 C-22.89404131 -6.59431959 -10.50362579 -5.76669651 0 0 Z " fill="#FFFFFF" transform="translate(969.1875,756.75)"/>
<path d="M0 0 C0.33 28.71 0.66 57.42 1 87 C2.98 84.36 4.96 81.72 7 79 C16.94062288 69.20037887 28.54332458 66.73446284 41.98657227 66.75341797 C55.95812356 66.958572 67.34691265 71.38900664 77.6875 80.875 C94.20542659 98.28961403 97.5508785 124.05718816 96.97827148 147.14086914 C95.94117014 169.57707331 87.58345915 191.44672543 71 207 C51.51453986 222.50429379 30.87994672 226.04441557 6.51416016 223.65869141 C-32.96685708 219.03314292 -32.96685708 219.03314292 -37 215 C-37.09784411 212.30669231 -37.12993795 209.63903832 -37.12025452 206.94529724 C-37.12110894 206.09098037 -37.12196337 205.2366635 -37.12284368 204.35645825 C-37.12450111 201.4712606 -37.11897284 198.58612009 -37.11352539 195.70092773 C-37.11324355 193.64169313 -37.11340119 191.58245842 -37.1139679 189.52322388 C-37.11425599 183.91394913 -37.10835735 178.30469556 -37.10139394 172.69542575 C-37.09516237 166.8404137 -37.09455676 160.98540121 -37.09336853 155.13038635 C-37.09025463 144.03459239 -37.08204045 132.93880823 -37.07201904 121.84301859 C-37.06085972 109.21445826 -37.05534791 96.58589747 -37.05032361 83.95733345 C-37.03985789 57.97155019 -37.02225731 31.98577564 -37 6 C-32.3743614 5.14097459 -27.74789504 4.28661079 -23.12060547 3.43652344 C-21.5471279 3.14678318 -19.97388258 2.85577864 -18.40087891 2.56347656 C-16.13764608 2.14314147 -13.87361236 1.72738534 -11.609375 1.3125 C-10.90818542 1.18125732 -10.20699585 1.05001465 -9.48455811 0.91479492 C-6.23577093 0.3238361 -3.31961166 0 0 0 Z M-1 88 C0 90 0 90 0 90 Z M16.19921875 100.45703125 C5.94174918 112.3177998 -0.14823872 129.29257808 -0.11352539 144.91357422 C-0.11344986 146.05430389 -0.11337433 147.19503357 -0.11329651 148.37033081 C-0.10813522 149.58616852 -0.10297394 150.80200623 -0.09765625 152.0546875 C-0.0962413 153.31137238 -0.09482635 154.56805725 -0.09336853 155.86282349 C-0.08873074 159.1869194 -0.0797618 162.51094542 -0.06866455 165.83502197 C-0.05839401 169.23375854 -0.05385887 172.63250235 -0.04882812 176.03125 C-0.03781699 182.68751917 -0.02109222 189.34375555 0 196 C2.22559467 196.49654552 4.45239553 196.98768666 6.6796875 197.4765625 C7.91960449 197.75064941 9.15952148 198.02473633 10.43701172 198.30712891 C20.89603158 200.34102629 31.69954161 198.97198442 40.875 193.3125 C50.88709839 185.92563536 54.52436108 175.24356912 56.59423828 163.35229492 C57.34623322 157.13951361 57.33321379 150.91958561 57.31567383 144.66821289 C57.31252852 142.33366478 57.33599975 140.00040679 57.36132812 137.66601562 C57.42638026 122.53979738 56.6859275 106.90864359 45.5625 95.5 C34.88365051 89.24896615 24.6481179 92.36201269 16.19921875 100.45703125 Z " fill="#FFFFFF" transform="translate(1150,685)"/>
<path d="M0 0 C10.23 0 20.46 0 31 0 C40.4638374 24.1618642 49.84694096 48.35344809 59.15136719 72.57714844 C60.00974784 74.81185579 60.86814643 77.04655625 61.7265625 79.28125 C62.15618286 80.39969299 62.58580322 81.51813599 63.02844238 82.67047119 C67.5447602 94.42419778 72.07986429 106.17065354 76.61630249 117.91662598 C77.9919047 121.47903553 79.36681032 125.04171308 80.74145508 128.60449219 C81.65445329 130.97070557 82.56745784 133.33691651 83.48046875 135.703125 C83.93168594 136.87252625 84.38290314 138.04192749 84.84779358 139.24676514 C87.43798298 145.95799445 90.0318442 152.66779059 92.62966728 159.37606812 C94.74693874 164.84386465 96.86027991 170.31317503 98.97241211 175.78295898 C99.85897594 178.07665419 100.74697453 180.3697954 101.63647461 182.66235352 C102.86159963 185.82036553 104.08175993 188.98025288 105.30078125 192.140625 C105.84440056 193.53640778 105.84440056 193.53640778 106.39900208 194.96038818 C106.7292186 195.81940735 107.05943512 196.67842651 107.3996582 197.56347656 C107.68637894 198.30422424 107.97309967 199.04497192 108.26850891 199.8081665 C109 202 109 202 110 207 C96.8 207 83.6 207 70 207 C65.5 195.75 65.5 195.75 64.16894531 191.91748047 C63.8648877 191.04567139 63.56083008 190.1738623 63.24755859 189.27563477 C62.94414551 188.39834717 62.64073242 187.52105957 62.328125 186.6171875 C62.03728027 185.78195557 61.74643555 184.94672363 61.44677734 184.08618164 C60.3786584 181.01666576 59.31455274 177.94575452 58.25 174.875 C55.8575 167.98625 53.465 161.0975 51 154 C26.91 153.67 2.82 153.34 -22 153 C-22.99 156.3 -23.98 159.6 -25 163 C-25.58351491 164.73149918 -26.18208133 166.45817452 -26.80932617 168.17431641 C-27.12943161 169.05447418 -27.44953705 169.93463196 -27.77934265 170.84146118 C-28.11383926 171.75229462 -28.44833588 172.66312805 -28.79296875 173.6015625 C-29.14386063 174.564039 -29.4947525 175.5265155 -29.85627747 176.51815796 C-30.9640206 179.55475274 -32.07568871 182.58989268 -33.1875 185.625 C-33.94492279 187.69912334 -34.70208668 189.77334124 -35.45898438 191.84765625 C-37.30252221 196.89971722 -39.15137517 201.94978671 -41 207 C-53.54 207 -66.08 207 -79 207 C-74.67201725 194.45836821 -70.17347648 182.02451332 -65.35214233 169.6652832 C-63.8815431 165.89517563 -62.41867543 162.12207923 -60.95509338 158.34924316 C-60.17326406 156.33404551 -59.39106381 154.31899173 -58.60850525 152.30407715 C-54.10779627 140.71311874 -49.64774036 129.10657626 -45.1875 117.5 C-44.34720832 115.31419347 -43.50687611 113.12840253 -42.66650391 110.94262695 C-40.96762185 106.52382128 -39.26890606 102.10495174 -37.5703125 97.68603516 C-33.70025358 87.61846801 -29.82795548 77.55176206 -25.95584106 67.48498535 C-23.88583765 62.10330519 -21.81597138 56.72157229 -19.74609375 51.33984375 C-18.94775458 49.2641599 -18.14941475 47.1884763 -17.35107422 45.11279297 C-16.96183777 44.1007782 -16.57260132 43.08876343 -16.17156982 42.04608154 C-8.08578491 21.02304077 -8.08578491 21.02304077 0 0 Z M14 45 C13.81953629 45.5664473 13.63907257 46.13289459 13.45314026 46.71650696 C11.15897911 53.91604 8.86132889 61.11445615 6.5625 68.3125 C6.19817871 69.45381378 5.83385742 70.59512756 5.45849609 71.77102661 C0.87950185 86.10888833 -3.71993075 100.43617784 -8.61108398 114.67114258 C-8.93536377 115.62400146 -9.25964355 116.57686035 -9.59375 117.55859375 C-9.86896484 118.35579834 -10.14417969 119.15300293 -10.42773438 119.97436523 C-11.13593531 122.13034707 -11.13593531 122.13034707 -11 125 C6.16 125 23.32 125 41 125 C39.25304226 118.5944883 37.55542413 112.42498559 35.43359375 106.17578125 C34.94770793 104.7347974 34.46187006 103.29379739 33.97607422 101.8527832 C33.72500916 101.11194489 33.47394409 100.37110657 33.215271 99.6078186 C29.72019253 89.29331902 26.26200177 78.97183871 23.05859375 68.5625 C22.82911545 67.81792038 22.59963715 67.07334076 22.36320496 66.30619812 C21.2711948 62.75424029 20.19051327 59.199227 19.12280273 55.63989258 C18.73938721 54.38329834 18.35597168 53.1267041 17.9609375 51.83203125 C17.62884277 50.72577393 17.29674805 49.6195166 16.95458984 48.47973633 C16.26221454 45.85025305 16.26221454 45.85025305 14 45 Z " fill="#FFFFFF" transform="translate(739,700)"/>
<path d="M0 0 C11.58082307 22.69135891 18.17208781 46.82158764 18.1875 72.375 C18.19974609 73.46683594 18.21199219 74.55867188 18.22460938 75.68359375 C18.22654297 76.72386719 18.22847656 77.76414062 18.23046875 78.8359375 C18.23457764 79.78001465 18.23868652 80.7240918 18.24291992 81.69677734 C18 84 18 84 16 86 C15.01 86 14.02 86 13 86 C12.608125 84.865625 12.21625 83.73125 11.8125 82.5625 C10.37856726 78.94872945 10.37856726 78.94872945 7.75 77.6875 C3.99586814 78.11410589 2.33000247 79.90287095 -0.3515625 82.45703125 C-2 84 -2 84 -5 86 C-6.00082535 89.42243314 -6.00082535 89.42243314 -6 93 C-4.56249809 94.68798827 -4.56249809 94.68798827 -3 96 C-3.3125 98.1875 -3.3125 98.1875 -4 100 C-7.53107867 99.34609654 -10.08722252 98.10242207 -13 96 C-14.546875 93.2578125 -14.546875 93.2578125 -15.75 90.125 C-16.36101562 88.58199219 -16.36101562 88.58199219 -16.984375 87.0078125 C-17.88714539 84.33422326 -18.52850245 81.77773559 -19 79 C-19.61875 78.9175 -20.2375 78.835 -20.875 78.75 C-23 78 -23 78 -24.125 76 C-24.41375 75.34 -24.7025 74.68 -25 74 C-27.52475462 72.73762269 -29.31200466 72.90143596 -32.125 72.9375 C-33.03507812 72.94652344 -33.94515625 72.95554687 -34.8828125 72.96484375 C-35.93082031 72.98224609 -35.93082031 72.98224609 -37 73 C-36.01 74.485 -36.01 74.485 -35 76 C-41.78584433 84.84216079 -48.04871113 87.78816333 -59 90 C-59 90.66 -59 91.32 -59 92 C-54.05 91.01 -54.05 91.01 -49 90 C-47.86234414 95.6882793 -47.86234414 95.6882793 -49.875 98.8125 C-52.69296794 103.00761047 -56.24165119 106.12137234 -60.109375 109.3359375 C-62.09202285 110.87077028 -62.09202285 110.87077028 -63 113 C-62.92588291 116.78738343 -62.82446513 120.56565473 -62.609375 124.34765625 C-62.54896581 126.66208331 -62.55411285 128.72687181 -63 131 C-65.25552561 133.36609059 -67.11627557 134.55813778 -70 136 C-70 138.64 -70 141.28 -70 144 C-71.32 144.33 -72.64 144.66 -74 145 C-74.09152344 145.74894531 -74.18304687 146.49789062 -74.27734375 147.26953125 C-75.52202657 151.97241389 -79.07751148 154.36012451 -83 157 C-87.3541698 158.88999678 -91.44119947 159.51960018 -96 158 C-99.89252377 152.90264744 -101.71924338 146.26325997 -103.32421875 140.12890625 C-103.97531685 137.73698192 -103.97531685 137.73698192 -106 135 C-106.33333333 128.66666667 -106.33333333 128.66666667 -105 126 C-105.04477691 120.30213771 -105.80698928 115.19301072 -110 111 C-110.14115161 108.32941149 -110.04247107 105.67567762 -110 103 C-111.32 103 -112.64 103 -114 103 C-114.66 102.01 -115.32 101.02 -116 100 C-117.36125 100.495 -117.36125 100.495 -118.75 101 C-124.13151558 102.47364017 -129.48714752 102.96639645 -135 102 C-138.2474999 100.12623993 -140.58107111 97.84224145 -143 95 C-143.71929688 94.2471875 -144.43859375 93.494375 -145.1796875 92.71875 C-148.69065735 87.47489803 -147.86099379 81.02057881 -147 75 C-144.88244093 70.43297605 -142.14844514 67.7656301 -138 65 C-137.5359375 63.824375 -137.5359375 63.824375 -137.0625 62.625 C-135.86273197 59.66086723 -134.35560198 58.12004178 -132 56 C-133.32 55.67 -134.64 55.34 -136 55 C-136 51.7 -136 48.4 -136 45 C-132.37 45 -128.74 45 -125 45 C-125.495 42.525 -125.495 42.525 -126 40 C-127.485 39.505 -127.485 39.505 -129 39 C-129.33 38.34 -129.66 37.68 -130 37 C-130.66 36.01 -131.32 35.02 -132 34 C-135.08365871 33.7497843 -135.08365871 33.7497843 -138 34 C-138 32.35 -138 30.7 -138 29 C-136.35 28.34 -134.7 27.68 -133 27 C-133 25.68 -133 24.36 -133 23 C-130.36 22.34 -127.72 21.68 -125 21 C-124.5875 22.258125 -124.175 23.51625 -123.75 24.8125 C-122.46751068 28.27951659 -121.33612117 30.15938142 -118 32 C-117.21625 31.505 -116.4325 31.01 -115.625 30.5 C-113 29 -113 29 -111 29 C-111 28.01 -111 27.02 -111 26 C-111.639375 25.79375 -112.27875 25.5875 -112.9375 25.375 C-113.618125 24.92125 -114.29875 24.4675 -115 24 C-115.33 22.02 -115.66 20.04 -116 18 C-111.71 15.69 -107.42 13.38 -103 11 C-103 10.01 -103 9.02 -103 8 C-100.33692657 7.29489078 -97.67112372 6.61083651 -95 5.9375 C-93.88431641 5.63875977 -93.88431641 5.63875977 -92.74609375 5.33398438 C-84.6991472 3.3397411 -78.07524722 4.82627432 -70.1875 7 C-69.53330078 7.17789062 -68.87910156 7.35578125 -68.20507812 7.5390625 C-65.4436505 8.29499979 -62.71659212 9.09446929 -60 10 C-60 9.34 -60 8.68 -60 8 C-58.35 8 -56.7 8 -55 8 C-55 8.66 -55 9.32 -55 10 C-54.46890625 9.67257812 -53.9378125 9.34515625 -53.390625 9.0078125 C-50.37305843 7.7357011 -48.01306977 7.8040637 -44.75 7.875 C-43.67234375 7.89304687 -42.5946875 7.91109375 -41.484375 7.9296875 C-40.25460937 7.96449219 -40.25460937 7.96449219 -39 8 C-39 7.01 -39 6.02 -39 5 C-35.04 5.66 -31.08 6.32 -27 7 C-26.67 6.01 -26.34 5.02 -26 4 C-23.58859928 1.4958531 -22.24480725 1.02353916 -18.75 0.6875 C-14.60299473 1.03308377 -11.0008944 1.87694192 -7 3 C-7 2.34 -7 1.68 -7 1 C-4.50935112 0.31292445 -2.62113708 0 0 0 Z M-96 18 C-95.34 19.65 -94.68 21.3 -94 23 C-94.99 23.33 -95.98 23.66 -97 24 C-97 24.66 -97 25.32 -97 26 C-98.65 26.66 -100.3 27.32 -102 28 C-98.67526221 29.10824593 -96.30101547 29.26962134 -93 28 C-90.9084968 25.31704343 -90.9084968 25.31704343 -90 22 C-90.67993427 19.16924452 -90.67993427 19.16924452 -92 17 C-94.0745356 16.8509288 -94.0745356 16.8509288 -96 18 Z M-106 25 C-105 27 -105 27 -105 27 Z M-117 47 C-121.03900139 49.29240619 -121.11409032 50.28522581 -123 55 C-117.06 54.67 -111.12 54.34 -105 54 C-105 53.34 -105 52.68 -105 52 C-103.35 52 -101.7 52 -100 52 C-105.28834743 46.10145863 -109.39432238 43.9013906 -117 47 Z M-98 47 C-96.515 47.99 -96.515 47.99 -95 49 C-95 48.34 -95 47.68 -95 47 C-95.99 47 -96.98 47 -98 47 Z M-98.375 53 C-101 55 -101 55 -105 55 C-105.33 56.32 -105.66 57.64 -106 59 C-104.3767313 59.6708712 -102.75132422 60.33657029 -101.125 61 C-100.22007813 61.37125 -99.31515625 61.7425 -98.3828125 62.125 C-96.11016142 63.11490226 -96.11016142 63.11490226 -94 63 C-93.67 62.34 -93.34 61.68 -93 61 C-91.10314453 61.14308594 -91.10314453 61.14308594 -89.16796875 61.2890625 C-87.50785113 61.40161285 -85.84769258 61.51356068 -84.1875 61.625 C-82.93743164 61.72167969 -82.93743164 61.72167969 -81.66210938 61.8203125 C-80.85966797 61.871875 -80.05722656 61.9234375 -79.23046875 61.9765625 C-78.49207764 62.02893066 -77.75368652 62.08129883 -76.99291992 62.13525391 C-74.67745795 62.14397982 -74.67745795 62.14397982 -72 60 C-71.27617533 57.94074861 -71.27617533 57.94074861 -71 56 C-71.55461914 55.9906543 -72.10923828 55.98130859 -72.68066406 55.97167969 C-75.20466481 55.91784278 -77.72683814 55.83422746 -80.25 55.75 C-81.12269531 55.73582031 -81.99539063 55.72164063 -82.89453125 55.70703125 C-89.44531918 55.45700118 -89.44531918 55.45700118 -92.484375 52.953125 C-92.98453125 52.30859375 -93.4846875 51.6640625 -94 51 C-96.26251887 50.78528808 -96.26251887 50.78528808 -98.375 53 Z M-52 66 C-51.01 67.32 -50.02 68.64 -49 70 C-48.34 69.67 -47.68 69.34 -47 69 C-48.37485532 67.45833358 -48.37485532 67.45833358 -50 66 C-50.66 66 -51.32 66 -52 66 Z M-72 69 C-71 71 -71 71 -71 71 Z M-47 70 C-47 70.66 -47 71.32 -47 72 C-46.01 72 -45.02 72 -44 72 C-44 71.34 -44 70.68 -44 70 C-44.99 70 -45.98 70 -47 70 Z M-71 71 C-70.34 72.65 -69.68 74.3 -69 76 C-68.67 75.01 -68.34 74.02 -68 73 C-68.99 72.34 -69.98 71.68 -71 71 Z M-68 76 C-67 78 -67 78 -67 78 Z M-67 78 C-66.64950425 81.24208567 -66.43778819 82.61527704 -63.9375 84.8125 C-63.298125 85.204375 -62.65875 85.59625 -62 86 C-63.26946514 81.17557816 -63.26946514 81.17557816 -67 78 Z " fill="#FFFFFF" transform="translate(1253,379)"/>
<path d="M0 0 C0.00546844 1.67438644 0.00546844 1.67438644 0.01104736 3.38259888 C0.04829631 14.00097014 0.10638773 24.61905937 0.18390274 35.23721504 C0.2230926 40.69363579 0.25541864 46.14990201 0.27099609 51.60644531 C0.2863531 56.89109406 0.32112585 62.17531711 0.36830902 67.45977402 C0.38292949 69.45671726 0.39102962 71.45372134 0.39188385 73.45071793 C0.4102538 94.90042364 2.5436415 117.33037874 14 136 C14 136.66 14 137.32 14 138 C10.35506745 139.5734726 6.70717419 141.13984244 3.05639648 142.69970703 C1.81500279 143.23129273 0.5744337 143.76480845 -0.6652832 144.30029297 C-2.44784809 145.06985843 -4.23365229 145.8319069 -6.01953125 146.59375 C-7.62985229 147.28500977 -7.62985229 147.28500977 -9.27270508 147.99023438 C-12 149 -12 149 -15 149 C-23.56362819 139.89890561 -28.69646697 128.47244834 -29 116 C-29.66 116 -30.32 116 -31 116 C-31.12246094 116.73734375 -31.24492188 117.4746875 -31.37109375 118.234375 C-33.52515912 127.70691092 -40.97315205 136.57601152 -48.9375 141.875 C-61.65766098 149.13650922 -79.04517873 150.3931442 -93.125 146.8125 C-94.76713239 146.25658311 -96.39417951 145.65343931 -98 145 C-99.25103516 144.50693359 -99.25103516 144.50693359 -100.52734375 144.00390625 C-114.41023999 137.82184614 -122.77123011 126.37534145 -128.25 112.5625 C-137.52788683 87.32483457 -136.92566381 56.54727064 -126 32 C-115.96955434 12.83899549 -100.9514708 -0.10725233 -80.62890625 -7.171875 C-57.9872611 -12.93421446 -21.05090115 -10.52545057 0 0 Z M-84.3125 27.1875 C-89.94976432 34.43769264 -92.79019065 42.99676761 -94 52 C-94.11085938 52.804375 -94.22171875 53.60875 -94.3359375 54.4375 C-96.50257057 73.64440941 -97.53229314 99.26934065 -86.5625 116 C-83.26848465 119.85640822 -80.06572179 122.25504091 -75 123 C-67.4831647 123.5782181 -61.87874183 121.76126802 -56 117.125 C-43.76811775 105.63808504 -37.75219654 87.3502084 -36.82516479 70.89697266 C-36.77063832 67.56101017 -36.77464362 64.23079473 -36.8046875 60.89453125 C-36.80893234 59.08670418 -36.80893234 59.08670418 -36.81326294 57.24235535 C-36.8243648 53.43229808 -36.84945066 49.62248497 -36.875 45.8125 C-36.88504272 43.21289404 -36.8941663 40.61328437 -36.90234375 38.01367188 C-36.92427133 31.67569941 -36.95764799 25.33786716 -37 19 C-39.51943396 18.49187886 -42.04016873 17.99335466 -44.5625 17.5 C-45.61920898 17.28537109 -45.61920898 17.28537109 -46.69726562 17.06640625 C-60.57535621 14.3803242 -74.29204254 16.55354515 -84.3125 27.1875 Z " fill="#FFFFFF" transform="translate(1896,761)"/>
<path d="M0 0 C16.21025855 14.95473078 21.57117028 38.74819045 22.4296875 59.91796875 C23.03902524 83.35143154 18.61829545 107.09208723 2.89453125 125.28125 C-9.11770924 137.92039193 -24.41274578 145.66311711 -42.02734375 146.40234375 C-44.17825705 146.42587888 -46.32952383 146.42669227 -48.48046875 146.40625 C-49.61572998 146.39795166 -50.75099121 146.38965332 -51.9206543 146.38110352 C-68.19564858 146.05567312 -84.93137603 142.03600392 -96.73046875 129.96875 C-115.29568379 107.87047788 -117.04328818 81.82032413 -115.73046875 53.96875 C-114.21521607 37.46499267 -108.80901852 21.49345079 -97.73046875 8.96875 C-97.116875 8.15792969 -96.50328125 7.34710937 -95.87109375 6.51171875 C-89.37088724 -1.21024191 -80.15926595 -6.66853212 -70.73046875 -10.03125 C-69.83972656 -10.34964844 -68.94898438 -10.66804687 -68.03125 -10.99609375 C-45.66654728 -17.47558706 -18.76678326 -13.96098326 0 0 Z M-65.60546875 19.15625 C-79.84235614 35.19781326 -77.69036746 61.55295334 -76.59423828 81.44042969 C-75.59348422 93.35308856 -72.59877492 105.48224957 -63.73046875 113.96875 C-56.92621591 118.8355998 -50.12548751 120.78262974 -41.73046875 119.96875 C-34.24700184 118.44887204 -28.61014875 115.21784304 -24.29296875 108.84765625 C-13.13334244 88.62083357 -14.44961499 57.24426266 -20.48046875 35.59375 C-23.3741104 27.47011901 -27.64933762 20.94060803 -34.73046875 15.96875 C-44.72600416 11.33994501 -57.26605442 11.4188316 -65.60546875 19.15625 Z " fill="#FFFFFF" transform="translate(342.73046875,764.03125)"/>
<path d="M0 0 C1.40429527 0.00502634 2.8085923 0.00958724 4.21289062 0.01367188 C7.62113903 0.02538407 11.0292964 0.04178628 14.4375 0.0625 C14.4375 0.7225 14.4375 1.3825 14.4375 2.0625 C12.7875 2.7225 11.1375 3.3825 9.4375 4.0625 C10.52877197 4.05202637 11.62004395 4.04155273 12.74438477 4.03076172 C64.9701494 3.57338313 64.9701494 3.57338313 75.4375 7.0625 C75.4375 9.0625 75.4375 11.0625 75.4375 13.0625 C77.390625 12.54166667 79.34375 12.02083333 81.296875 11.5 C83.4375 11.0625 83.4375 11.0625 87.4375 11.0625 C87.3125 12.875 87.3125 12.875 86.4375 15.0625 C83.375 16.8125 83.375 16.8125 80.4375 18.0625 C80.4375 19.3825 80.4375 20.7025 80.4375 22.0625 C80.4375 22.7225 80.4375 23.3825 80.4375 24.0625 C79.4475 24.7225 78.4575 25.3825 77.4375 26.0625 C77.28410156 26.72894531 77.13070313 27.39539063 76.97265625 28.08203125 C76.79605469 28.73558594 76.61945313 29.38914062 76.4375 30.0625 C72.302584 32.02114442 68.72542234 33.12828979 64.1875 33.5625 C60.28822484 34.08240335 59.32792219 34.63827493 56.4375 37.0625 C55.261875 37.51625 54.08625 37.97 52.875 38.4375 C49.06439465 40.23887707 48.34020659 41.44735748 46.4375 45.0625 C42.50949949 46.3718335 40.48407926 45.56573442 36.66796875 44.21484375 C33.12872321 42.38633686 30.99688542 39.70629006 29.4375 36.0625 C29.4375 34.7425 29.4375 33.4225 29.4375 32.0625 C27.9525 31.5675 27.9525 31.5675 26.4375 31.0625 C25.42058736 29.07104609 24.42107352 27.07062926 23.4375 25.0625 C19.00974607 22.11066404 14.42105143 22.25782915 9.19921875 21.72265625 C5.39982641 21.05588854 2.79160584 19.91469579 -0.5625 18.0625 C-2.55117713 17.36278027 -4.54858051 16.68585603 -6.5625 16.0625 C-6.5625 15.0725 -6.5625 14.0825 -6.5625 13.0625 C-7.5525 12.5675 -7.5525 12.5675 -8.5625 12.0625 C-8.8925 13.3825 -9.2225 14.7025 -9.5625 16.0625 C-10.2225 16.0625 -10.8825 16.0625 -11.5625 16.0625 C-11.5625 17.3825 -11.5625 18.7025 -11.5625 20.0625 C-10.386875 20.495625 -10.386875 20.495625 -9.1875 20.9375 C-6.5625 22.0625 -6.5625 22.0625 -4.5625 24.0625 C-1.06131441 25.22956186 1.87326521 25.20815801 5.5625 25.3125 C12.21224001 25.60692087 17.0541301 27.10885977 22.4375 31.0625 C21.39591942 36.92019628 21.39591942 36.92019628 18.4375 39.0625 C15.25 40.25 15.25 40.25 12.4375 41.0625 C12.4375 41.7225 12.4375 42.3825 12.4375 43.0625 C11.1175 43.3925 9.7975 43.7225 8.4375 44.0625 C11.125 43.25 11.125 43.25 14.4375 43.0625 C17.3125 45.375 17.3125 45.375 19.4375 48.0625 C19.4375 48.7225 19.4375 49.3825 19.4375 50.0625 C20.38625 50.371875 21.335 50.68125 22.3125 51 C25.4375 52.0625 25.4375 52.0625 27.4375 53.0625 C27.4375 55.0425 27.4375 57.0225 27.4375 59.0625 C28.7575 59.7225 30.0775 60.3825 31.4375 61.0625 C31.4375 62.0525 31.4375 63.0425 31.4375 64.0625 C24.8125 64.1875 24.8125 64.1875 21.4375 63.0625 C21.4375 64.0525 21.4375 65.0425 21.4375 66.0625 C14.44111011 69.49210289 14.44111011 69.49210289 9.4375 68.0625 C8.4475 68.5575 8.4475 68.5575 7.4375 69.0625 C6.9425 70.5475 6.9425 70.5475 6.4375 72.0625 C5.695 72.289375 4.9525 72.51625 4.1875 72.75 C0.57693908 74.47322226 -0.36706404 76.64137634 -2.2890625 80.05078125 C-3.5625 82.0625 -3.5625 82.0625 -6.4375 84.5625 C-8.7638708 86.7808012 -8.7638708 86.7808012 -8.65234375 89.14453125 C-8.37795279 91.63368355 -8.37795279 91.63368355 -7.5625 95.0625 C-8.8825 95.0625 -10.2025 95.0625 -11.5625 95.0625 C-13.5625 92.0625 -13.5625 92.0625 -13.5625 89.0625 C-14.820625 89.041875 -16.07875 89.02125 -17.375 89 C-18.08269531 88.98839844 -18.79039062 88.97679687 -19.51953125 88.96484375 C-21.76555461 88.97986783 -21.76555461 88.97986783 -24.5625 90.0625 C-25.408125 90.02125 -26.25375 89.98 -27.125 89.9375 C-27.929375 89.97875 -28.73375 90.02 -29.5625 90.0625 C-32.02061625 93.74967438 -31.87368164 95.70595704 -31.5625 100.0625 C-30.5725 101.5475 -30.5725 101.5475 -29.5625 103.0625 C-26.5905615 101.93798273 -24.22809313 100.83956209 -21.5625 99.0625 C-20.2425 99.0625 -18.9225 99.0625 -17.5625 99.0625 C-18.4375 104.8125 -18.4375 104.8125 -19.5625 107.0625 C-17.2525 107.3925 -14.9425 107.7225 -12.5625 108.0625 C-12.0675 112.0225 -12.0675 112.0225 -11.5625 116.0625 C-8.20791845 116.82772801 -8.20791845 116.82772801 -4.5625 117.0625 C-3.54257248 116.08283278 -2.54336032 115.08128017 -1.5625 114.0625 C5.25199851 111.77653235 12.94965109 113.46172699 19.4375 116.0625 C20.78728453 117.37917661 22.12159365 118.71196454 23.4375 120.0625 C25.66789525 121.01611013 25.66789525 121.01611013 28 121.5625 C30.9432058 122.45320702 32.25482257 122.88535825 34.5 125.0625 C35.4375 127.0625 35.4375 127.0625 35.4375 130.0625 C36.39849609 130.33513672 36.39849609 130.33513672 37.37890625 130.61328125 C42.58565658 132.12642032 47.51157258 133.79657339 52.4375 136.0625 C53.22125 136.330625 54.005 136.59875 54.8125 136.875 C56.4375 138.0625 56.4375 138.0625 57.5 140.8125 C57.42569 144.67662 56.29355249 145.59579287 53.703125 148.29296875 C52.09420848 150.54247241 51.81005109 152.40593071 51.375 155.125 C50.64719259 159.49184444 49.89705453 162.05815001 46.4375 165.0625 C45.0767929 165.58086461 43.69979043 166.05767551 42.3125 166.5 C40.21294496 167.13592195 40.21294496 167.13592195 38.4375 168.0625 C37.2288437 170.85351437 37.2288437 170.85351437 36.4375 174.0625 C34.0037891 177.74697253 31.8232501 180.61062497 27.5625 182 C26.510625 182.0309375 26.510625 182.0309375 25.4375 182.0625 C25.1075 183.7125 24.7775 185.3625 24.4375 187.0625 C22.4575 187.3925 20.4775 187.7225 18.4375 188.0625 C18.1075 189.0525 17.7775 190.0425 17.4375 191.0625 C16.7775 191.0625 16.1175 191.0625 15.4375 191.0625 C15.4375 192.0525 15.4375 193.0425 15.4375 194.0625 C13.4375 195.75 13.4375 195.75 11.4375 197.0625 C11.664375 197.660625 11.89125 198.25875 12.125 198.875 C12.228125 199.596875 12.33125 200.31875 12.4375 201.0625 C11 202.8125 11 202.8125 9.4375 204.0625 C9.7675 205.0525 10.0975 206.0425 10.4375 207.0625 C12.94197516 208.28119929 12.94197516 208.28119929 15.4375 209.0625 C15.1075 210.0525 14.7775 211.0425 14.4375 212.0625 C7.98901869 212.52310581 3.93472522 211.47598898 -1.5625 208.0625 C-3.12844397 206.49655603 -2.73244611 204.98918297 -2.75 202.8125 C-2.60046502 187.98717482 -2.60046502 187.98717482 0.4375 182.13671875 C1.90458429 179.093665 2.13954088 176.09003429 2.5625 172.75 C2.73007813 171.47511719 2.89765625 170.20023438 3.0703125 168.88671875 C3.61442415 163.47636246 3.61442415 163.47636246 3.4375 158.0625 C1.66361144 155.8072177 1.66361144 155.8072177 -0.8125 154.125 C-5.37365559 150.45173027 -7.2620359 147.39957672 -9.5625 142.0625 C-10.2225 141.4025 -10.8825 140.7425 -11.5625 140.0625 C-11.77595295 134.79732731 -10.81585762 131.16455961 -7.5625 127.0625 C-7.31163276 123.89517579 -7.31163276 123.89517579 -7.5625 121.0625 C-8.284375 120.959375 -9.00625 120.85625 -9.75 120.75 C-13.66980392 119.79182571 -16.61252865 118.4442765 -18.9375 115.0625 C-22.19101108 111.05817867 -27.14212165 110.08986358 -32 109.125 C-37.44990733 108.01448806 -42.58750702 106.03749298 -46.5625 102.0625 C-47.26960678 100.41258418 -47.94193989 98.74687744 -48.5625 97.0625 C-49.3978125 97.43375 -49.3978125 97.43375 -50.25 97.8125 C-52.5625 98.0625 -52.5625 98.0625 -55.125 96.25 C-55.929375 95.528125 -56.73375 94.80625 -57.5625 94.0625 C-59.0475 93.0725 -59.0475 93.0725 -60.5625 92.0625 C-60.68625 91.299375 -60.81 90.53625 -60.9375 89.75 C-61.80150974 86.03475811 -63.79610532 84.64027686 -66.5625 82.0625 C-70.81602319 77.28910176 -72.59235275 74.61894452 -72.8125 68.1875 C-73.07658665 63.30003833 -73.07658665 63.30003833 -76 59.5 C-76.845625 59.025625 -77.69125 58.55125 -78.5625 58.0625 C-80.5625 55.0625 -80.5625 55.0625 -80.0625 51.3125 C-76.49426617 37.28956831 -69.74363567 22.94122319 -61.5625 11.0625 C-58.53830475 11.65053797 -55.54491547 12.28928118 -52.5625 13.0625 C-51.985 12.11375 -51.4075 11.165 -50.8125 10.1875 C-46.90055657 4.75424523 -41.82061878 4.295015 -35.5625 3.0625 C-34.21865234 2.79759766 -34.21865234 2.79759766 -32.84765625 2.52734375 C-21.82340042 0.44000218 -11.19161519 -0.0700881 0 0 Z M-4.5625 8.0625 C-4.8925 9.0525 -5.2225 10.0425 -5.5625 11.0625 C-4.10025201 10.63826756 -2.64276588 10.19759755 -1.1875 9.75 C-0.37539062 9.50636719 0.43671875 9.26273437 1.2734375 9.01171875 C3.76934629 8.14881815 3.76934629 8.14881815 5.4375 5.0625 C1.06758373 5.0625 -0.86664334 5.84498601 -4.5625 8.0625 Z M-68.5625 29.0625 C-68.5625 29.3925 -68.5625 29.7225 -68.5625 30.0625 C-66.5825 30.0625 -64.6025 30.0625 -62.5625 30.0625 C-62.5625 29.7325 -62.5625 29.4025 -62.5625 29.0625 C-64.5425 29.0625 -66.5225 29.0625 -68.5625 29.0625 Z M-8.5625 39.0625 C-10.62541239 39.05659753 -12.68826339 39.00738938 -14.75 38.9375 C-19.76663342 38.89895287 -23.40548948 38.94474211 -27.5625 42.0625 C-27.8925 43.0525 -28.2225 44.0425 -28.5625 45.0625 C-24.42117186 48.64556087 -19.85411867 49.52538542 -14.65625 50.90234375 C-11.38222895 52.13010164 -9.80683124 53.42761111 -7.5625 56.0625 C-7.5625 54.4125 -7.5625 52.7625 -7.5625 51.0625 C-6.9025 51.0625 -6.2425 51.0625 -5.5625 51.0625 C-5.8925 47.4325 -6.2225 43.8025 -6.5625 40.0625 C-5.634375 40.26875 -4.70625 40.475 -3.75 40.6875 C-0.41076598 41.42942966 -0.41076598 41.42942966 2.4375 39.0625 C-0.61052146 38.04649285 -6.01728189 36.51728189 -8.5625 39.0625 Z M12.4375 59.0625 C13.4275 59.5575 13.4275 59.5575 14.4375 60.0625 C14.4375 61.0525 14.4375 62.0425 14.4375 63.0625 C16.4175 63.0625 18.3975 63.0625 20.4375 63.0625 C20.7675 61.7425 21.0975 60.4225 21.4375 59.0625 C18.4675 59.0625 15.4975 59.0625 12.4375 59.0625 Z " fill="#FFFFFF" transform="translate(1024.5625,355.9375)"/>
<path d="M0 0 C9.8571794 7.80360036 14.92369384 20.73869625 16.53800106 32.96194267 C17.20301241 39.23927964 17.38704223 45.42943872 17.36352539 51.73876953 C17.36367142 52.78386185 17.36381744 53.82895416 17.3639679 54.90571594 C17.36327688 58.32518666 17.35552281 61.74460141 17.34765625 65.1640625 C17.34578919 67.54873627 17.34436664 69.93341043 17.34336853 72.31808472 C17.33956608 78.568411 17.32975535 84.81871373 17.31866455 91.06903076 C17.30840142 97.4574756 17.30386044 103.84592428 17.29882812 110.234375 C17.2881309 122.75001197 17.27055267 135.26562533 17.25 147.78125 C5.37 147.78125 -6.51 147.78125 -18.75 147.78125 C-18.76981934 144.78973877 -18.78963867 141.79822754 -18.81005859 138.71606445 C-18.87719074 128.79347432 -18.95482608 118.87098594 -19.03752708 108.94851398 C-19.08731309 102.93697191 -19.13364379 96.92544591 -19.171875 90.91381836 C-19.20895244 85.10413718 -19.25537129 79.29459664 -19.30806351 73.48503685 C-19.3264888 71.27689284 -19.34163972 69.06871881 -19.35334396 66.86052895 C-18.37669662 45.01514834 -18.37669662 45.01514834 -26.75 25.78125 C-30.502836 22.7197259 -33.94609187 22.02144541 -38.75 21.78125 C-48.61207176 22.91849791 -56.5072138 27.05427199 -62.75 34.78125 C-73.39655917 50.42577723 -74.0409247 68.30367846 -74.1640625 86.55078125 C-74.18281518 88.32582966 -74.20239149 90.10086953 -74.2227478 91.87590027 C-74.27364263 96.50349858 -74.31349394 101.13112566 -74.35089111 105.7588501 C-74.39831295 111.33505728 -74.45972451 116.91112652 -74.51873779 122.48722076 C-74.60642875 130.91850684 -74.67656518 139.34977351 -74.75 147.78125 C-86.63 147.78125 -98.51 147.78125 -110.75 147.78125 C-110.76981934 145.24526123 -110.78963867 142.70927246 -110.81005859 140.09643555 C-110.8774799 131.6427099 -110.95510582 123.18909902 -111.03752708 114.73550701 C-111.08711087 109.61870122 -111.13343846 104.5019124 -111.171875 99.38500977 C-111.20921406 94.43115933 -111.255693 89.47746571 -111.30806351 84.52375221 C-111.32635314 82.64991873 -111.34155074 80.77605199 -111.35334396 78.90216637 C-111.51192518 54.53664252 -114.05268903 32.27901145 -123.75 9.78125 C-124.41993885 8.11589594 -125.087179 6.44944979 -125.75 4.78125 C-121.94322741 3.21022511 -118.13461236 1.6437657 -114.32421875 0.08154297 C-113.02780317 -0.45072786 -111.73190106 -0.98425105 -110.43652344 -1.51904297 C-108.57622051 -2.28680964 -106.71391837 -3.04972659 -104.8515625 -3.8125 C-103.17054443 -4.50375977 -103.17054443 -4.50375977 -101.45556641 -5.20898438 C-98.75 -6.21875 -98.75 -6.21875 -96.75 -6.21875 C-89.4987559 2.20146041 -85.45413956 12.44865016 -81.75 22.78125 C-81.21632813 21.935625 -80.68265625 21.09 -80.1328125 20.21875 C-70.72095104 5.71343577 -58.2285519 -2.94156891 -41.11328125 -6.75 C-26.93977786 -8.72540117 -12.26731243 -8.02093505 0 0 Z " fill="#FFFFFF" transform="translate(1611.75,759.21875)"/>
<path d="M0 0 C2.01385346 1.98450769 3.09493516 3.51567752 4.14453125 6.11328125 C2.0101361 8.72198644 -0.12515686 11.32986473 -2.265625 13.93359375 C-3.98637983 16.03435672 -5.67876536 18.15385212 -7.3515625 20.29296875 C-8.13660156 21.28554688 -8.92164063 22.278125 -9.73046875 23.30078125 C-10.44976562 24.22246094 -11.1690625 25.14414062 -11.91015625 26.09375 C-12.55210937 26.76019531 -13.1940625 27.42664063 -13.85546875 28.11328125 C-14.84546875 28.11328125 -15.83546875 28.11328125 -16.85546875 28.11328125 C-16.85546875 27.45328125 -16.85546875 26.79328125 -16.85546875 26.11328125 C-17.43425781 25.85289062 -18.01304687 25.5925 -18.609375 25.32421875 C-21.00123468 24.0346944 -22.75507873 22.52974694 -24.79296875 20.73828125 C-33.82714646 13.65584079 -44.64322826 12.0060725 -55.85546875 13.11328125 C-65.60854585 14.47818199 -73.63432249 18.99215475 -79.92578125 26.625 C-98.04168678 53.48516296 -97.68091076 92.40662792 -91.73046875 123.125 C-88.93038566 136.40332195 -83.83827104 149.54513762 -72.85546875 158.11328125 C-57.34150667 167.79715567 -40.35540996 166.2228723 -23.29296875 162.28125 C-19.37782578 161.31028759 -15.59514441 160.0572887 -11.80078125 158.69262695 C-9.85546875 158.11328125 -9.85546875 158.11328125 -6.85546875 158.11328125 C-5.51481637 162.04832774 -4.18420804 165.98669771 -2.85546875 169.92578125 C-2.47390625 171.04533203 -2.09234375 172.16488281 -1.69921875 173.31835938 C-1.33828125 174.39150391 -0.97734375 175.46464844 -0.60546875 176.5703125 C-0.2703125 177.5600708 0.06484375 178.5498291 0.41015625 179.56958008 C1.14453125 182.11328125 1.14453125 182.11328125 1.14453125 185.11328125 C-27.85195903 195.2719156 -61.93547531 201.75628571 -91.1171875 188.48828125 C-106.83743611 180.59451875 -117.05415189 169.90126954 -125.10546875 154.30078125 C-125.58125366 153.39682617 -125.58125366 153.39682617 -126.06665039 152.47460938 C-132.24776616 139.96625217 -133.47449133 127.94833378 -133.421875 114.28125 C-133.42712912 112.59320233 -133.43341201 110.9051576 -133.44065857 109.21711731 C-133.45099109 105.69986031 -133.44660707 102.18300965 -133.43188477 98.66577148 C-133.41473215 94.20802039 -133.43818611 89.75156279 -133.47337437 85.2939558 C-133.49557523 81.81297121 -133.49385242 78.33228516 -133.48560905 74.8512516 C-133.48480141 73.21017351 -133.49143173 71.56907074 -133.50638008 69.92806053 C-133.61872387 55.36519444 -130.98615832 41.72280635 -124.04296875 28.73828125 C-123.70313965 28.08456543 -123.36331055 27.43084961 -123.01318359 26.75732422 C-112.23001384 6.53701833 -95.70674026 -7.04849089 -73.85546875 -13.88671875 C-47.23556594 -21.26566671 -21.49044865 -17.71467436 0 0 Z " fill="#FFFFFF" transform="translate(220.85546875,713.88671875)"/>
<path d="M0 0 C7.64243972 7.16901425 11.82352246 16.47381803 12.46484375 26.8515625 C12.82857512 41.37171898 9.08600641 52.14923221 -0.8125 63 C-19.47639495 80.33372872 -48.10908765 88.01398012 -73.08984375 87.4453125 C-73.63769531 87.42210937 -74.18554688 87.39890625 -74.75 87.375 C-71.34627429 103.49366618 -71.34627429 103.49366618 -60.75 115.375 C-48.09420752 122.34859994 -32.273116 120.26718646 -18.78515625 116.59765625 C-13.60548341 115.07863561 -8.54350602 113.26762645 -3.5078125 111.328125 C-0.75 110.375 -0.75 110.375 2.25 110.375 C6.705 120.77 6.705 120.77 11.25 131.375 C-1.61595164 144.24095164 -29.11115748 146.59682514 -46.1875 146.6875 C-65.13880218 146.6875 -81.41098501 143.41276986 -95.6875 130.125 C-112.43977753 111.88086844 -114.68623708 86.8522102 -113.90234375 63.20214844 C-113.26134649 51.30671846 -110.77564927 40.21112596 -105.75 29.375 C-105.02876953 27.77591797 -105.02876953 27.77591797 -104.29296875 26.14453125 C-97.96330843 13.25420111 -88.48765086 3.07515161 -75.75 -3.625 C-74.87859375 -4.09421875 -74.0071875 -4.5634375 -73.109375 -5.046875 C-51.1211929 -15.97667312 -19.50143487 -15.92020309 0 0 Z M-58.75 17.375 C-59.33910156 17.81457031 -59.92820312 18.25414062 -60.53515625 18.70703125 C-70.83115325 27.64531436 -74.28345319 41.39334492 -75.75 54.375 C-75.92830351 57.73034785 -75.96760854 61.02221656 -75.75 64.375 C-60.4591791 63.85928935 -43.35344474 60.79218695 -31.75 50 C-26.43249872 44.08590102 -23.40849866 37.42077146 -23.75 29.375 C-24.85908238 23.35847348 -26.90021463 19.27848579 -31.75 15.375 C-39.14060521 10.58886436 -51.97004752 12.16085641 -58.75 17.375 Z " fill="#FFFFFF" transform="translate(601.75,762.625)"/>
<path d="M0 0 C2.875 2.5625 2.875 2.5625 5 5 C5.680625 5.7425 6.36125 6.485 7.0625 7.25 C13.63687 16.58136386 16.14380474 28.22894859 14.53125 39.53515625 C12.59804211 48.50467225 9.10403319 55.18318162 3 62 C2.46503906 62.61617187 1.93007812 63.23234375 1.37890625 63.8671875 C-14.61082287 81.12229087 -40.44856346 87.12472063 -63 89 C-66.34330589 89.12142757 -69.65778019 89.14461528 -73 89 C-72.26057114 91.52436164 -71.50888352 94.04398305 -70.75 96.5625 C-70.54503906 97.26697266 -70.34007812 97.97144531 -70.12890625 98.69726562 C-68.23894155 104.91124047 -65.84420268 110.94712977 -60.75 115.25 C-60.22921875 115.70890625 -59.7084375 116.1678125 -59.171875 116.640625 C-53.0841024 120.45095749 -47.15994705 121.52996283 -40.0625 121.4375 C-39.23983643 121.43065186 -38.41717285 121.42380371 -37.56958008 121.41674805 C-25.02631948 121.09561941 -13.42407677 117.4801995 -1.85546875 112.85546875 C1.16117974 111.95171223 2.15483692 111.81738695 5 113 C6.18847656 114.81005859 6.18847656 114.81005859 7.140625 117.1484375 C7.48867187 117.98890625 7.83671875 118.829375 8.1953125 119.6953125 C8.54335937 120.57960938 8.89140625 121.46390625 9.25 122.375 C9.61351562 123.2515625 9.97703125 124.128125 10.3515625 125.03125 C13 131.5428219 13 131.5428219 13 135 C-5.74108065 143.32670293 -23.52765854 148.16610044 -44.125 148.25 C-45.98898437 148.2809375 -45.98898437 148.2809375 -47.890625 148.3125 C-65.28799128 148.38514036 -81.09477072 143.78753399 -93.8203125 131.4375 C-109.07606301 114.37730588 -112.73225168 90.54745864 -111.90234375 68.39306641 C-110.52676709 44.98621875 -103.62134848 23.45273326 -86.62890625 6.65625 C-63.91715758 -12.73637613 -24.85313729 -18.27297332 0 0 Z M-61.8125 23.625 C-71.44693951 35.75305915 -73.34780858 50.99959726 -74 66 C-57.73543625 65.50563636 -39.94450827 61.94450827 -28 50 C-22.65489808 42.87319744 -20.99917418 36.82209424 -22 28 C-23.64452798 22.64861707 -26.23697728 19.05321969 -31 16 C-42.35536161 12.21487946 -53.65718955 15.11967623 -61.8125 23.625 Z " fill="#FFFFFF" transform="translate(1456,761)"/>
<path d="M0 0 C0 13.86 0 27.72 0 42 C12.21 42 24.42 42 37 42 C36 53 36 53 33 68 C22.11 68 11.22 68 0 68 C0.08545125 80.31748546 0.17917526 92.63483127 0.28752708 104.95213699 C0.33750532 110.67135434 0.38383533 116.39055308 0.421875 122.10986328 C0.45870835 127.62773816 0.50506318 133.14545792 0.55806351 138.66320038 C0.57661779 140.76992832 0.59172191 142.87668952 0.60334396 144.9834671 C0.62018855 147.93087195 0.64921957 150.87792074 0.68115234 153.82519531 C0.68331253 154.69913437 0.68547272 155.57307343 0.68769836 156.47349548 C0.69886185 157.27833878 0.71002533 158.08318207 0.7215271 158.91241455 C0.72705786 159.60929005 0.73258862 160.30616554 0.73828697 161.02415848 C1.05194588 163.39217315 1.7364123 164.97770691 3 167 C11.53179603 171.26589801 21.03570774 168.76703892 29.80078125 166.55859375 C32.95664256 166.00757035 34.94786572 166.13532406 38 167 C38.83910389 170.26938086 39.67028333 173.54072534 40.5 176.8125 C40.85771484 178.2056543 40.85771484 178.2056543 41.22265625 179.62695312 C41.56103516 180.9659668 41.56103516 180.9659668 41.90625 182.33203125 C42.22045898 183.56530151 42.22045898 183.56530151 42.54101562 184.82348633 C43 187 43 187 43 190 C23.27761995 196.45915785 -0.8388051 201.38588486 -20.5625 192.3125 C-29.13565941 187.53684744 -33.27861839 181.37829972 -36 172 C-36.99208394 166.38741457 -37.13666475 160.97668154 -37.11352539 155.30102539 C-37.11367142 154.35390686 -37.11381744 153.40678833 -37.1139679 152.43096924 C-37.1132747 149.31984111 -37.10551015 146.20877385 -37.09765625 143.09765625 C-37.09578996 140.93289726 -37.09436705 138.76813786 -37.09336853 136.6033783 C-37.08955994 130.92018456 -37.07974385 125.2370166 -37.06866455 119.55383301 C-37.05841473 113.74878284 -37.05386327 107.94372849 -37.04882812 102.13867188 C-37.03812006 90.75910147 -37.02053672 79.37955691 -37 68 C-45.91 68 -54.82 68 -64 68 C-64 59.42 -64 50.84 -64 42 C-55.09 41.67 -46.18 41.34 -37 41 C-35.02 29.78 -33.04 18.56 -31 7 C-25.28844405 5.09614802 -19.67268579 3.69344599 -13.8125 2.375 C-12.81541016 2.14554688 -11.81832031 1.91609375 -10.79101562 1.6796875 C-9.83517578 1.463125 -8.87933594 1.2465625 -7.89453125 1.0234375 C-7.02675049 0.82669434 -6.15896973 0.62995117 -5.26489258 0.42724609 C-3 0 -3 0 0 0 Z " fill="#FFFFFF" transform="translate(1713,712)"/>
<path d="M0 0 C0.00331015 0.9806757 0.00662029 1.96135139 0.01003075 2.97174454 C0.09096506 26.8154394 0.18326217 50.65906954 0.28752708 74.5026741 C0.33768442 86.03318195 0.38412697 97.56368258 0.421875 109.09423828 C0.45477915 119.14231497 0.49460162 129.19033613 0.54279006 139.23835158 C0.56807072 144.56045152 0.58984739 149.88251455 0.60334396 155.20465851 C0.61615007 160.21146888 0.63818881 165.21815275 0.66738319 170.22489357 C0.67647033 172.06473996 0.68215184 173.90460673 0.68421364 175.74447441 C0.68752816 178.2524219 0.7029835 180.76000898 0.7215271 183.2678833 C0.71959237 183.99940306 0.71765763 184.73092282 0.71566427 185.48460984 C0.75584205 189.10813601 0.80894279 192.01881285 3 195 C10.79067373 198.42789644 18.85573846 196.22163923 27 195 C28.32 201.27 29.64 207.54 31 214 C32.32 214 33.64 214 35 214 C35 215.32 35 216.64 35 218 C-6.29346546 228.36333515 -6.29346546 228.36333515 -22.2265625 219.25390625 C-30.89740664 213.12319927 -34.8293198 205.7259139 -36.5988121 195.42500877 C-37.44435464 188.20646946 -37.25851841 180.93414688 -37.22705078 173.67700195 C-37.22648576 171.84289048 -37.226805 170.00877857 -37.22793579 168.17466736 C-37.22850676 163.22502316 -37.21679404 158.27547702 -37.20278788 153.32585549 C-37.1902377 148.14222483 -37.18910665 142.95859163 -37.18673706 137.77494812 C-37.18053485 127.97215316 -37.16414114 118.16940311 -37.14403808 108.36662787 C-37.1216398 97.20093251 -37.11067579 86.03523494 -37.10064721 74.86952269 C-37.07977375 51.91299028 -37.04462236 28.95649767 -37 6 C-32.69640431 5.13821127 -28.39139707 4.28397472 -24.08496094 3.43652344 C-22.62199103 3.14754971 -21.15941725 2.85656256 -19.69726562 2.56347656 C-17.58826513 2.1411018 -15.47791788 1.72613196 -13.3671875 1.3125 C-12.09987793 1.06113281 -10.83256836 0.80976562 -9.52685547 0.55078125 C-6.27733598 0.04331095 -3.28077155 -0.10597378 0 0 Z " fill="#FFFFFF" transform="translate(1970,685)"/>
<path d="M0 0 C-1.41006805 7.84974889 -3.43276868 15.46110188 -5.625 23.125 C-5.94984375 24.27226563 -6.2746875 25.41953125 -6.609375 26.6015625 C-7.4028407 29.40202967 -8.19977684 32.20145776 -9 35 C-14.73486328 34.06787109 -14.73486328 34.06787109 -17.12109375 33.45703125 C-25.61158536 31.39177653 -33.55253941 33.99011905 -41.0078125 38.109375 C-47.67313255 42.95144607 -52.34716965 53.02455468 -54 61 C-54.11830432 63.94285549 -54.18506981 66.86399477 -54.20532227 69.80761719 C-54.21522186 70.69577621 -54.22512146 71.58393524 -54.23532104 72.49900818 C-54.26688188 75.43160343 -54.2916721 78.36421488 -54.31640625 81.296875 C-54.33698045 83.33140481 -54.35797705 85.36593039 -54.37937927 87.40045166 C-54.43455179 92.7532 -54.48398235 98.1059866 -54.53222656 103.45880127 C-54.58247676 108.92178754 -54.63814446 114.3847183 -54.69335938 119.84765625 C-54.80088203 130.56505848 -54.90183944 141.28250792 -55 152 C-67.21 152 -79.42 152 -92 152 C-92.0093457 149.17679199 -92.01869141 146.35358398 -92.02832031 143.44482422 C-92.06236119 134.02914773 -92.11805661 124.6136842 -92.18390274 115.19817924 C-92.22311017 109.49962223 -92.25542792 103.80121358 -92.27099609 98.10253906 C-92.28634111 92.58447981 -92.32109414 87.06682923 -92.36830902 81.54895401 C-92.38294143 79.46269444 -92.39103034 77.37637647 -92.39188385 75.29006577 C-92.40854281 54.95316943 -93.74494379 32.09583414 -104.68359375 14.25390625 C-106 12 -106 12 -106 9 C-102.19322741 7.42897511 -98.38461236 5.8625157 -94.57421875 4.30029297 C-93.27780317 3.76802214 -91.98190106 3.23449895 -90.68652344 2.69970703 C-88.82622051 1.93194036 -86.96391837 1.16902341 -85.1015625 0.40625 C-83.42054443 -0.28500977 -83.42054443 -0.28500977 -81.70556641 -0.99023438 C-79 -2 -79 -2 -77 -2 C-70.60948954 6.53507366 -66.6302596 16.05803904 -63 26 C-62.63648438 25.28714844 -62.27296875 24.57429687 -61.8984375 23.83984375 C-55.61483403 11.86877355 -48.36480682 3.71034663 -35.1875 -0.875 C-22.99493602 -4.38009335 -12.19059718 -2.98981069 0 0 Z " fill="#FFFFFF" transform="translate(488,755)"/>
<path d="M0 0 C262.68 0 525.36 0 796 0 C796 2.97 796 5.94 796 9 C533.32 9 270.64 9 0 9 C0 6.03 0 3.06 0 0 Z " fill="#FFFFFF" transform="translate(64,1004)"/>
<path d="M0 0 C12.21 0 24.42 0 37 0 C37.0093457 3.70508789 37.01869141 7.41017578 37.02832031 11.22753906 C37.06204964 23.45325713 37.11737404 35.67879684 37.18390274 47.90437698 C37.22371949 55.31857926 37.25609849 62.73267498 37.27099609 70.14697266 C37.28399907 76.60896796 37.31092868 83.0707291 37.35461307 89.53259254 C37.37725885 92.95445796 37.39290885 96.37603425 37.39188385 99.79798126 C37.39423947 103.6173088 37.42120794 107.43571354 37.45410156 111.25488281 C37.4490712 112.39064255 37.44404083 113.52640228 37.43885803 114.69657898 C37.45277084 115.73701859 37.46668365 116.77745819 37.48101807 117.84942627 C37.48470524 118.75278339 37.48839241 119.65614052 37.49219131 120.5868721 C38.16439954 123.78123343 39.47584055 124.99409396 42 127 C44.93576131 127.41002253 47.60553099 127.25687948 50.55957031 127.11621094 C51.36491211 127.07786133 52.17025391 127.03951172 53 127 C53.69986698 130.43510236 54.38274929 133.87336524 55.0625 137.3125 C55.26166016 138.28896484 55.46082031 139.26542969 55.66601562 140.27148438 C55.84970703 141.20927734 56.03339844 142.14707031 56.22265625 143.11328125 C56.39547119 143.97735596 56.56828613 144.84143066 56.74633789 145.73168945 C57 148 57 148 56 151 C46.0814639 156.75915 31.64392845 155.82389938 21 153 C13.11732988 150.50061679 7.43428354 144.66512551 3.64453125 137.40234375 C0.10609205 128.93308313 -0.14219539 121.01021066 -0.11352539 111.93603516 C-0.11367142 110.72571625 -0.11381744 109.51539734 -0.1139679 108.2684021 C-0.11339208 104.96305297 -0.10838909 101.65776689 -0.10139394 98.35242891 C-0.09512754 94.89310677 -0.094554 91.43378373 -0.09336853 87.97445679 C-0.09026489 81.4297778 -0.08206456 74.88511558 -0.07201904 68.34044397 C-0.06082784 60.88700278 -0.05533988 53.43356077 -0.05032361 45.98011327 C-0.03988112 30.65339749 -0.02154769 15.3267048 0 0 Z " fill="#FFFFFF" transform="translate(1274,754)"/>
<path d="M0 0 C3.95217972 3.49054109 3.95217972 3.49054109 5.09741211 5.78100586 C1.54061877 5.32500671 -1.67161868 4.55346814 -5.03027344 3.34130859 C-9.78397332 1.73712856 -14.460149 0.81866894 -19.42211914 0.12866211 C-20.32259476 0.00241959 -21.22307037 -0.12382294 -22.15083313 -0.25389099 C-32.20522036 -1.54762696 -42.24862394 -1.68840313 -52.37338257 -1.75775146 C-57.86278515 -1.79826904 -63.35132712 -1.88955879 -68.84008789 -1.98071289 C-70.43278755 -2.00642365 -70.43278755 -2.00642365 -72.05766296 -2.03265381 C-88.76953225 -2.32810973 -105.66197996 -2.96462076 -121.90258789 -7.21899414 C-122.53777344 -7.38238281 -123.17295898 -7.54577148 -123.82739258 -7.71411133 C-143.61698939 -12.92900265 -159.27763879 -23.1409264 -172.90258789 -38.46899414 C-173.23258789 -39.04649414 -173.56258789 -39.62399414 -173.90258789 -40.21899414 C-172.90258789 -43.21899414 -172.90258789 -43.21899414 -170.91040039 -44.28149414 C-110.17098182 -64.03415059 -46.32230863 -39.90933142 0 0 Z " fill="#FFFFFF" transform="translate(1242.902587890625,331.218994140625)"/>
<path d="M0 0 C0.495 1.485 0.495 1.485 1 3 C0.3709375 3.15855469 -0.258125 3.31710938 -0.90625 3.48046875 C-14.96176539 7.31186677 -22.5450364 15.70057533 -30.5625 27.625 C-37.41853303 37.78662039 -46.3092793 47.22766561 -58.8515625 49.76171875 C-64.2611856 50.36169513 -69.80336086 50.73221305 -75 49 C-75.90894515 35.66880447 -70.19750314 23.72250376 -61.8125 13.6875 C-54.70048816 6.16976936 -45.94737191 2.33964667 -36 0 C-35.17242188 -0.20496094 -34.34484375 -0.40992188 -33.4921875 -0.62109375 C-22.86128434 -2.9218116 -10.41050436 -3.47016812 0 0 Z " fill="#FFFFFF" transform="translate(1023,189)"/>
<path d="M0 0 C0.99 0 1.98 0 3 0 C3.08975098 0.68811768 3.17950195 1.37623535 3.27197266 2.08520508 C9.16362029 46.17718073 28.28213862 84.99306144 64.20703125 112.4921875 C87.53974542 129.85480992 114.88194518 142.61315677 144 146 C144.81210938 146.10957031 145.62421875 146.21914063 146.4609375 146.33203125 C172.9131844 149.38421358 199.6327917 145.93100463 223.91796875 134.8828125 C226 134 226 134 228 134 C227 137 227 137 224.40234375 138.4296875 C184.22229785 155.1902478 141.5657896 158.09533176 100.671875 141.9765625 C80.49272215 133.64533549 62.06763761 120.78704737 47 105 C46.195625 104.195625 45.39125 103.39125 44.5625 102.5625 C43.716875 101.716875 42.87125 100.87125 42 100 C41.41605469 99.45085937 40.83210937 98.90171875 40.23046875 98.3359375 C15.68157348 74.80386038 0.98089497 40.80010212 -0.09765625 6.93359375 C-0.08605469 6.10988281 -0.07445312 5.28617187 -0.0625 4.4375 C-0.05347656 3.59058594 -0.04445313 2.74367188 -0.03515625 1.87109375 C-0.02355469 1.25363281 -0.01195312 0.63617188 0 0 Z " fill="#FFFFFF" transform="translate(950,469)"/>
<path d="M0 0 C1.19367188 -0.02578125 2.38734375 -0.0515625 3.6171875 -0.078125 C8.67810552 0.39527936 11.91620965 2.26610088 15.8125 5.4375 C20.39670379 11.01288299 21.68363679 16.63789143 21.3984375 23.80078125 C20.71565881 29.91652751 18.92541417 33.84869671 14.4375 38.125 C8.72016349 42.6780789 3.82658474 43.49542983 -3.375 43.1875 C-8.81797985 42.50901221 -12.92074379 41.14163225 -16.875 37.25 C-21.70942701 30.7058366 -22.92975128 24.23254948 -21.875 16.25 C-20.73354484 9.99394768 -17.6939768 6.64408635 -12.91015625 2.59765625 C-8.83283597 -0.10229672 -4.80939535 0.06205671 0 0 Z " fill="#FFFFFF" transform="translate(1292.875,686.75)"/>
<path d="M0 0 C1.04929687 -0.02578125 2.09859375 -0.0515625 3.1796875 -0.078125 C6.43056586 0.28404182 7.74850767 1.06867854 10.125 3.25 C10.74375 2.940625 11.3625 2.63125 12 2.3125 C15.76109606 0.43195197 18.1646335 0.02944163 22.4375 -0.0625 C23.56800781 -0.09988281 24.69851563 -0.13726563 25.86328125 -0.17578125 C29.96605677 0.35979064 31.36841907 1.16130089 34.125 4.25 C37.93861256 11.31317238 37.48094943 19.00767656 37.3125 26.8125 C37.29219727 28.61170898 37.29219727 28.61170898 37.27148438 30.44726562 C37.236408 33.38198879 37.18725427 36.31574882 37.125 39.25 C33.825 39.25 30.525 39.25 27.125 39.25 C27.095271 38.09999512 27.095271 38.09999512 27.06494141 36.92675781 C26.96964554 33.45082781 26.85998402 29.97549494 26.75 26.5 C26.7190625 25.2934375 26.688125 24.086875 26.65625 22.84375 C26.59824219 21.10351562 26.59824219 21.10351562 26.5390625 19.328125 C26.5076416 18.25981445 26.4762207 17.19150391 26.44384766 16.09082031 C26.12906045 13.28617721 25.6832622 11.5856988 24.125 9.25 C21.77627469 8.08022506 21.77627469 8.08022506 19.125 8.25 C16.27395353 10.40432772 15.23953515 11.63470653 14.57910156 15.18261719 C14.5581543 16.29282227 14.53720703 17.40302734 14.515625 18.546875 C14.48339844 19.75214844 14.45117188 20.95742188 14.41796875 22.19921875 C14.40378906 23.45347656 14.38960937 24.70773437 14.375 26 C14.33052734 27.90458984 14.33052734 27.90458984 14.28515625 29.84765625 C14.21446049 32.98183485 14.16175988 36.11526956 14.125 39.25 C10.825 39.25 7.525 39.25 4.125 39.25 C4.11041748 38.48856689 4.09583496 37.72713379 4.08081055 36.94262695 C4.00619459 33.48208112 3.90957741 30.02248555 3.8125 26.5625 C3.78994141 25.36431641 3.76738281 24.16613281 3.74414062 22.93164062 C3.70869141 21.77470703 3.67324219 20.61777344 3.63671875 19.42578125 C3.61053467 18.36270752 3.58435059 17.29963379 3.55737305 16.2043457 C3.0759426 12.91479753 2.00677956 10.95985019 0.125 8.25 C-2.79445157 8.56561639 -4.41917801 8.78553909 -6.51098633 10.91699219 C-8.23492593 13.865617 -8.30326257 15.92311299 -8.38671875 19.328125 C-8.42216797 20.48828125 -8.45761719 21.6484375 -8.49414062 22.84375 C-8.52797852 24.65359375 -8.52797852 24.65359375 -8.5625 26.5 C-8.59666016 27.72203125 -8.63082031 28.9440625 -8.66601562 30.203125 C-8.74847162 33.21865846 -8.81763201 36.23390194 -8.875 39.25 C-12.175 39.25 -15.475 39.25 -18.875 39.25 C-18.875 26.71 -18.875 14.17 -18.875 1.25 C-15.245 1.25 -11.615 1.25 -7.875 1.25 C-5.18393093 -0.09553453 -3.00334578 0.04405886 0 0 Z " fill="#FFFFFF" transform="translate(1375.875,990.75)"/>
<path d="M0 0 C5.94244523 4.40528274 10.77875338 9.73063007 14.875 15.875 C14.72265625 17.921875 14.72265625 17.921875 13.875 19.875 C8.25766424 24.60231633 0.12832116 24.79423099 -6.8671875 24.453125 C-15.37654202 23.60335895 -23.22145073 19.29660302 -30.38671875 14.8515625 C-39.75241022 9.09348368 -47.46441231 9.12122107 -58.125 9.875 C-58.125 8.885 -58.125 7.895 -58.125 6.875 C-55.44037381 5.39450762 -52.75150659 3.92304746 -50.0546875 2.46484375 C-48.38355216 1.5579743 -46.71785386 0.64046525 -45.0703125 -0.30859375 C-30.99701585 -8.07004705 -13.56992933 -8.92922068 0 0 Z " fill="#FFFFFF" transform="translate(869.125,370.125)"/>
<path d="M0 0 C1.14210938 -0.00257813 2.28421875 -0.00515625 3.4609375 -0.0078125 C6.625 0.125 6.625 0.125 8.52587891 0.62939453 C10.87750546 1.1846169 12.96220166 1.22298233 15.375 1.1875 C16.57382813 1.17396484 16.57382813 1.17396484 17.796875 1.16015625 C18.70179687 1.14275391 18.70179687 1.14275391 19.625 1.125 C19.6748757 6.06883313 19.71094211 11.01251599 19.73486328 15.95654297 C19.74484803 17.63430334 19.75844057 19.31204664 19.77587891 20.98974609 C20.00013334 43.13816904 20.00013334 43.13816904 15.875 50.0625 C10.64093956 54.86038874 5.85112334 55.58572322 -0.9375 55.4375 C-1.67935547 55.44072266 -2.42121094 55.44394531 -3.18554688 55.44726562 C-7.35387452 55.40643606 -10.56913099 55.01662994 -14.375 53.125 C-14.045 50.815 -13.715 48.505 -13.375 46.125 C-6.55681818 47.07954545 -6.55681818 47.07954545 -3.375 47.875 C0.80829709 48.22360809 3.06641818 47.3148965 6.625 45.125 C8.15545985 41.56607712 8.15545985 41.56607712 8.625 38.125 C7.14 38.62 7.14 38.62 5.625 39.125 C-0.1740732 39.59728767 -5.52211786 39.9051609 -10.9375 37.625 C-16.19884495 32.22874877 -17.63189068 27.69380354 -17.875 20.125 C-17.6945155 14.31215452 -17.00865358 9.76345811 -13.375 5.125 C-8.78267298 0.86069634 -6.19457974 -0.0139204 0 0 Z M-6.375 12.125 C-8.68160133 16.84304817 -8.91871566 21.14750656 -7.375 26.125 C-5.60330211 29.18580644 -3.54597169 31.50292129 -0.375 33.1875 C2.67746079 33.0921106 4.22549946 31.97076964 6.625 30.125 C10.24957422 26.12546983 10.06043154 21.87003159 9.921875 16.72265625 C9.42660242 12.38902117 7.61869985 10.11869985 4.625 7.125 C-0.90155636 6.26531346 -2.99967114 7.81207979 -6.375 12.125 Z " fill="#FFFFFF" transform="translate(1814.375,990.875)"/>
<path d="M0 0 C3.3 0 6.6 0 10 0 C10 5.94 10 11.88 10 18 C11.32 17.34 12.64 16.68 14 16 C20.08601658 15.36940069 25.92651074 15.14200444 31.625 17.5 C36.97546279 23.1320661 38.26640005 27.67440155 38.5 35.5 C38.32739991 41.48148596 37.80621107 46.25141513 34 51 C29.25458956 55.40645255 26.59641837 56.13842182 20.1875 56.125 C18.35251953 56.12886719 18.35251953 56.12886719 16.48046875 56.1328125 C13 56 13 56 10.55078125 55.4921875 C7.12378771 54.74738556 7.12378771 54.74738556 0 55 C0 36.85 0 18.7 0 0 Z M11 28 C9.60134097 30.79731805 9.75462733 33.19284559 9.6875 36.3125 C9.65011719 37.44300781 9.61273437 38.57351563 9.57421875 39.73828125 C10.08394182 43.64304057 11.27209183 45.22148129 14 48 C16.88861709 49.44430855 18.79647701 49.37688506 22 49 C25.91505963 46.33064116 27.36861685 43.66474187 28.5 39.1875 C29.29890878 34.13779358 28.63827958 30.38311787 26 26 C23.69143955 23.45262295 22.45171974 23.07688847 19.0625 22.5 C14.98896737 23.16506655 13.59736229 24.88316525 11 28 Z " fill="#FFFFFF" transform="translate(1424,975)"/>
<path d="M0 0 C1.51400391 0.01740234 1.51400391 0.01740234 3.05859375 0.03515625 C4.07050781 0.04417969 5.08242187 0.05320312 6.125 0.0625 C7.29869141 0.07990234 7.29869141 0.07990234 8.49609375 0.09765625 C12.20820871 8.86631983 15.2680764 17.86465271 18.35205078 26.86767578 C19.25187763 29.48950879 20.16097886 32.10801389 21.0703125 34.7265625 C21.64510054 36.3995441 22.21933929 38.07271455 22.79296875 39.74609375 C23.20068512 40.91487564 23.20068512 40.91487564 23.61663818 42.10726929 C24.81993233 45.64969241 25.49609375 48.31704761 25.49609375 52.09765625 C22.19609375 52.09765625 18.89609375 52.09765625 15.49609375 52.09765625 C14.65889992 49.80733314 13.82620085 47.51554668 12.99609375 45.22265625 C12.75761719 44.57167969 12.51914063 43.92070313 12.2734375 43.25 C10.49609375 38.32421875 10.49609375 38.32421875 10.49609375 36.09765625 C5.54609375 36.42765625 0.59609375 36.75765625 -4.50390625 37.09765625 C-6.15390625 42.04765625 -7.80390625 46.99765625 -9.50390625 52.09765625 C-12.80390625 52.09765625 -16.10390625 52.09765625 -19.50390625 52.09765625 C-18.88410861 46.01095227 -17.15795674 40.59120368 -15.16015625 34.82421875 C-14.8310022 33.85986908 -14.50184814 32.89551941 -14.16271973 31.90194702 C-13.46965718 29.8755174 -12.7735972 27.85011073 -12.07470703 25.82568359 C-11.00102458 22.71430558 -9.93728535 19.59966038 -8.875 16.484375 C-8.19979661 14.51412479 -7.52403515 12.54406572 -6.84765625 10.57421875 C-6.5278479 9.63889313 -6.20803955 8.7035675 -5.87854004 7.73989868 C-5.58153198 6.88165497 -5.28452393 6.02341125 -4.97851562 5.13916016 C-4.58666077 4.00167831 -4.58666077 4.00167831 -4.18688965 2.84121704 C-3.13730249 0.16176829 -2.99054545 0.11663594 0 0 Z M2.49609375 13.09765625 C1.65689977 15.36647712 0.82457651 17.63742652 -0.00390625 19.91015625 C-0.24238281 20.55275391 -0.48085937 21.19535156 -0.7265625 21.85742188 C-1.77459371 24.74699364 -2.50390625 26.99841686 -2.50390625 30.09765625 C1.12609375 30.09765625 4.75609375 30.09765625 8.49609375 30.09765625 C7.81546875 27.83921875 7.81546875 27.83921875 7.12109375 25.53515625 C5.87941639 21.3981933 4.67074057 17.25409885 3.49609375 13.09765625 C3.16609375 13.09765625 2.83609375 13.09765625 2.49609375 13.09765625 Z " fill="#FFFFFF" transform="translate(1766.50390625,977.90234375)"/>
<path d="M0 0 C1.51400391 0.01740234 1.51400391 0.01740234 3.05859375 0.03515625 C4.07050781 0.04417969 5.08242187 0.05320312 6.125 0.0625 C7.29869141 0.07990234 7.29869141 0.07990234 8.49609375 0.09765625 C12.20820871 8.86631983 15.2680764 17.86465271 18.35205078 26.86767578 C19.25187763 29.48950879 20.16097886 32.10801389 21.0703125 34.7265625 C21.64510054 36.3995441 22.21933929 38.07271455 22.79296875 39.74609375 C23.20068512 40.91487564 23.20068512 40.91487564 23.61663818 42.10726929 C24.81993233 45.64969241 25.49609375 48.31704761 25.49609375 52.09765625 C22.19609375 52.09765625 18.89609375 52.09765625 15.49609375 52.09765625 C14.65889992 49.80733314 13.82620085 47.51554668 12.99609375 45.22265625 C12.75761719 44.57167969 12.51914063 43.92070313 12.2734375 43.25 C10.49609375 38.32421875 10.49609375 38.32421875 10.49609375 36.09765625 C5.54609375 36.42765625 0.59609375 36.75765625 -4.50390625 37.09765625 C-6.15390625 42.04765625 -7.80390625 46.99765625 -9.50390625 52.09765625 C-12.80390625 52.09765625 -16.10390625 52.09765625 -19.50390625 52.09765625 C-18.88410861 46.01095227 -17.15795674 40.59120368 -15.16015625 34.82421875 C-14.8310022 33.85986908 -14.50184814 32.89551941 -14.16271973 31.90194702 C-13.46965718 29.8755174 -12.7735972 27.85011073 -12.07470703 25.82568359 C-11.00102458 22.71430558 -9.93728535 19.59966038 -8.875 16.484375 C-8.19979661 14.51412479 -7.52403515 12.54406572 -6.84765625 10.57421875 C-6.5278479 9.63889313 -6.20803955 8.7035675 -5.87854004 7.73989868 C-5.58153198 6.88165497 -5.28452393 6.02341125 -4.97851562 5.13916016 C-4.58666077 4.00167831 -4.58666077 4.00167831 -4.18688965 2.84121704 C-3.13730249 0.16176829 -2.99054545 0.11663594 0 0 Z M2.49609375 13.09765625 C1.65689977 15.36647712 0.82457651 17.63742652 -0.00390625 19.91015625 C-0.24238281 20.55275391 -0.48085937 21.19535156 -0.7265625 21.85742188 C-1.77459371 24.74699364 -2.50390625 26.99841686 -2.50390625 30.09765625 C1.12609375 30.09765625 4.75609375 30.09765625 8.49609375 30.09765625 C7.81546875 27.83921875 7.81546875 27.83921875 7.12109375 25.53515625 C5.87941639 21.3981933 4.67074057 17.25409885 3.49609375 13.09765625 C3.16609375 13.09765625 2.83609375 13.09765625 2.49609375 13.09765625 Z " fill="#FFFFFF" transform="translate(1323.50390625,977.90234375)"/>
<path d="M0 0 C4.22354129 2.52560466 6.90047588 6.07946566 8.7109375 10.62109375 C9.4123374 17.70033924 10.02392667 25.80351085 6.078125 32.03515625 C2.351508 36.35803197 -0.97521724 38.34639066 -6.7109375 39.02734375 C-13.12210678 39.18965183 -17.6855647 38.97188854 -23.2890625 35.62109375 C-29.22517654 29.19030354 -29.83544488 23.910116 -29.59375 15.33203125 C-29.11948345 9.55570783 -27.7630476 6.1448072 -23.734375 2.03515625 C-17.16467574 -3.06834403 -7.46839606 -3.13104966 0 0 Z M-16.0390625 7.74609375 C-19.31419667 11.93098742 -20.56661887 15.3375414 -20.1640625 20.62109375 C-19.52038812 24.66150763 -17.86292719 27.42326186 -15.2890625 30.62109375 C-12.40044541 32.0654023 -10.49258549 31.99797881 -7.2890625 31.62109375 C-3.24440267 28.49567479 -1.27198008 25.63397341 -0.2890625 20.62109375 C-0.19744385 14.90638076 -1.65394471 11.13745222 -5.2890625 6.62109375 C-9.44634351 4.54245324 -12.40701413 4.93951092 -16.0390625 7.74609375 Z " fill="#FFFFFF" transform="translate(1959.2890625,992.37890625)"/>
<path d="M0 0 C4.22354129 2.52560466 6.90047588 6.07946566 8.7109375 10.62109375 C9.4123374 17.70033924 10.02392667 25.80351085 6.078125 32.03515625 C2.351508 36.35803197 -0.97521724 38.34639066 -6.7109375 39.02734375 C-13.12210678 39.18965183 -17.6855647 38.97188854 -23.2890625 35.62109375 C-29.22517654 29.19030354 -29.83544488 23.910116 -29.59375 15.33203125 C-29.11948345 9.55570783 -27.7630476 6.1448072 -23.734375 2.03515625 C-17.16467574 -3.06834403 -7.46839606 -3.13104966 0 0 Z M-16.0390625 7.74609375 C-19.31419667 11.93098742 -20.56661887 15.3375414 -20.1640625 20.62109375 C-19.52038812 24.66150763 -17.86292719 27.42326186 -15.2890625 30.62109375 C-12.40044541 32.0654023 -10.49258549 31.99797881 -7.2890625 31.62109375 C-3.24440267 28.49567479 -1.27198008 25.63397341 -0.2890625 20.62109375 C-0.19744385 14.90638076 -1.65394471 11.13745222 -5.2890625 6.62109375 C-9.44634351 4.54245324 -12.40701413 4.93951092 -16.0390625 7.74609375 Z " fill="#FFFFFF" transform="translate(1178.2890625,992.37890625)"/>
<path d="M0 0 C4.22354129 2.52560466 6.90047588 6.07946566 8.7109375 10.62109375 C9.4123374 17.70033924 10.02392667 25.80351085 6.078125 32.03515625 C2.351508 36.35803197 -0.97521724 38.34639066 -6.7109375 39.02734375 C-13.12210678 39.18965183 -17.6855647 38.97188854 -23.2890625 35.62109375 C-29.22517654 29.19030354 -29.83544488 23.910116 -29.59375 15.33203125 C-29.11948345 9.55570783 -27.7630476 6.1448072 -23.734375 2.03515625 C-17.16467574 -3.06834403 -7.46839606 -3.13104966 0 0 Z M-16.0390625 7.74609375 C-19.31419667 11.93098742 -20.56661887 15.3375414 -20.1640625 20.62109375 C-19.52038812 24.66150763 -17.86292719 27.42326186 -15.2890625 30.62109375 C-12.40044541 32.0654023 -10.49258549 31.99797881 -7.2890625 31.62109375 C-3.24440267 28.49567479 -1.27198008 25.63397341 -0.2890625 20.62109375 C-0.19744385 14.90638076 -1.65394471 11.13745222 -5.2890625 6.62109375 C-9.44634351 4.54245324 -12.40701413 4.93951092 -16.0390625 7.74609375 Z " fill="#FFFFFF" transform="translate(958.2890625,992.37890625)"/>
<path d="M0 0 C1.17755859 -0.00483398 1.17755859 -0.00483398 2.37890625 -0.00976562 C6.64941115 0.02984277 9.98330659 0.35102401 13.875 2.3125 C13.215 4.6225 12.555 6.9325 11.875 9.3125 C10.28171875 9.13460937 10.28171875 9.13460937 8.65625 8.953125 C-1.37379916 7.73708563 -1.37379916 7.73708563 -10.64453125 11 C-14.61902593 14.52356257 -16.88681445 18.67684028 -17.36328125 23.94921875 C-17.52421462 30.5644274 -17.33877226 35.96474621 -13.125 41.3125 C-6.91563118 46.2546507 -1.48973414 46.84077603 6.17578125 46.0859375 C8.07828587 45.84939163 9.9771148 45.58362646 11.875 45.3125 C12.37 48.7775 12.37 48.7775 12.875 52.3125 C5.69334132 56.36348485 -5.24693163 55.31475592 -13.12890625 53.6953125 C-18.72660812 51.49517229 -22.8990386 47.33463381 -26.125 42.3125 C-29.43404227 34.51737358 -29.53661896 24.34769443 -27.25 16.19140625 C-23.83316495 8.80699629 -18.63540295 4.00931299 -11.12744141 0.91235352 C-7.45192493 -0.18868818 -3.80657479 -0.0789091 0 0 Z " fill="#FFFFFF" transform="translate(911.125,976.6875)"/>
<path d="M0 0 C3.53233692 1.4007543 5.15685109 2.3337827 6.8815918 5.7421875 C9.41019627 12.67479855 9.34531551 19.25038156 9.1875 26.5625 C9.16719727 28.36170898 9.16719727 28.36170898 9.14648438 30.19726562 C9.111408 33.13198879 9.06225427 36.06574882 9 39 C5.7 39 2.4 39 -1 39 C-1.01458252 38.26885986 -1.02916504 37.53771973 -1.04418945 36.78442383 C-1.1188291 33.45992629 -1.21543801 30.13641533 -1.3125 26.8125 C-1.33505859 25.66201172 -1.35761719 24.51152344 -1.38085938 23.32617188 C-1.4340332 21.65844727 -1.4340332 21.65844727 -1.48828125 19.95703125 C-1.51446533 18.93585205 -1.54064941 17.91467285 -1.56762695 16.86254883 C-2.06289109 13.58362615 -3.04410893 11.65955101 -5 9 C-7.33333333 7.66666667 -7.33333333 7.66666667 -10 8 C-12.56422101 9.6443211 -13.56201404 10.39855266 -15 13 C-15.77132985 17.43059155 -15.79076598 21.82321656 -15.8125 26.3125 C-15.83763672 27.53001953 -15.86277344 28.74753906 -15.88867188 30.00195312 C-15.94748901 33.00162687 -15.98381039 35.99984298 -16 39 C-19.3 39 -22.6 39 -26 39 C-26 26.46 -26 13.92 -26 1 C-22.33333333 1 -18.66666667 1 -15 1 C-10.57323556 -1.21338222 -4.81869674 -0.39862698 0 0 Z " fill="#FFFFFF" transform="translate(1559,991)"/>
<path d="M0 0 C3.53233692 1.4007543 5.15685109 2.3337827 6.8815918 5.7421875 C9.41019627 12.67479855 9.34531551 19.25038156 9.1875 26.5625 C9.16719727 28.36170898 9.16719727 28.36170898 9.14648438 30.19726562 C9.111408 33.13198879 9.06225427 36.06574882 9 39 C5.7 39 2.4 39 -1 39 C-1.01458252 38.26885986 -1.02916504 37.53771973 -1.04418945 36.78442383 C-1.1188291 33.45992629 -1.21543801 30.13641533 -1.3125 26.8125 C-1.33505859 25.66201172 -1.35761719 24.51152344 -1.38085938 23.32617188 C-1.4340332 21.65844727 -1.4340332 21.65844727 -1.48828125 19.95703125 C-1.51446533 18.93585205 -1.54064941 17.91467285 -1.56762695 16.86254883 C-2.06289109 13.58362615 -3.04410893 11.65955101 -5 9 C-7.33333333 7.66666667 -7.33333333 7.66666667 -10 8 C-12.56422101 9.6443211 -13.56201404 10.39855266 -15 13 C-15.77132985 17.43059155 -15.79076598 21.82321656 -15.8125 26.3125 C-15.83763672 27.53001953 -15.86277344 28.74753906 -15.88867188 30.00195312 C-15.94748901 33.00162687 -15.98381039 35.99984298 -16 39 C-19.3 39 -22.6 39 -26 39 C-26 26.46 -26 13.92 -26 1 C-22.33333333 1 -18.66666667 1 -15 1 C-10.57323556 -1.21338222 -4.81869674 -0.39862698 0 0 Z " fill="#FFFFFF" transform="translate(1003,991)"/>
<path d="M0 0 C1.28003906 -0.00773438 2.56007813 -0.01546875 3.87890625 -0.0234375 C7.69816865 0.40418573 9.49938445 0.92743098 12.4375 3.375 C15.14150276 7.8660602 15.8379018 11.31380442 15.94921875 16.5234375 C15.97614555 17.50952499 15.97614555 17.50952499 16.00361633 18.51553345 C16.05734437 20.59362572 16.09149125 22.67149347 16.125 24.75 C16.15820653 26.16799976 16.19269924 27.58597001 16.22851562 29.00390625 C16.31304651 32.4607218 16.38003568 35.91761638 16.4375 39.375 C15.66664062 39.36339844 14.89578125 39.35179687 14.1015625 39.33984375 C13.09867188 39.33082031 12.09578125 39.32179688 11.0625 39.3125 C9.56589844 39.29509766 9.56589844 39.29509766 8.0390625 39.27734375 C5.45317547 39.19493398 5.45317547 39.19493398 3.4375 40.375 C1.33801399 40.54971848 -0.76874408 40.64217852 -2.875 40.6875 C-4.00550781 40.72488281 -5.13601563 40.76226563 -6.30078125 40.80078125 C-10.20554057 40.29105818 -11.78398129 39.10290817 -14.5625 36.375 C-16.55203178 32.39593645 -16.08196374 27.70182735 -15.5625 23.375 C-14.13746577 19.89930676 -11.86824833 18.01445058 -8.47265625 16.3515625 C-3.73543672 14.58623967 0.41358464 14.05432455 5.4375 14.375 C4.52894765 11.23636461 3.98708569 9.72612419 1.1875 7.9375 C-2.30909019 7.22228837 -4.23721463 8.19729477 -7.5625 9.375 C-10.4375 9 -10.4375 9 -12.5625 8.375 C-12.8925 6.725 -13.2225 5.075 -13.5625 3.375 C-8.87363951 0.63560392 -5.41044105 -0.03275746 0 0 Z M-2.5625 22.375 C-4.99427033 24.84843931 -4.99427033 24.84843931 -6.5625 27.375 C-5.47465032 30.62483135 -5.47465032 30.62483135 -3.5625 33.375 C-0.10823858 33.44181009 -0.10823858 33.44181009 3.4375 32.375 C6.30048537 28.40376223 6.78204953 25.19869337 6.4375 20.375 C3.14970955 20.375 0.51927556 21.25918471 -2.5625 22.375 Z " fill="#FFFFFF" transform="translate(2012.5625,990.625)"/>
<path d="M0 0 C1.28003906 -0.00773438 2.56007813 -0.01546875 3.87890625 -0.0234375 C7.69816865 0.40418573 9.49938445 0.92743098 12.4375 3.375 C15.14150276 7.8660602 15.8379018 11.31380442 15.94921875 16.5234375 C15.97614555 17.50952499 15.97614555 17.50952499 16.00361633 18.51553345 C16.05734437 20.59362572 16.09149125 22.67149347 16.125 24.75 C16.15820653 26.16799976 16.19269924 27.58597001 16.22851562 29.00390625 C16.31304651 32.4607218 16.38003568 35.91761638 16.4375 39.375 C15.66664062 39.36339844 14.89578125 39.35179687 14.1015625 39.33984375 C13.09867188 39.33082031 12.09578125 39.32179688 11.0625 39.3125 C9.56589844 39.29509766 9.56589844 39.29509766 8.0390625 39.27734375 C5.45317547 39.19493398 5.45317547 39.19493398 3.4375 40.375 C1.33801399 40.54971848 -0.76874408 40.64217852 -2.875 40.6875 C-4.00550781 40.72488281 -5.13601563 40.76226563 -6.30078125 40.80078125 C-10.20554057 40.29105818 -11.78398129 39.10290817 -14.5625 36.375 C-16.55203178 32.39593645 -16.08196374 27.70182735 -15.5625 23.375 C-14.13746577 19.89930676 -11.86824833 18.01445058 -8.47265625 16.3515625 C-3.73543672 14.58623967 0.41358464 14.05432455 5.4375 14.375 C4.52894765 11.23636461 3.98708569 9.72612419 1.1875 7.9375 C-2.30909019 7.22228837 -4.23721463 8.19729477 -7.5625 9.375 C-10.4375 9 -10.4375 9 -12.5625 8.375 C-12.8925 6.725 -13.2225 5.075 -13.5625 3.375 C-8.87363951 0.63560392 -5.41044105 -0.03275746 0 0 Z M-2.5625 22.375 C-4.99427033 24.84843931 -4.99427033 24.84843931 -6.5625 27.375 C-5.47465032 30.62483135 -5.47465032 30.62483135 -3.5625 33.375 C-0.10823858 33.44181009 -0.10823858 33.44181009 3.4375 32.375 C6.30048537 28.40376223 6.78204953 25.19869337 6.4375 20.375 C3.14970955 20.375 0.51927556 21.25918471 -2.5625 22.375 Z " fill="#FFFFFF" transform="translate(1620.5625,990.625)"/>
<path d="M0 0 C1.28003906 -0.00773438 2.56007813 -0.01546875 3.87890625 -0.0234375 C7.69816865 0.40418573 9.49938445 0.92743098 12.4375 3.375 C15.14150276 7.8660602 15.8379018 11.31380442 15.94921875 16.5234375 C15.97614555 17.50952499 15.97614555 17.50952499 16.00361633 18.51553345 C16.05734437 20.59362572 16.09149125 22.67149347 16.125 24.75 C16.15820653 26.16799976 16.19269924 27.58597001 16.22851562 29.00390625 C16.31304651 32.4607218 16.38003568 35.91761638 16.4375 39.375 C15.66664062 39.36339844 14.89578125 39.35179687 14.1015625 39.33984375 C13.09867188 39.33082031 12.09578125 39.32179688 11.0625 39.3125 C9.56589844 39.29509766 9.56589844 39.29509766 8.0390625 39.27734375 C5.45317547 39.19493398 5.45317547 39.19493398 3.4375 40.375 C1.33801399 40.54971848 -0.76874408 40.64217852 -2.875 40.6875 C-4.00550781 40.72488281 -5.13601563 40.76226563 -6.30078125 40.80078125 C-10.20554057 40.29105818 -11.78398129 39.10290817 -14.5625 36.375 C-16.55203178 32.39593645 -16.08196374 27.70182735 -15.5625 23.375 C-14.13746577 19.89930676 -11.86824833 18.01445058 -8.47265625 16.3515625 C-3.73543672 14.58623967 0.41358464 14.05432455 5.4375 14.375 C4.52894765 11.23636461 3.98708569 9.72612419 1.1875 7.9375 C-2.30909019 7.22228837 -4.23721463 8.19729477 -7.5625 9.375 C-10.4375 9 -10.4375 9 -12.5625 8.375 C-12.8925 6.725 -13.2225 5.075 -13.5625 3.375 C-8.87363951 0.63560392 -5.41044105 -0.03275746 0 0 Z M-2.5625 22.375 C-4.99427033 24.84843931 -4.99427033 24.84843931 -6.5625 27.375 C-5.47465032 30.62483135 -5.47465032 30.62483135 -3.5625 33.375 C-0.10823858 33.44181009 -0.10823858 33.44181009 3.4375 32.375 C6.30048537 28.40376223 6.78204953 25.19869337 6.4375 20.375 C3.14970955 20.375 0.51927556 21.25918471 -2.5625 22.375 Z " fill="#FFFFFF" transform="translate(1260.5625,990.625)"/>
<path d="M0 0 C3.3 0 6.6 0 10 0 C10.01458252 0.79696289 10.02916504 1.59392578 10.04418945 2.41503906 C10.11867475 6.02718124 10.21533512 9.63839974 10.3125 13.25 C10.33505859 14.50425781 10.35761719 15.75851562 10.38085938 17.05078125 C10.41630859 18.25605469 10.45175781 19.46132813 10.48828125 20.703125 C10.51446533 21.81333008 10.54064941 22.92353516 10.56762695 24.06738281 C11.0368717 27.2500863 11.85591294 28.65373477 14 31 C16.9042893 30.89207179 16.9042893 30.89207179 20 30 C22.77923239 26.36856192 23.39592129 23.55906953 23.51171875 19.04296875 C23.54716797 17.93115234 23.58261719 16.81933594 23.61914062 15.67382812 C23.64169922 14.52333984 23.66425781 13.37285156 23.6875 12.1875 C23.72166016 11.01767578 23.75582031 9.84785156 23.79101562 8.64257812 C23.87332316 5.76181446 23.94253178 2.88134862 24 0 C27.3 0 30.6 0 34 0 C34 12.54 34 25.08 34 38 C30 38 26 38 22 38 C21.01 38.495 21.01 38.495 20 39 C18.04450744 39.12257461 16.08429382 39.17552388 14.125 39.1875 C13.07570313 39.20167969 12.02640625 39.21585938 10.9453125 39.23046875 C7.94596951 38.99577215 6.53411834 38.53534036 4 37 C-1.07202258 29.76438737 -0.46853051 22.58152522 -0.25 14 C-0.22989985 12.63934927 -0.21165529 11.2786698 -0.1953125 9.91796875 C-0.1484085 6.611237 -0.08277725 3.30599584 0 0 Z " fill="#FFFFFF" transform="translate(1056,992)"/>
<path d="M0 0 C6.2906236 6.45192165 6.4375 11.05306723 6.4375 20.5 C-2.1425 20.5 -10.7225 20.5 -19.5625 20.5 C-16.55536543 27.85146614 -16.55536543 27.85146614 -10.77734375 31.1796875 C-6.03565498 31.86543438 -1.2794551 31.14286909 3.4375 30.5 C3.9325 33.47 3.9325 33.47 4.4375 36.5 C0.5789404 39.06216524 -3.47621311 38.8316636 -7.9375 38.8125 C-8.68 38.82861328 -9.4225 38.84472656 -10.1875 38.86132812 C-15.7532807 38.86624489 -19.951957 37.88111286 -24.20703125 34 C-29.61584708 27.05356094 -29.19616942 19.94892555 -28.5625 11.5 C-27.07321867 6.06088556 -24.34086838 2.56305665 -19.5625 -0.5 C-13.32732209 -2.57839264 -6.04314426 -2.54448179 0 0 Z M-16.5625 7.5 C-17.5525 9.81 -18.5425 12.12 -19.5625 14.5 C-13.9525 14.5 -8.3425 14.5 -2.5625 14.5 C-4.07311828 8.97975567 -4.07311828 8.97975567 -7.5625 5.5 C-11.37957998 3.71869601 -13.42403906 4.92485257 -16.5625 7.5 Z " fill="#FFFFFF" transform="translate(1715.5625,992.5)"/>
<path d="M0 0 C6.2906236 6.45192165 6.4375 11.05306723 6.4375 20.5 C-2.1425 20.5 -10.7225 20.5 -19.5625 20.5 C-16.55536543 27.85146614 -16.55536543 27.85146614 -10.77734375 31.1796875 C-6.03565498 31.86543438 -1.2794551 31.14286909 3.4375 30.5 C3.9325 33.47 3.9325 33.47 4.4375 36.5 C0.5789404 39.06216524 -3.47621311 38.8316636 -7.9375 38.8125 C-8.68 38.82861328 -9.4225 38.84472656 -10.1875 38.86132812 C-15.7532807 38.86624489 -19.951957 37.88111286 -24.20703125 34 C-29.61584708 27.05356094 -29.19616942 19.94892555 -28.5625 11.5 C-27.07321867 6.06088556 -24.34086838 2.56305665 -19.5625 -0.5 C-13.32732209 -2.57839264 -6.04314426 -2.54448179 0 0 Z M-16.5625 7.5 C-17.5525 9.81 -18.5425 12.12 -19.5625 14.5 C-13.9525 14.5 -8.3425 14.5 -2.5625 14.5 C-4.07311828 8.97975567 -4.07311828 8.97975567 -7.5625 5.5 C-11.37957998 3.71869601 -13.42403906 4.92485257 -16.5625 7.5 Z " fill="#FFFFFF" transform="translate(1518.5625,992.5)"/>
<path d="M0 0 C1.24652344 -0.01417969 2.49304687 -0.02835938 3.77734375 -0.04296875 C7.0625 0.1875 7.0625 0.1875 10.0625 2.1875 C9.7325 4.4975 9.4025 6.8075 9.0625 9.1875 C8.381875 9.0225 7.70125 8.8575 7 8.6875 C3.6460178 8.11660941 0.45860195 8.12090977 -2.9375 8.1875 C-3.2675 9.5075 -3.5975 10.8275 -3.9375 12.1875 C-1.40063585 14.30155346 1.15153939 15.73957544 4.125 17.125 C7.34898954 18.72500968 9.47419879 19.82403861 11.0625 23.1875 C12.09209209 27.74712211 12.43986189 30.07637889 10.9375 34.5 C8.80521829 37.55627045 7.41734615 38.59957008 4.0625 40.1875 C0.43359375 40.55078125 0.43359375 40.55078125 -3.5 40.5 C-4.80066406 40.49613281 -6.10132813 40.49226563 -7.44140625 40.48828125 C-10.58685081 40.21766758 -12.32054656 39.85888757 -14.9375 38.1875 C-14.6075 35.8775 -14.2775 33.5675 -13.9375 31.1875 C-11.02567396 31.66151819 -8.16808861 32.12710775 -5.3125 32.875 C-2.49938219 33.24514708 -1.30166462 32.67604809 1.0625 31.1875 C0.97955727 28.77875825 0.97955727 28.77875825 0.0625 26.1875 C-2.34705497 24.42243026 -2.34705497 24.42243026 -5.3125 23.125 C-9.16467327 21.29038978 -11.82929808 19.98505577 -13.9375 16.1875 C-14.60117922 12.78614398 -14.5444482 9.59744532 -13.9375 6.1875 C-9.64632555 0.65414348 -6.77280131 0.03494738 0 0 Z " fill="#FFFFFF" transform="translate(1035.9375,990.8125)"/>
<path d="M0 0 C0.72445313 -0.00386719 1.44890625 -0.00773438 2.1953125 -0.01171875 C5.39282879 -0.00581927 7.94582607 0.10694202 11 1.125 C10.125 7 10.125 7 9 8.125 C6.91583207 8.0661252 4.83246736 7.97772261 2.75 7.875 C-2.50848757 7.82967081 -2.50848757 7.82967081 -7.1875 10.0625 C-9.81140309 14.49599143 -11.64800979 18.94608406 -10.5859375 24.15625 C-9.17665172 27.81110104 -7.57273218 30.4834744 -4 32.125 C0.63082751 32.41902079 4.4692588 32.08606631 9 31.125 C10 32.125 10 32.125 10.0625 35.6875 C10.041875 36.821875 10.02125 37.95625 10 39.125 C3.72596419 41.21634527 -5.02703079 41.12621375 -11.43359375 39.51171875 C-16.14275059 37.13092008 -19.3396652 33.03253827 -21 28.125 C-21.77674354 21.82928919 -22.39591046 14.79963823 -19.375 9 C-13.63151901 2.04736512 -9.02798799 -0.04819211 0 0 Z " fill="#FFFFFF" transform="translate(1914,990.875)"/>
<path d="M0 0 C0 3.63 0 7.26 0 11 C3.3 11 6.6 11 10 11 C10 12.98 10 14.96 10 17 C6.7 17 3.4 17 0 17 C0.33 25.25 0.66 33.5 1 42 C3.64 42.33 6.28 42.66 9 43 C9 45.31 9 47.62 9 50 C6.93933896 50.1357683 4.87607243 50.23233903 2.8125 50.3125 C1.66394531 50.37050781 0.51539063 50.42851563 -0.66796875 50.48828125 C-5.04763418 49.84647799 -6.25196294 48.41135635 -9 45 C-9.56762695 41.86206055 -9.56762695 41.86206055 -9.48828125 38.38671875 C-9.47216797 37.13955078 -9.45605469 35.89238281 -9.43945312 34.60742188 C-9.39755859 33.31384766 -9.35566406 32.02027344 -9.3125 30.6875 C-9.28994141 29.37458984 -9.26738281 28.06167969 -9.24414062 26.70898438 C-9.18527725 23.4714987 -9.10308804 20.23633 -9 17 C-10.98 17 -12.96 17 -15 17 C-15 15.02 -15 13.04 -15 11 C-13.02 11 -11.04 11 -9 11 C-9 8.03 -9 5.06 -9 2 C-5.62902617 0.50178941 -3.79557881 0 0 0 Z " fill="#FFFFFF" transform="translate(1590,981)"/>
<path d="M0 0 C0 3.63 0 7.26 0 11 C3.3 11 6.6 11 10 11 C10 12.98 10 14.96 10 17 C6.7 17 3.4 17 0 17 C0.33 25.25 0.66 33.5 1 42 C3.64 42.33 6.28 42.66 9 43 C9 45.31 9 47.62 9 50 C6.93933896 50.1357683 4.87607243 50.23233903 2.8125 50.3125 C1.66394531 50.37050781 0.51539063 50.42851563 -0.66796875 50.48828125 C-5.04763418 49.84647799 -6.25196294 48.41135635 -9 45 C-9.56762695 41.86206055 -9.56762695 41.86206055 -9.48828125 38.38671875 C-9.47216797 37.13955078 -9.45605469 35.89238281 -9.43945312 34.60742188 C-9.39755859 33.31384766 -9.35566406 32.02027344 -9.3125 30.6875 C-9.28994141 29.37458984 -9.26738281 28.06167969 -9.24414062 26.70898438 C-9.18527725 23.4714987 -9.10308804 20.23633 -9 17 C-10.98 17 -12.96 17 -15 17 C-15 15.02 -15 13.04 -15 11 C-13.02 11 -11.04 11 -9 11 C-9 8.03 -9 5.06 -9 2 C-5.62902617 0.50178941 -3.79557881 0 0 0 Z " fill="#FFFFFF" transform="translate(1134,981)"/>
<path d="M0 0 C3.3 0 6.6 0 10 0 C10 18.15 10 36.3 10 55 C6.7 55 3.4 55 0 55 C0 36.85 0 18.7 0 0 Z " fill="#FFFFFF" transform="translate(1978,975)"/>
<path d="M0 0 C3.3 0 6.6 0 10 0 C10 18.15 10 36.3 10 55 C6.7 55 3.4 55 0 55 C0 36.85 0 18.7 0 0 Z " fill="#FFFFFF" transform="translate(1648,975)"/>
<path d="M0 0 C3.3 0 6.6 0 10 0 C10 18.15 10 36.3 10 55 C6.7 55 3.4 55 0 55 C0 36.85 0 18.7 0 0 Z " fill="#FFFFFF" transform="translate(1102,975)"/>
<path d="M0 0 C1.23556641 0.01740234 1.23556641 0.01740234 2.49609375 0.03515625 C3.32238281 0.04417969 4.14867187 0.05320312 5 0.0625 C5.63808594 0.07410156 6.27617188 0.08570313 6.93359375 0.09765625 C6.93359375 2.73765625 6.93359375 5.37765625 6.93359375 8.09765625 C5.29390625 8.46890625 5.29390625 8.46890625 3.62109375 8.84765625 C-0.3145852 10.18178471 -1.08862324 10.62067588 -3.06640625 14.09765625 C-3.56752142 16.89529068 -3.56752142 16.89529068 -3.578125 19.95703125 C-3.61357422 21.07207031 -3.64902344 22.18710937 -3.68554688 23.3359375 C-3.71938477 25.07423828 -3.71938477 25.07423828 -3.75390625 26.84765625 C-3.78806641 28.02199219 -3.82222656 29.19632813 -3.85742188 30.40625 C-3.93985798 33.30329014 -4.00902436 36.20002923 -4.06640625 39.09765625 C-7.36640625 39.09765625 -10.66640625 39.09765625 -14.06640625 39.09765625 C-14.06640625 26.55765625 -14.06640625 14.01765625 -14.06640625 1.09765625 C-10.43640625 1.09765625 -6.80640625 1.09765625 -3.06640625 1.09765625 C-2.06640625 0.09765625 -2.06640625 0.09765625 0 0 Z " fill="#FFFFFF" transform="translate(1859.06640625,990.90234375)"/>
<path d="M0 0 C1.23556641 0.01740234 1.23556641 0.01740234 2.49609375 0.03515625 C3.32238281 0.04417969 4.14867187 0.05320312 5 0.0625 C5.63808594 0.07410156 6.27617188 0.08570313 6.93359375 0.09765625 C6.93359375 2.73765625 6.93359375 5.37765625 6.93359375 8.09765625 C5.29390625 8.46890625 5.29390625 8.46890625 3.62109375 8.84765625 C-0.3145852 10.18178471 -1.08862324 10.62067588 -3.06640625 14.09765625 C-3.56752142 16.89529068 -3.56752142 16.89529068 -3.578125 19.95703125 C-3.61357422 21.07207031 -3.64902344 22.18710937 -3.68554688 23.3359375 C-3.71938477 25.07423828 -3.71938477 25.07423828 -3.75390625 26.84765625 C-3.78806641 28.02199219 -3.82222656 29.19632813 -3.85742188 30.40625 C-3.93985798 33.30329014 -4.00902436 36.20002923 -4.06640625 39.09765625 C-7.36640625 39.09765625 -10.66640625 39.09765625 -14.06640625 39.09765625 C-14.06640625 26.55765625 -14.06640625 14.01765625 -14.06640625 1.09765625 C-10.43640625 1.09765625 -6.80640625 1.09765625 -3.06640625 1.09765625 C-2.06640625 0.09765625 -2.06640625 0.09765625 0 0 Z " fill="#FFFFFF" transform="translate(1211.06640625,990.90234375)"/>
<path d="M0 0 C3.3 0 6.6 0 10 0 C10 12.54 10 25.08 10 38 C6.7 38 3.4 38 0 38 C0 25.46 0 12.92 0 0 Z " fill="#FFFFFF" transform="translate(1874,992)"/>
<path d="M0 0 C3.3 0 6.6 0 10 0 C10 12.54 10 25.08 10 38 C6.7 38 3.4 38 0 38 C0 25.46 0 12.92 0 0 Z " fill="#FFFFFF" transform="translate(1470,992)"/>
<path d="M0 0 C3.3 0 6.6 0 10 0 C10 12.54 10 25.08 10 38 C6.7 38 3.4 38 0 38 C0 25.46 0 12.92 0 0 Z " fill="#FFFFFF" transform="translate(1225,992)"/>
<path d="M0 0 C1.32 0.33 2.64 0.66 4 1 C4.50724362 7.84778887 2.99098933 12.83784126 0 19 C-1 20 -1 20 -3.4375 20.25 C-4.283125 20.1675 -5.12875 20.085 -6 20 C-8.59004927 16.1149261 -8.21322703 13.95342175 -7.6875 9.4453125 C-6.5684661 5.46511236 -4.37487432 4.24991621 -1 2 C-0.67 1.34 -0.34 0.68 0 0 Z " fill="#FFFFFF" transform="translate(1200,504)"/>
<path d="M0 0 C-2.18715393 4.69128668 -4.90145446 8.77642486 -9 12 C-12.12024425 12.65376546 -14.86641483 12.51160574 -18 12 C-14.55147252 1.65441756 -11.00511773 -1.2142249 0 0 Z " fill="#FFFFFF" transform="translate(1891,976)"/>
<path d="M0 0 C0 0.66 0 1.32 0 2 C-1.32 2.33 -2.64 2.66 -4 3 C-4 3.66 -4 4.32 -4 5 C-5.299375 4.979375 -6.59875 4.95875 -7.9375 4.9375 C-9.29165633 4.91600546 -10.64756083 4.92851801 -12 5 C-12.33 5.33 -12.66 5.66 -13 6 C-17.73132555 5.63605188 -21.18343542 4.8913368 -25 2 C-25 1.34 -25 0.68 -25 0 C-4.51612903 -2.25806452 -4.51612903 -2.25806452 0 0 Z " fill="#FFFFFF" transform="translate(1170,371)"/>
<path d="M0 0 C4.60696532 -0.2820591 7.67621703 0.13032891 11.82421875 2.1328125 C16.66969557 4.06404383 21.90956976 4.92067569 27 6 C27 6.99 27 7.98 27 9 C25.04174127 9.02694851 23.08337774 9.04637218 21.125 9.0625 C19.48917969 9.07990234 19.48917969 9.07990234 17.8203125 9.09765625 C15 9 15 9 13 8 C12.67 8.33 12.34 8.66 12 9 C10.68 9 9.36 9 8 9 C8 7.68 8 6.36 8 5 C3.545 4.01 3.545 4.01 -1 3 C-0.67 2.01 -0.34 1.02 0 0 Z " fill="#FFFFFF" transform="translate(1010,453)"/>
<path d="M0 0 C0.94552734 0.16242187 0.94552734 0.16242187 1.91015625 0.328125 C3.91015625 3.328125 3.91015625 3.328125 3.72265625 5.890625 C2.91015625 8.328125 2.91015625 8.328125 -0.08984375 10.328125 C-2.94495267 10.68501362 -4.4803437 10.69382503 -6.96484375 9.203125 C-8.08984375 7.328125 -8.08984375 7.328125 -7.83984375 4.203125 C-6.56018643 -0.70222806 -4.81566385 0.17479724 0 0 Z " fill="#FFFFFF" transform="translate(1477.08984375,977.671875)"/>
<path d="M0 0 C0.94552734 0.16242187 0.94552734 0.16242187 1.91015625 0.328125 C3.91015625 3.328125 3.91015625 3.328125 3.72265625 5.890625 C2.91015625 8.328125 2.91015625 8.328125 -0.08984375 10.328125 C-2.94495267 10.68501362 -4.4803437 10.69382503 -6.96484375 9.203125 C-8.08984375 7.328125 -8.08984375 7.328125 -7.83984375 4.203125 C-6.56018643 -0.70222806 -4.81566385 0.17479724 0 0 Z " fill="#FFFFFF" transform="translate(1232.08984375,977.671875)"/>
<path d="M0 0 C2.12493141 -0.02693575 4.24995912 -0.04636628 6.375 -0.0625 C7.55835938 -0.07410156 8.74171875 -0.08570313 9.9609375 -0.09765625 C13 0 13 0 15 1 C15 1.66 15 2.32 15 3 C10.8705512 5.00215699 7.56744115 5.33217754 3 5 C0.5625 4 0.5625 4 -1 3 C-0.67 2.01 -0.34 1.02 0 0 Z " fill="#FFFFFF" transform="translate(1097,391)"/>
<path d="M0 0 C0.99 0 1.98 0 3 0 C3 0.99 3 1.98 3 3 C2.01 3 1.02 3 0 3 C0 2.01 0 1.02 0 0 Z " fill="#FFFFFF" transform="translate(1267,478)"/>
</svg>
